999
dxfrw 0.6.3
  0
SECTION
  2
HEADER
  9
$ACADVER
  1
AC1021
  9
$DWGCODEPAGE
  3
ANSI_1252
  9
$INSBASE
 10
0
 20
0
 30
0
  9
$EXTMIN
 10
-0.5
 20
0.25
 30
0
  9
$EXTMAX
 10
419.5
 20
297.25
 30
0
  9
$LIMMIN
 10
0
 20
0
  9
$LIMMAX
 10
420
 20
297
  9
$ORTHOMODE
 70
    0
  9
$REGENMODE
 70
    1
  9
$FILLMODE
 70
    1
  9
$QTEXTMODE
 70
    0
  9
$MIRRTEXT
 70
    0
  9
$LTSCALE
 40
1
  9
$ATTMODE
 70
    0
  9
$TEXTSIZE
 40
2.5
  9
$TRACEWID
 40
15.68
  9
$TEXTSTYLE
  7
STANDARD
  9
$CLAYER
  8
schematic
  9
$CELTYPE
  6
BYLAYER
  9
$CECOLOR
 62
  256
  9
$CELTSCALE
 40
1
  9
$DISPSILH
 70
    0
  9
$DIMSCALE
 40
1
  9
$DIMASZ
 40
2.5
  9
$DIMEXO
 40
0.625
  9
$DIMDLI
 40
3.75
  9
$DIMRND
 40
0
  9
$DIMDLE
 40
0
  9
$DIMEXE
 40
1.25
  9
$DIMTP
 40
0
  9
$DIMTM
 40
0
  9
$DIMTXT
 40
2.5
  9
$DIMCEN
 40
2.5
  9
$DIMTSZ
 40
0
  9
$DIMTOL
 70
    0
  9
$DIMLIM
 70
    0
  9
$DIMTIH
 70
    0
  9
$DIMTOH
 70
    0
  9
$DIMSE1
 70
    0
  9
$DIMSE2
 70
    0
  9
$DIMTAD
 70
    1
  9
$DIMZIN
 70
    8
  9
$DIMBLK
  1

  9
$DIMASO
 70
    1
  9
$DIMSHO
 70
    1
  9
$DIMPOST
  1

  9
$DIMAPOST
  1

  9
$DIMALT
 70
    0
  9
$DIMALTD
 70
    3
  9
$DIMALTF
 40
0.03937
  9
$DIMLFAC
 40
1
  9
$DIMTOFL
 70
    1
  9
$DIMTVP
 40
0
  9
$DIMTIX
 70
    0
  9
$DIMSOXD
 70
    0
  9
$DIMSAH
 70
    0
  9
$DIMBLK1
  1

  9
$DIMBLK2
  1

  9
$DIMSTYLE
  2
Standard
  9
$DIMCLRD
 70
    0
  9
$DIMCLRE
 70
    0
  9
$DIMCLRT
 70
    0
  9
$DIMTFAC
 40
1
  9
$DIMGAP
 40
0.625
  9
$DIMJUST
 70
    0
  9
$DIMSD1
 70
    0
  9
$DIMSD2
 70
    0
  9
$DIMTOLJ
 70
    0
  9
$DIMTZIN
 70
    8
  9
$DIMALTZ
 70
    0
  9
$DIMALTTZ
 70
    0
  9
$DIMUPT
 70
    0
  9
$DIMDEC
 70
    2
  9
$DIMTDEC
 70
    2
  9
$DIMALTU
 70
    2
  9
$DIMALTTD
 70
    3
  9
$DIMTXSTY
  7
STANDARD
  9
$DIMAUNIT
 70
    0
  9
$DIMADEC
 70
    0
  9
$DIMALTRND
 40
0
  9
$DIMAZIN
 70
    0
  9
$DIMDSEP
 70
   44
  9
$DIMATFIT
 70
    3
  9
$DIMFRAC
 70
    0
  9
$DIMLDRBLK
  1
STANDARD
  9
$DIMLUNIT
 70
    2
  9
$DIMLWD
 70
   -2
  9
$DIMLWE
 70
   -2
  9
$DIMTMOVE
 70
    0
  9
$DIMFXL
 40
1
  9
$DIMFXLON
 70
    0
  9
$DIMJOGANG
 40
0.7854
  9
$DIMTFILL
 70
    0
  9
$DIMTFILLCLR
 70
    0
  9
$DIMARCSYM
 70
    0
  9
$DIMLTYPE
  6

  9
$DIMLTEX1
  6

  9
$DIMLTEX2
  6

  9
$LUNITS
 70
    2
  9
$LUPREC
 70
    4
  9
$SKETCHINC
 40
1
  9
$FILLETRAD
 40
0
  9
$AUNITS
 70
    0
  9
$AUPREC
 70
    2
  9
$MENU
  1
.
  9
$ELEVATION
 40
0
  9
$PELEVATION
 40
0
  9
$THICKNESS
 40
0
  9
$LIMCHECK
 70
    0
  9
$CHAMFERA
 40
0
  9
$CHAMFERB
 40
0
  9
$CHAMFERC
 40
0
  9
$CHAMFERD
 40
0
  9
$SKPOLY
 70
    0
  9
$USRTIMER
 70
    1
  9
$ANGBASE
 50
0
  9
$ANGDIR
 70
    0
  9
$PDMODE
 70
   34
  9
$PDSIZE
 40
0
  9
$PLINEWID
 40
0
  9
$SPLFRAME
 70
    0
  9
$SPLINETYPE
 70
    2
  9
$SPLINESEGS
 70
    8
  9
$HANDSEED
  5
20000
  9
$SURFTAB1
 70
    6
  9
$SURFTAB2
 70
    6
  9
$SURFTYPE
 70
    6
  9
$SURFU
 70
    6
  9
$SURFV
 70
    6
  9
$UCSBASE
  2

  9
$UCSNAME
  2

  9
$UCSORG
 10
0
 20
0
 30
0
  9
$UCSXDIR
 10
1
 20
0
 30
0
  9
$UCSYDIR
 10
0
 20
1
 30
0
  9
$UCSORTHOREF
  2

  9
$UCSORTHOVIEW
 70
    0
  9
$UCSORGTOP
 10
0
 20
0
 30
0
  9
$UCSORGBOTTOM
 10
0
 20
0
 30
0
  9
$UCSORGLEFT
 10
0
 20
0
 30
0
  9
$UCSORGRIGHT
 10
0
 20
0
 30
0
  9
$UCSORGFRONT
 10
0
 20
0
 30
0
  9
$UCSORGBACK
 10
0
 20
0
 30
0
  9
$PUCSBASE
  2

  9
$PUCSNAME
  2

  9
$PUCSORG
 10
0
 20
0
 30
0
  9
$PUCSXDIR
 10
1
 20
0
 30
0
  9
$PUCSYDIR
 10
0
 20
1
 30
0
  9
$PUCSORTHOREF
  2

  9
$PUCSORTHOVIEW
 70
    0
  9
$PUCSORGTOP
 10
0
 20
0
 30
0
  9
$PUCSORGBOTTOM
 10
0
 20
0
 30
0
  9
$PUCSORGLEFT
 10
0
 20
0
 30
0
  9
$PUCSORGRIGHT
 10
0
 20
0
 30
0
  9
$PUCSORGFRONT
 10
0
 20
0
 30
0
  9
$PUCSORGBACK
 10
0
 20
0
 30
0
  9
$USERI1
 70
    0
  9
$USERI2
 70
    0
  9
$USERI3
 70
    0
  9
$USERI4
 70
    0
  9
$USERI5
 70
    0
  9
$USERR1
 40
0
  9
$USERR2
 40
0
  9
$USERR3
 40
0
  9
$USERR4
 40
0
  9
$USERR5
 40
0
  9
$WORLDVIEW
 70
    1
  9
$SHADEDGE
 70
    3
  9
$SHADEDIF
 70
   70
  9
$TILEMODE
 70
    1
  9
$MAXACTVP
 70
   64
  9
$PINSBASE
 10
18.00336700336698
 20
12.34427609427608
 30
0
  9
$PLIMCHECK
 70
    0
  9
$PEXTMIN
 10
0
 20
0
 30
0
  9
$PEXTMAX
 10
0
 20
0
 30
0
  9
$GRIDMODE
 70
    1
  9
$SNAPSTYLE
 70
    0
  9
$PLIMMIN
 10
0
 20
0
  9
$PLIMMAX
 10
297
 20
210
  9
$UNITMODE
 70
    0
  9
$VISRETAIN
 70
    1
  9
$PLINEGEN
 70
    0
  9
$PSLTSCALE
 70
    1
  9
$TREEDEPTH
 70
 3020
  9
$CMLSTYLE
  2
Standard
  9
$CMLJUST
 70
    0
  9
$CMLSCALE
 40
20
  9
$PROXYGRAPHICS
 70
    1
  9
$MEASUREMENT
 70
    1
  9
$CELWEIGHT
370
   -1
  9
$ENDCAPS
280
    0
  9
$JOINSTYLE
280
    0
  9
$LWDISPLAY
290
    0
  9
$INSUNITS
 70
    0
  9
$HYPERLINKBASE
  1

  9
$STYLESHEET
  1

  9
$XEDIT
290
    1
  9
$CEPSNTYPE
380
    0
  9
$PSTYLEMODE
290
    1
  9
$EXTNAMES
290
    1
  9
$PSVPSCALE
 40
0.6228956228956229
  9
$OLESTARTUP
290
    0
  9
$SORTENTS
280
  127
  9
$INDEXCTL
280
    0
  9
$HIDETEXT
280
    1
  9
$XCLIPFRAME
290
    0
  9
$HALOGAP
280
    0
  9
$OBSCOLOR
 70
  257
  9
$OBSLTYPE
280
    0
  9
$INTERSECTIONDISPLAY
280
    0
  9
$INTERSECTIONCOLOR
 70
  257
  9
$DIMASSOC
280
    0
  9
$PROJECTNAME
  1

  9
$CAMERADISPLAY
290
    0
  9
$LENSLENGTH
 40
50
  9
$CAMERAHEIGHT
 40
0
  9
$STEPSPERSEC
 40
2
  9
$STEPSIZE
 40
50
  9
$3DDWFPREC
 40
2
  9
$PSOLWIDTH
 40
5
  9
$PSOLHEIGHT
 40
80
  9
$LOFTANG1
 40
1.570796326794897
  9
$LOFTANG2
 40
1.570796326794897
  9
$LOFTMAG1
 40
0
  9
$LOFTMAG2
 40
0
  9
$LOFTPARAM
 70
    7
  9
$LOFTNORMALS
280
    1
  9
$LATITUDE
 40
1
  9
$LONGITUDE
 40
1
  9
$NORTHDIRECTION
 40
0
  9
$TIMEZONE
 70
-8000
  9
$LIGHTGLYPHDISPLAY
280
    1
  9
$TILEMODELIGHTSYNCH
280
    1
  9
$SOLIDHIST
280
    1
  9
$SHOWHIST
280
    1
  9
$DWFFRAME
280
    2
  9
$DGNFRAME
280
    0
  9
$REALWORLDSCALE
290
    1
  9
$INTERFERECOLOR
 62
    1
  9
$CSHADOW
280
    0
  9
$SHADOWPLANELOCATION
 40
0
  0
ENDSEC
  0
SECTION
  2
CLASSES
  0
ENDSEC
  0
SECTION
  2
TABLES
  0
TABLE
  2
VPORT
  5
8
330
0
100
AcDbSymbolTable
 70
    1
  0
VPORT
  5
31
330
2
100
AcDbSymbolTableRecord
100
AcDbViewportTableRecord
  2
*ACTIVE
 70
    0
 10
0
 20
0
 11
1
 21
1
 12
231.5706766917293
 22
150.7330827067669
 13
0
 23
0
 14
10
 24
10
 15
10
 25
10
 16
0
 26
0
 36
1
 17
0
 27
0
 37
0
 40
305.9323308270676
 41
1.655474452554744
 42
50
 43
0
 44
0
 50
0
 51
0
 71
    0
 72
  100
 73
    1
 74
    3
 75
    0
 76
    1
 77
    0
 78
    0
281
    0
 65
    1
110
0
120
0
130
0
111
1
121
0
131
0
112
0
122
1
132
0
 79
    0
146
0
348
10020
 60
    7
 61
    5
292
1
282
    1
141
0
142
0
 63
  250
421
3358443
  0
ENDTAB
  0
TABLE
  2
LTYPE
  5
5
330
0
100
AcDbSymbolTable
 70
    4
  0
LTYPE
  5
14
330
5
100
AcDbSymbolTableRecord
100
AcDbLinetypeTableRecord
  2
ByBlock
 70
    0
  3

 72
   65
 73
    0
 40
0
  0
LTYPE
  5
15
330
5
100
AcDbSymbolTableRecord
100
AcDbLinetypeTableRecord
  2
ByLayer
 70
    0
  3

 72
   65
 73
    0
 40
0
  0
LTYPE
  5
16
330
5
100
AcDbSymbolTableRecord
100
AcDbLinetypeTableRecord
  2
Continuous
 70
    0
  3
Solid line
 72
   65
 73
    0
 40
0
  0
LTYPE
  5
32
330
5
100
AcDbSymbolTableRecord
100
AcDbLinetypeTableRecord
  2
DOT
 70
    0
  3
Dot . . . . . . . . . . . . . . . . . . . . . .
 72
   65
 73
    2
 40
6.35
 49
0
 74
    0
 49
-6.35
 74
    0
  0
LTYPE
  5
33
330
5
100
AcDbSymbolTableRecord
100
AcDbLinetypeTableRecord
  2
DOTTINY
 70
    0
  3
Dot (.15x) .....................................
 72
   65
 73
    2
 40
0.9525
 49
0
 74
    0
 49
-0.9525
 74
    0
  0
LTYPE
  5
34
330
5
100
AcDbSymbolTableRecord
100
AcDbLinetypeTableRecord
  2
DOT2
 70
    0
  3
Dot (.5x) .....................................
 72
   65
 73
    2
 40
3.175
 49
0
 74
    0
 49
-3.175
 74
    0
  0
LTYPE
  5
35
330
5
100
AcDbSymbolTableRecord
100
AcDbLinetypeTableRecord
  2
DOTX2
 70
    0
  3
Dot (2x) .  .  .  .  .  .  .  .  .  .  .  .  .
 72
   65
 73
    2
 40
12.7
 49
0
 74
    0
 49
-12.7
 74
    0
  0
LTYPE
  5
36
330
5
100
AcDbSymbolTableRecord
100
AcDbLinetypeTableRecord
  2
DASHED
 70
    0
  3
Dashed _ _ _ _ _ _ _ _ _ _ _ _ _ _ _ _ _
 72
   65
 73
    2
 40
19.05
 49
12.7
 74
    0
 49
-6.35
 74
    0
  0
LTYPE
  5
37
330
5
100
AcDbSymbolTableRecord
100
AcDbLinetypeTableRecord
  2
DASHEDTINY
 70
    0
  3
Dashed (.15x) _ _ _ _ _ _ _ _ _ _ _ _ _ _ _ _ _
 72
   65
 73
    2
 40
2.8575
 49
1.905
 74
    0
 49
-0.9525
 74
    0
  0
LTYPE
  5
38
330
5
100
AcDbSymbolTableRecord
100
AcDbLinetypeTableRecord
  2
DASHED2
 70
    0
  3
Dashed (.5x) _ _ _ _ _ _ _ _ _ _ _ _ _ _ _ _ _
 72
   65
 73
    2
 40
9.524999999999999
 49
6.35
 74
    0
 49
-3.175
 74
    0
  0
LTYPE
  5
39
330
5
100
AcDbSymbolTableRecord
100
AcDbLinetypeTableRecord
  2
DASHEDX2
 70
    0
  3
Dashed (2x) ____  ____  ____  ____  ____  ___
 72
   65
 73
    2
 40
38.09999999999999
 49
25.4
 74
    0
 49
-12.7
 74
    0
  0
LTYPE
  5
3A
330
5
100
AcDbSymbolTableRecord
100
AcDbLinetypeTableRecord
  2
DASHDOT
 70
    0
  3
Dash dot __ . __ . __ . __ . __ . __ . __ . __
 72
   65
 73
    4
 40
25.4
 49
12.7
 74
    0
 49
-6.35
 74
    0
 49
0
 74
    0
 49
-6.35
 74
    0
  0
LTYPE
  5
3B
330
5
100
AcDbSymbolTableRecord
100
AcDbLinetypeTableRecord
  2
DASHDOTTINY
 70
    0
  3
Dash dot (.15x) _._._._._._._._._._._._._._._.
 72
   65
 73
    4
 40
3.81
 49
1.905
 74
    0
 49
-0.9525
 74
    0
 49
0
 74
    0
 49
-0.9525
 74
    0
  0
LTYPE
  5
3C
330
5
100
AcDbSymbolTableRecord
100
AcDbLinetypeTableRecord
  2
DASHDOT2
 70
    0
  3
Dash dot (.5x) _._._._._._._._._._._._._._._.
 72
   65
 73
    4
 40
12.7
 49
6.35
 74
    0
 49
-3.175
 74
    0
 49
0
 74
    0
 49
-3.175
 74
    0
  0
LTYPE
  5
3D
330
5
100
AcDbSymbolTableRecord
100
AcDbLinetypeTableRecord
  2
DASHDOTX2
 70
    0
  3
Dash dot (2x) ____  .  ____  .  ____  .  ___
 72
   65
 73
    4
 40
50.8
 49
25.4
 74
    0
 49
-12.7
 74
    0
 49
0
 74
    0
 49
-12.7
 74
    0
  0
LTYPE
  5
3E
330
5
100
AcDbSymbolTableRecord
100
AcDbLinetypeTableRecord
  2
DIVIDE
 70
    0
  3
Divide ____ . . ____ . . ____ . . ____ . . ____
 72
   65
 73
    6
 40
31.75
 49
12.7
 74
    0
 49
-6.35
 74
    0
 49
0
 74
    0
 49
-6.35
 74
    0
 49
0
 74
    0
 49
-6.35
 74
    0
  0
LTYPE
  5
3F
330
5
100
AcDbSymbolTableRecord
100
AcDbLinetypeTableRecord
  2
DIVIDETINY
 70
    0
  3
Divide (.15x) __..__..__..__..__..__..__..__.._
 72
   65
 73
    6
 40
4.7625
 49
1.905
 74
    0
 49
-0.9525
 74
    0
 49
0
 74
    0
 49
-0.9525
 74
    0
 49
0
 74
    0
 49
-0.9525
 74
    0
  0
LTYPE
  5
40
330
5
100
AcDbSymbolTableRecord
100
AcDbLinetypeTableRecord
  2
DIVIDE2
 70
    0
  3
Divide (.5x) __..__..__..__..__..__..__..__.._
 72
   65
 73
    6
 40
15.875
 49
6.35
 74
    0
 49
-3.175
 74
    0
 49
0
 74
    0
 49
-3.175
 74
    0
 49
0
 74
    0
 49
-3.175
 74
    0
  0
LTYPE
  5
41
330
5
100
AcDbSymbolTableRecord
100
AcDbLinetypeTableRecord
  2
DIVIDEX2
 70
    0
  3
Divide (2x) ________  .  .  ________  .  .  _
 72
   65
 73
    6
 40
63.5
 49
25.4
 74
    0
 49
-12.7
 74
    0
 49
0
 74
    0
 49
-12.7
 74
    0
 49
0
 74
    0
 49
-12.7
 74
    0
  0
LTYPE
  5
42
330
5
100
AcDbSymbolTableRecord
100
AcDbLinetypeTableRecord
  2
BORDER
 70
    0
  3
Border __ __ . __ __ . __ __ . __ __ . __ __ .
 72
   65
 73
    6
 40
44.45
 49
12.7
 74
    0
 49
-6.35
 74
    0
 49
12.7
 74
    0
 49
-6.35
 74
    0
 49
0
 74
    0
 49
-6.35
 74
    0
  0
LTYPE
  5
43
330
5
100
AcDbSymbolTableRecord
100
AcDbLinetypeTableRecord
  2
BORDERTINY
 70
    0
  3
Border (.15x) __.__.__.__.__.__.__.__.__.__.__.
 72
   65
 73
    6
 40
6.6675
 49
1.905
 74
    0
 49
-0.9525
 74
    0
 49
1.905
 74
    0
 49
-0.9525
 74
    0
 49
0
 74
    0
 49
-0.9525
 74
    0
  0
LTYPE
  5
44
330
5
100
AcDbSymbolTableRecord
100
AcDbLinetypeTableRecord
  2
BORDER2
 70
    0
  3
Border (.5x) __.__.__.__.__.__.__.__.__.__.__.
 72
   65
 73
    6
 40
22.225
 49
6.35
 74
    0
 49
-3.175
 74
    0
 49
6.35
 74
    0
 49
-3.175
 74
    0
 49
0
 74
    0
 49
-3.175
 74
    0
  0
LTYPE
  5
45
330
5
100
AcDbSymbolTableRecord
100
AcDbLinetypeTableRecord
  2
BORDERX2
 70
    0
  3
Border (2x) ____  ____  .  ____  ____  .  ___
 72
   65
 73
    6
 40
88.89999999999999
 49
25.4
 74
    0
 49
-12.7
 74
    0
 49
25.4
 74
    0
 49
-12.7
 74
    0
 49
0
 74
    0
 49
-12.7
 74
    0
  0
LTYPE
  5
46
330
5
100
AcDbSymbolTableRecord
100
AcDbLinetypeTableRecord
  2
CENTER
 70
    0
  3
Center ____ _ ____ _ ____ _ ____ _ ____ _ ____
 72
   65
 73
    4
 40
50.8
 49
31.75
 74
    0
 49
-6.35
 74
    0
 49
6.35
 74
    0
 49
-6.35
 74
    0
  0
LTYPE
  5
47
330
5
100
AcDbSymbolTableRecord
100
AcDbLinetypeTableRecord
  2
CENTERTINY
 70
    0
  3
Center (.15x) ___ _ ___ _ ___ _ ___ _ ___ _ ___
 72
   65
 73
    4
 40
7.619999999999999
 49
4.7625
 74
    0
 49
-0.9525
 74
    0
 49
0.9525
 74
    0
 49
-0.9525
 74
    0
  0
LTYPE
  5
48
330
5
100
AcDbSymbolTableRecord
100
AcDbLinetypeTableRecord
  2
CENTER2
 70
    0
  3
Center (.5x) ___ _ ___ _ ___ _ ___ _ ___ _ ___
 72
   65
 73
    4
 40
28.575
 49
19.05
 74
    0
 49
-3.175
 74
    0
 49
3.175
 74
    0
 49
-3.175
 74
    0
  0
LTYPE
  5
49
330
5
100
AcDbSymbolTableRecord
100
AcDbLinetypeTableRecord
  2
CENTERX2
 70
    0
  3
Center (2x) ________  __  ________  __  _____
 72
   65
 73
    4
 40
101.6
 49
63.5
 74
    0
 49
-12.7
 74
    0
 49
12.7
 74
    0
 49
-12.7
 74
    0
  0
ENDTAB
  0
TABLE
  2
LAYER
  5
2
330
0
100
AcDbSymbolTable
 70
    1
  0
LAYER
  5
10
330
2
100
AcDbSymbolTableRecord
100
AcDbLayerTableRecord
  2
0
 70
    0
 62
    7
  6
CONTINUOUS
370
   35
390
F
  0
LAYER
  5
4A
330
2
100
AcDbSymbolTableRecord
100
AcDbLayerTableRecord
  2
Contour
 70
    0
 62
    7
  6
CONTINUOUS
370
   -3
390
F
  0
LAYER
  5
4B
330
2
100
AcDbSymbolTableRecord
100
AcDbLayerTableRecord
  2
frame-title
 70
    0
 62
    7
  6
CONTINUOUS
370
   35
390
F
  0
LAYER
  5
4C
330
2
100
AcDbSymbolTableRecord
100
AcDbLayerTableRecord
  2
hatch
 70
    0
 62
  113
  6
CONTINUOUS
370
   25
390
F
  0
LAYER
  5
4D
330
2
100
AcDbSymbolTableRecord
100
AcDbLayerTableRecord
  2
help-lines
 70
    0
 62
    5
  6
CONTINUOUS
370
   25
390
F
  0
LAYER
  5
4E
330
2
100
AcDbSymbolTableRecord
100
AcDbLayerTableRecord
  2
labels
 70
    0
 62
    7
  6
CONTINUOUS
370
   35
390
F
  0
LAYER
  5
4F
330
2
100
AcDbSymbolTableRecord
100
AcDbLayerTableRecord
  2
schematic
 70
    0
 62
    7
  6
CONTINUOUS
370
   25
390
F
  0
ENDTAB
  0
TABLE
  2
STYLE
  5
3
330
0
100
AcDbSymbolTable
 70
    3
  0
STYLE
  5
50
330
2
100
AcDbSymbolTableRecord
100
AcDbTextStyleTableRecord
  2
standard
 70
    0
 40
0
 41
1
 50
0
 71
    0
 42
1
  3
standard
  4

  0
STYLE
  5
51
330
2
100
AcDbSymbolTableRecord
100
AcDbTextStyleTableRecord
  2
iso
 70
    0
 40
0
 41
1
 50
0
 71
    0
 42
1
  3
iso
  4

  0
ENDTAB
  0
TABLE
  2
VIEW
  5
6
330
0
100
AcDbSymbolTable
 70
    0
  0
ENDTAB
  0
TABLE
  2
UCS
  5
7
330
0
100
AcDbSymbolTable
 70
    0
  0
ENDTAB
  0
TABLE
  2
APPID
  5
9
330
0
100
AcDbSymbolTable
 70
    1
  0
APPID
  5
12
330
9
100
AcDbSymbolTableRecord
100
AcDbRegAppTableRecord
  2
ACAD
 70
    0
  0
APPID
  5
52
330
9
100
AcDbSymbolTableRecord
100
AcDbRegAppTableRecord
  2
LibreCad
 70
    0
  0
ENDTAB
  0
TABLE
  2
DIMSTYLE
  5
A
330
0
100
AcDbSymbolTable
 70
    1
100
AcDbDimStyleTable
 71
    1
  0
DIMSTYLE
105
53
330
A
100
AcDbSymbolTableRecord
100
AcDbDimStyleTableRecord
  2
Standard
 70
    0
 40
1
 41
2.5
 42
0.625
 43
0.38
 44
1.25
 45
0
 46
0
 47
0
 48
0
 49
1
140
2.5
141
0.09
142
0
143
25.4
144
1
145
0
146
1
147
0.625
148
0
 71
    0
 72
    0
 73
    0
 74
    1
 75
    0
 76
    0
 77
    0
 78
    8
 79
    0
170
    0
171
    2
172
    0
173
    0
174
    0
175
    0
176
    0
177
    0
178
    0
179
    0
271
    2
272
    4
273
    2
274
    2
275
    0
276
    0
277
    2
278
   44
279
    0
280
    0
281
    0
282
    0
283
    1
284
    0
285
    0
286
    0
288
    0
289
    3
340
STANDARD
341

371
   -2
372
   -2
  0
ENDTAB
  0
TABLE
  2
BLOCK_RECORD
  5
1
330
0
100
AcDbSymbolTable
 70
    2
  0
BLOCK_RECORD
  5
1F
330
1
100
AcDbSymbolTableRecord
100
AcDbBlockTableRecord
  2
*Model_Space
 70
    0
280
    1
281
    0
  0
BLOCK_RECORD
  5
1E
330
1
100
AcDbSymbolTableRecord
100
AcDbBlockTableRecord
  2
*Paper_Space
 70
    0
280
    1
281
    0
  0
BLOCK_RECORD
  5
54
330
1
100
AcDbSymbolTableRecord
100
AcDbBlockTableRecord
  2
*D1
 70
    0
280
    1
281
    0
  0
BLOCK_RECORD
  5
57
330
1
100
AcDbSymbolTableRecord
100
AcDbBlockTableRecord
  2
*D2
 70
    0
280
    1
281
    0
  0
BLOCK_RECORD
  5
5A
330
1
100
AcDbSymbolTableRecord
100
AcDbBlockTableRecord
  2
*D3
 70
    0
280
    1
281
    0
  0
BLOCK_RECORD
  5
5D
330
1
100
AcDbSymbolTableRecord
100
AcDbBlockTableRecord
  2
*D4
 70
    0
280
    1
281
    0
  0
BLOCK_RECORD
  5
60
330
1
100
AcDbSymbolTableRecord
100
AcDbBlockTableRecord
  2
a3
 70
    0
280
    1
281
    0
  0
BLOCK_RECORD
  5
63
330
1
100
AcDbSymbolTableRecord
100
AcDbBlockTableRecord
  2
a3-0
 70
    0
280
    1
281
    0
  0
BLOCK_RECORD
  5
66
330
1
100
AcDbSymbolTableRecord
100
AcDbBlockTableRecord
  2
eca-logo-0
 70
    0
280
    1
281
    0
  0
BLOCK_RECORD
  5
69
330
1
100
AcDbSymbolTableRecord
100
AcDbBlockTableRecord
  2
eca-logo-1
 70
    0
280
    1
281
    0
  0
BLOCK_RECORD
  5
6C
330
1
100
AcDbSymbolTableRecord
100
AcDbBlockTableRecord
  2
Terminal-in
 70
    0
280
    1
281
    0
  0
BLOCK_RECORD
  5
6F
330
1
100
AcDbSymbolTableRecord
100
AcDbBlockTableRecord
  2
Switch
 70
    0
280
    1
281
    0
  0
BLOCK_RECORD
  5
72
330
1
100
AcDbSymbolTableRecord
100
AcDbBlockTableRecord
  2
junction
 70
    0
280
    1
281
    0
  0
BLOCK_RECORD
  5
75
330
1
100
AcDbSymbolTableRecord
100
AcDbBlockTableRecord
  2
junction-0
 70
    0
280
    1
281
    0
  0
BLOCK_RECORD
  5
78
330
1
100
AcDbSymbolTableRecord
100
AcDbBlockTableRecord
  2
junction-1
 70
    0
280
    1
281
    0
  0
BLOCK_RECORD
  5
7B
330
1
100
AcDbSymbolTableRecord
100
AcDbBlockTableRecord
  2
junction-2
 70
    0
280
    1
281
    0
  0
BLOCK_RECORD
  5
7E
330
1
100
AcDbSymbolTableRecord
100
AcDbBlockTableRecord
  2
Switch-0
 70
    0
280
    1
281
    0
  0
BLOCK_RECORD
  5
81
330
1
100
AcDbSymbolTableRecord
100
AcDbBlockTableRecord
  2
Switch-1
 70
    0
280
    1
281
    0
  0
BLOCK_RECORD
  5
84
330
1
100
AcDbSymbolTableRecord
100
AcDbBlockTableRecord
  2
Switch-2
 70
    0
280
    1
281
    0
  0
BLOCK_RECORD
  5
87
330
1
100
AcDbSymbolTableRecord
100
AcDbBlockTableRecord
  2
junction-3
 70
    0
280
    1
281
    0
  0
BLOCK_RECORD
  5
8A
330
1
100
AcDbSymbolTableRecord
100
AcDbBlockTableRecord
  2
junction-4
 70
    0
280
    1
281
    0
  0
BLOCK_RECORD
  5
8D
330
1
100
AcDbSymbolTableRecord
100
AcDbBlockTableRecord
  2
Switch-4
 70
    0
280
    1
281
    0
  0
BLOCK_RECORD
  5
90
330
1
100
AcDbSymbolTableRecord
100
AcDbBlockTableRecord
  2
Switch-5
 70
    0
280
    1
281
    0
  0
BLOCK_RECORD
  5
93
330
1
100
AcDbSymbolTableRecord
100
AcDbBlockTableRecord
  2
Switch-6
 70
    0
280
    1
281
    0
  0
BLOCK_RECORD
  5
96
330
1
100
AcDbSymbolTableRecord
100
AcDbBlockTableRecord
  2
junction-5
 70
    0
280
    1
281
    0
  0
BLOCK_RECORD
  5
99
330
1
100
AcDbSymbolTableRecord
100
AcDbBlockTableRecord
  2
junction-6
 70
    0
280
    1
281
    0
  0
BLOCK_RECORD
  5
9C
330
1
100
AcDbSymbolTableRecord
100
AcDbBlockTableRecord
  2
s3
 70
    0
280
    1
281
    0
  0
BLOCK_RECORD
  5
9F
330
1
100
AcDbSymbolTableRecord
100
AcDbBlockTableRecord
  2
junction-7
 70
    0
280
    1
281
    0
  0
BLOCK_RECORD
  5
A2
330
1
100
AcDbSymbolTableRecord
100
AcDbBlockTableRecord
  2
junction-8
 70
    0
280
    1
281
    0
  0
BLOCK_RECORD
  5
A5
330
1
100
AcDbSymbolTableRecord
100
AcDbBlockTableRecord
  2
junction-9
 70
    0
280
    1
281
    0
  0
BLOCK_RECORD
  5
A8
330
1
100
AcDbSymbolTableRecord
100
AcDbBlockTableRecord
  2
junction-10
 70
    0
280
    1
281
    0
  0
BLOCK_RECORD
  5
AB
330
1
100
AcDbSymbolTableRecord
100
AcDbBlockTableRecord
  2
junction-11
 70
    0
280
    1
281
    0
  0
BLOCK_RECORD
  5
AE
330
1
100
AcDbSymbolTableRecord
100
AcDbBlockTableRecord
  2
junction-12
 70
    0
280
    1
281
    0
  0
BLOCK_RECORD
  5
B1
330
1
100
AcDbSymbolTableRecord
100
AcDbBlockTableRecord
  2
junction-13
 70
    0
280
    1
281
    0
  0
BLOCK_RECORD
  5
B4
330
1
100
AcDbSymbolTableRecord
100
AcDbBlockTableRecord
  2
junction-14
 70
    0
280
    1
281
    0
  0
BLOCK_RECORD
  5
B7
330
1
100
AcDbSymbolTableRecord
100
AcDbBlockTableRecord
  2
junction-15
 70
    0
280
    1
281
    0
  0
BLOCK_RECORD
  5
BA
330
1
100
AcDbSymbolTableRecord
100
AcDbBlockTableRecord
  2
junction-16
 70
    0
280
    1
281
    0
  0
BLOCK_RECORD
  5
BD
330
1
100
AcDbSymbolTableRecord
100
AcDbBlockTableRecord
  2
junction-17
 70
    0
280
    1
281
    0
  0
BLOCK_RECORD
  5
C0
330
1
100
AcDbSymbolTableRecord
100
AcDbBlockTableRecord
  2
s1-0
 70
    0
280
    1
281
    0
  0
BLOCK_RECORD
  5
C3
330
1
100
AcDbSymbolTableRecord
100
AcDbBlockTableRecord
  2
s1-1
 70
    0
280
    1
281
    0
  0
BLOCK_RECORD
  5
C6
330
1
100
AcDbSymbolTableRecord
100
AcDbBlockTableRecord
  2
RRS
 70
    0
280
    1
281
    0
  0
BLOCK_RECORD
  5
C9
330
1
100
AcDbSymbolTableRecord
100
AcDbBlockTableRecord
  2
junction-18
 70
    0
280
    1
281
    0
  0
BLOCK_RECORD
  5
CC
330
1
100
AcDbSymbolTableRecord
100
AcDbBlockTableRecord
  2
Resistor-vert
 70
    0
280
    1
281
    0
  0
BLOCK_RECORD
  5
CF
330
1
100
AcDbSymbolTableRecord
100
AcDbBlockTableRecord
  2
Terminal-Earth
 70
    0
280
    1
281
    0
  0
BLOCK_RECORD
  5
D2
330
1
100
AcDbSymbolTableRecord
100
AcDbBlockTableRecord
  2
junction-19
 70
    0
280
    1
281
    0
  0
BLOCK_RECORD
  5
D5
330
1
100
AcDbSymbolTableRecord
100
AcDbBlockTableRecord
  2
r1
 70
    0
280
    1
281
    0
  0
BLOCK_RECORD
  5
D8
330
1
100
AcDbSymbolTableRecord
100
AcDbBlockTableRecord
  2
diodo_bobina
 70
    0
280
    1
281
    0
  0
BLOCK_RECORD
  5
DB
330
1
100
AcDbSymbolTableRecord
100
AcDbBlockTableRecord
  2
junction-20
 70
    0
280
    1
281
    0
  0
BLOCK_RECORD
  5
DE
330
1
100
AcDbSymbolTableRecord
100
AcDbBlockTableRecord
  2
mcp2014x-connector
 70
    0
280
    1
281
    0
  0
BLOCK_RECORD
  5
E1
330
1
100
AcDbSymbolTableRecord
100
AcDbBlockTableRecord
  2
mcp2014x-connector-0
 70
    0
280
    1
281
    0
  0
BLOCK_RECORD
  5
E4
330
1
100
AcDbSymbolTableRecord
100
AcDbBlockTableRecord
  2
mcp2014x-connector-1
 70
    0
280
    1
281
    0
  0
BLOCK_RECORD
  5
E7
330
1
100
AcDbSymbolTableRecord
100
AcDbBlockTableRecord
  2
mcp2014x-connector-2
 70
    0
280
    1
281
    0
  0
BLOCK_RECORD
  5
EA
330
1
100
AcDbSymbolTableRecord
100
AcDbBlockTableRecord
  2
mcp2014x-connector-3
 70
    0
280
    1
281
    0
  0
BLOCK_RECORD
  5
ED
330
1
100
AcDbSymbolTableRecord
100
AcDbBlockTableRecord
  2
mcp2014x-connector-4
 70
    0
280
    1
281
    0
  0
BLOCK_RECORD
  5
F0
330
1
100
AcDbSymbolTableRecord
100
AcDbBlockTableRecord
  2
mcp2014x-connector-5
 70
    0
280
    1
281
    0
  0
BLOCK_RECORD
  5
F3
330
1
100
AcDbSymbolTableRecord
100
AcDbBlockTableRecord
  2
mcp2014x-connector-6
 70
    0
280
    1
281
    0
  0
BLOCK_RECORD
  5
F6
330
1
100
AcDbSymbolTableRecord
100
AcDbBlockTableRecord
  2
mcp2014x-connector-7
 70
    0
280
    1
281
    0
  0
BLOCK_RECORD
  5
F9
330
1
100
AcDbSymbolTableRecord
100
AcDbBlockTableRecord
  2
mcp2014x-connector-8
 70
    0
280
    1
281
    0
  0
BLOCK_RECORD
  5
FC
330
1
100
AcDbSymbolTableRecord
100
AcDbBlockTableRecord
  2
mcp2014x-connector-9
 70
    0
280
    1
281
    0
  0
BLOCK_RECORD
  5
FF
330
1
100
AcDbSymbolTableRecord
100
AcDbBlockTableRecord
  2
mcp2014x-connector-10
 70
    0
280
    1
281
    0
  0
BLOCK_RECORD
  5
102
330
1
100
AcDbSymbolTableRecord
100
AcDbBlockTableRecord
  2
RRS-0
 70
    0
280
    1
281
    0
  0
BLOCK_RECORD
  5
105
330
1
100
AcDbSymbolTableRecord
100
AcDbBlockTableRecord
  2
Resistor-Therm
 70
    0
280
    1
281
    0
  0
BLOCK_RECORD
  5
108
330
1
100
AcDbSymbolTableRecord
100
AcDbBlockTableRecord
  2
2vd1
 70
    0
280
    1
281
    0
  0
ENDTAB
  0
ENDSEC
  0
SECTION
  2
BLOCKS
  0
BLOCK
  5
20
330
1F
100
AcDbEntity
  8
0
100
AcDbBlockBegin
  2
*Model_Space
 70
    0
 10
0
 20
0
 30
0
  3
*Model_Space
  1

  0
ENDBLK
  5
21
330
1F
100
AcDbEntity
  8
0
100
AcDbBlockEnd
  0
BLOCK
  5
1C
330
1B
100
AcDbEntity
  8
0
100
AcDbBlockBegin
  2
*Paper_Space
 70
    0
 10
0
 20
0
 30
0
  3
*Paper_Space
  1

  0
ENDBLK
  5
1D
330
1F
100
AcDbEntity
  8
0
100
AcDbBlockEnd
  0
BLOCK
  5
55
330
54
100
AcDbEntity
  8
0
100
AcDbBlockBegin
  2
*D1
 70
    1
 10
0
 20
0
  3
*D1
  1

  0
LINE
  5
10B
100
AcDbEntity
  8
labels
  6
CONTINUOUS
 62
    7
370
    0
100
AcDbLine
 10
304.2095798063925
 20
232.2868554936714
 11
316.4089135038901
 21
250.2648209426151
  0
LINE
  5
10C
100
AcDbEntity
  8
labels
  6
CONTINUOUS
 62
    7
370
    0
100
AcDbLine
 10
316.4089135038901
 20
250.2648209426151
 11
360.3907218343416
 21
250.2648209426151
  0
SOLID
  5
10D
100
AcDbEntity
  8
labels
  6
CONTINUOUS
 62
    7
370
    0
100
AcDbTrace
 10
304.2095798063925
 20
232.2868554936714
 30
0
 11
305.2688678826777
 21
234.5892893554223
 31
0
 12
305.9577988217937
 22
234.1218005038793
 32
0
 13
305.9577988217937
 23
234.1218005038793
 33
0
  0
ENDBLK
  5
56
330
54
100
AcDbEntity
  8
0
100
AcDbBlockEnd
  0
BLOCK
  5
58
330
57
100
AcDbEntity
  8
0
100
AcDbBlockBegin
  2
*D2
 70
    1
 10
0
 20
0
  3
*D2
  1

  0
LINE
  5
10E
100
AcDbEntity
  8
labels
  6
CONTINUOUS
 62
    7
370
    0
100
AcDbLine
 10
329.3145960365854
 20
167.8736661585366
 11
329.3145960365854
 21
187.5868902439024
  0
LINE
  5
10F
100
AcDbEntity
  8
labels
  6
CONTINUOUS
 62
    7
370
    0
100
AcDbLine
 10
329.3145960365854
 20
187.5868902439024
 11
318.7317073170732
 21
187.5868902439024
  0
SOLID
  5
110
100
AcDbEntity
  8
labels
  6
CONTINUOUS
 62
    7
370
    0
100
AcDbTrace
 10
329.3145960365854
 20
167.8736661585366
 30
0
 11
328.8983113788125
 21
170.3736661585366
 31
0
 12
329.7308806943582
 22
170.3736661585366
 32
0
 13
329.7308806943582
 23
170.3736661585366
 33
0
  0
ENDBLK
  5
59
330
57
100
AcDbEntity
  8
0
100
AcDbBlockEnd
  0
BLOCK
  5
5B
330
5A
100
AcDbEntity
  8
0
100
AcDbBlockBegin
  2
*D3
 70
    1
 10
0
 20
0
  3
*D3
  1

  0
LINE
  5
111
100
AcDbEntity
  8
labels
  6
CONTINUOUS
 62
    7
370
    0
100
AcDbLine
 10
379.946455792683
 20
167.8736661585366
 11
379.946455792683
 21
187.5868902439024
  0
LINE
  5
112
100
AcDbEntity
  8
labels
  6
CONTINUOUS
 62
    7
370
    0
100
AcDbLine
 10
379.946455792683
 20
187.5868902439024
 11
369.3635670731708
 21
187.5868902439024
  0
SOLID
  5
113
100
AcDbEntity
  8
labels
  6
CONTINUOUS
 62
    7
370
    0
100
AcDbTrace
 10
379.946455792683
 20
167.8736661585366
 30
0
 11
379.5301711349102
 21
170.3736661585366
 31
0
 12
380.3627404504559
 22
170.3736661585366
 32
0
 13
380.3627404504559
 23
170.3736661585366
 33
0
  0
ENDBLK
  5
5C
330
5A
100
AcDbEntity
  8
0
100
AcDbBlockEnd
  0
BLOCK
  5
5E
330
5D
100
AcDbEntity
  8
0
100
AcDbBlockBegin
  2
*D4
 70
    1
 10
0
 20
0
  3
*D4
  1

  0
LINE
  5
114
100
AcDbEntity
  8
labels
  6
CONTINUOUS
 62
    7
370
    0
100
AcDbLine
 10
401.5272484756098
 20
167.8736661585366
 11
401.5272484756098
 21
187.5868902439024
  0
LINE
  5
115
100
AcDbEntity
  8
labels
  6
CONTINUOUS
 62
    7
370
    0
100
AcDbLine
 10
401.5272484756098
 20
187.5868902439024
 11
390.9443597560976
 21
187.5868902439024
  0
SOLID
  5
116
100
AcDbEntity
  8
labels
  6
CONTINUOUS
 62
    7
370
    0
100
AcDbTrace
 10
401.5272484756098
 20
167.8736661585366
 30
0
 11
401.1109638178369
 21
170.3736661585366
 31
0
 12
401.9435331333826
 22
170.3736661585366
 32
0
 13
401.9435331333826
 23
170.3736661585366
 33
0
  0
ENDBLK
  5
5F
330
5D
100
AcDbEntity
  8
0
100
AcDbBlockEnd
  0
BLOCK
  5
61
330
60
100
AcDbEntity
  8
0
100
AcDbBlockBegin
  2
a3
 70
    0
 10
0
 20
0
  3
a3
  1

  0
HATCH
  5
117
100
AcDbEntity
  8
hatch
  6
ByLayer
 62
  256
370
   -1
100
AcDbHatch
 10
0
 20
0
 30
0
210
0
220
0
230
1
  2
ansi31
 70
    0
 71
    0
 91
    1
 92
    0
 93
    3
 72
    1
 10
124.999976
 20
287.000024
 11
122.499976
 21
291.330151019
 72
    1
 10
122.499976
 20
291.330151019
 11
127.499976
 21
291.330151019
 72
    1
 10
127.499976
 20
291.330151019
 11
124.999976
 21
287.000024
 97
    0
 75
    0
 76
    1
 52
4.71238898038
 41
0.5
 77
    0
 78
    0
 98
    0
  0
HATCH
  5
118
100
AcDbEntity
  8
hatch
  6
ByLayer
 62
  256
370
   -1
100
AcDbHatch
 10
0
 20
0
 30
0
210
0
220
0
230
1
  2
ansi31
 70
    0
 71
    0
 91
    1
 92
    0
 93
    3
 72
    1
 10
229.999976
 20
287.000024
 11
227.499976
 21
291.330151019
 72
    1
 10
227.499976
 20
291.330151019
 11
232.499976
 21
291.330151019
 72
    1
 10
232.499976
 20
291.330151019
 11
229.999976
 21
287.000024
 97
    0
 75
    0
 76
    1
 52
4.71238898038
 41
0.5
 77
    0
 78
    0
 98
    0
  0
HATCH
  5
119
100
AcDbEntity
  8
hatch
  6
ByLayer
 62
  256
370
   -1
100
AcDbHatch
 10
0
 20
0
 30
0
210
0
220
0
230
1
  2
ansi31
 70
    0
 71
    0
 91
    1
 92
    0
 93
    3
 72
    1
 10
315
 20
287.000024
 11
312.5
 21
291.330151019
 72
    1
 10
312.5
 20
291.330151019
 11
317.5
 21
291.330151019
 72
    1
 10
317.5
 20
291.330151019
 11
315
 21
287.000024
 97
    0
 75
    0
 76
    1
 52
4.71238898038
 41
0.5
 77
    0
 78
    0
 98
    0
  0
HATCH
  5
11A
100
AcDbEntity
  8
hatch
  6
ByLayer
 62
  256
370
   -1
100
AcDbHatch
 10
0
 20
0
 30
0
210
0
220
0
230
1
  2
ansi31
 70
    0
 71
    0
 91
    1
 92
    0
 93
    3
 72
    1
 10
315
 20
9.999976
 11
312.5
 21
5.66984898108
 72
    1
 10
312.5
 20
5.66984898108
 11
317.5
 21
5.66984898108
 72
    1
 10
317.5
 20
5.66984898108
 11
315
 21
9.999976
 97
    0
 75
    0
 76
    1
 52
4.71238898038
 41
0.5
 77
    0
 78
    0
 98
    0
  0
HATCH
  5
11B
100
AcDbEntity
  8
hatch
  6
ByLayer
 62
  256
370
   -1
100
AcDbHatch
 10
0
 20
0
 30
0
210
0
220
0
230
1
  2
ansi31
 70
    0
 71
    0
 91
    1
 92
    0
 93
    3
 72
    1
 10
229.999976
 20
9.999976
 11
227.499976
 21
5.66984898108
 72
    1
 10
227.499976
 20
5.66984898108
 11
232.499976
 21
5.66984898108
 72
    1
 10
232.499976
 20
5.66984898108
 11
229.999976
 21
9.999976
 97
    0
 75
    0
 76
    1
 52
4.71238898038
 41
0.5
 77
    0
 78
    0
 98
    0
  0
HATCH
  5
11C
100
AcDbEntity
  8
hatch
  6
ByLayer
 62
  256
370
   -1
100
AcDbHatch
 10
0
 20
0
 30
0
210
0
220
0
230
1
  2
ansi31
 70
    0
 71
    0
 91
    1
 92
    0
 93
    3
 72
    1
 10
124.999976
 20
9.999976
 11
122.499976
 21
5.66984898108
 72
    1
 10
122.499976
 20
5.66984898108
 11
127.499976
 21
5.66984898108
 72
    1
 10
127.499976
 20
5.66984898108
 11
124.999976
 21
9.999976
 97
    0
 75
    0
 76
    1
 52
4.71238898038
 41
0.5
 77
    0
 78
    0
 98
    0
  0
HATCH
  5
11D
100
AcDbEntity
  8
hatch
  6
ByLayer
 62
  256
370
   -1
100
AcDbHatch
 10
0
 20
0
 30
0
210
0
220
0
230
1
  2
ansi31
 70
    0
 71
    0
 91
    1
 92
    0
 93
    3
 72
    1
 10
410
 20
148.5
 11
414.330127019
 21
146
 72
    1
 10
414.330127019
 20
146
 11
414.330127019
 21
151
 72
    1
 10
414.330127019
 20
151
 11
410
 21
148.5
 97
    0
 75
    0
 76
    1
 52
3.14159265359
 41
0.5
 77
    0
 78
    0
 98
    0
  0
HATCH
  5
11E
100
AcDbEntity
  8
hatch
  6
ByLayer
 62
  256
370
   -1
100
AcDbHatch
 10
0
 20
0
 30
0
210
0
220
0
230
1
  2
ansi31
 70
    0
 71
    0
 91
    1
 92
    0
 93
    3
 72
    1
 10
20
 20
148.5
 11
15.6698729811
 21
146
 72
    1
 10
15.6698729811
 20
146
 11
15.6698729811
 21
151
 72
    1
 10
15.6698729811
 20
151
 11
20
 21
148.5
 97
    0
 75
    0
 76
    1
 52
0
 41
0.5
 77
    0
 78
    0
 98
    0
  0
CIRCLE
  5
11F
100
AcDbEntity
  8
help-lines
  6
ByLayer
 62
  256
370
   -1
100
AcDbCircle
 10
15
 20
222.75
 40
3
  0
LINE
  5
120
100
AcDbEntity
  8
help-lines
  6
ByLayer
 62
  256
370
   -1
100
AcDbLine
 10
20
 20
148.5
 11
15.6698729811
 21
146
  0
LINE
  5
121
100
AcDbEntity
  8
help-lines
  6
ByLayer
 62
  256
370
   -1
100
AcDbLine
 10
20
 20
148.5
 11
15.6698729811
 21
151
  0
LINE
  5
122
100
AcDbEntity
  8
help-lines
  6
ByLayer
 62
  256
370
   -1
100
AcDbLine
 10
15.6698729811
 20
146
 11
15.6698729811
 21
151
  0
CIRCLE
  5
123
100
AcDbEntity
  8
help-lines
  6
ByLayer
 62
  256
370
   -1
100
AcDbCircle
 10
15
 20
74.25
 40
3
  0
MTEXT
  5
124
100
AcDbEntity
  8
help-lines
  6
ByLayer
 62
  256
370
   -1
100
AcDbMText
 10
15
 20
74.25
 30
0
 40
4
 41
2.666666666666667
 71
    5
 72
    5
  1
A
  7
iso
210
0
220
0
230
1
 50
6.28318530718
 73
    2
 44
0.96
  0
MTEXT
  5
125
100
AcDbEntity
  8
help-lines
  6
ByLayer
 62
  256
370
   -1
100
AcDbMText
 10
15
 20
222.75
 30
0
 40
4
 41
2.222222222222222
 71
    5
 72
    5
  1
B
  7
iso
210
0
220
0
230
1
 50
6.28318530718
 73
    2
 44
0.96
  0
LINE
  5
126
100
AcDbEntity
  8
help-lines
  6
ByLayer
 62
  256
370
   -1
100
AcDbLine
 10
2.57e-14
 20
297
 11
0
 21
0
  0
CIRCLE
  5
127
100
AcDbEntity
  8
help-lines
  6
ByLayer
 62
  256
370
   -1
100
AcDbCircle
 10
415
 20
222.75
 40
3
  0
LINE
  5
128
100
AcDbEntity
  8
help-lines
  6
ByLayer
 62
  256
370
   -1
100
AcDbLine
 10
410
 20
148.5
 11
414.330127019
 21
146
  0
LINE
  5
129
100
AcDbEntity
  8
help-lines
  6
ByLayer
 62
  256
370
   -1
100
AcDbLine
 10
410
 20
148.5
 11
414.330127019
 21
151
  0
LINE
  5
12A
100
AcDbEntity
  8
help-lines
  6
ByLayer
 62
  256
370
   -1
100
AcDbLine
 10
414.330127019
 20
146
 11
414.330127019
 21
151
  0
CIRCLE
  5
12B
100
AcDbEntity
  8
help-lines
  6
ByLayer
 62
  256
370
   -1
100
AcDbCircle
 10
415
 20
74.25
 40
3
  0
MTEXT
  5
12C
100
AcDbEntity
  8
help-lines
  6
ByLayer
 62
  256
370
   -1
100
AcDbMText
 10
415
 20
74.25
 30
0
 40
4
 41
2.666666666666667
 71
    5
 72
    5
  1
A
  7
iso
210
0
220
0
230
1
 50
6.28318530718
 73
    2
 44
0.96
  0
MTEXT
  5
12D
100
AcDbEntity
  8
help-lines
  6
ByLayer
 62
  256
370
   -1
100
AcDbMText
 10
415
 20
222.75
 30
0
 40
4
 41
2.222222222222222
 71
    5
 72
    5
  1
B
  7
iso
210
0
220
0
230
1
 50
6.28318530718
 73
    2
 44
0.96
  0
LINE
  5
12E
100
AcDbEntity
  8
help-lines
  6
ByLayer
 62
  256
370
   -1
100
AcDbLine
 10
420
 20
297
 11
2.57e-14
 21
297
  0
LINE
  5
12F
100
AcDbEntity
  8
help-lines
  6
ByLayer
 62
  256
370
   -1
100
AcDbLine
 10
125
 20
0
 11
125
 21
10
  0
LINE
  5
130
100
AcDbEntity
  8
help-lines
  6
ByLayer
 62
  256
370
   -1
100
AcDbLine
 10
230
 20
2.84e-14
 11
230
 21
10
  0
LINE
  5
131
100
AcDbEntity
  8
help-lines
  6
ByLayer
 62
  256
370
   -1
100
AcDbLine
 10
124.999976
 20
9.999976
 11
122.499976
 21
5.66984898108
  0
LINE
  5
132
100
AcDbEntity
  8
help-lines
  6
ByLayer
 62
  256
370
   -1
100
AcDbLine
 10
124.999976
 20
9.999976
 11
127.499976
 21
5.66984898108
  0
LINE
  5
133
100
AcDbEntity
  8
help-lines
  6
ByLayer
 62
  256
370
   -1
100
AcDbLine
 10
122.499976
 20
5.66984898108
 11
127.499976
 21
5.66984898108
  0
CIRCLE
  5
134
100
AcDbEntity
  8
help-lines
  6
ByLayer
 62
  256
370
   -1
100
AcDbCircle
 10
177.5
 20
5
 40
3
  0
LINE
  5
135
100
AcDbEntity
  8
help-lines
  6
ByLayer
 62
  256
370
   -1
100
AcDbLine
 10
229.999976
 20
9.999976
 11
227.499976
 21
5.66984898108
  0
LINE
  5
136
100
AcDbEntity
  8
help-lines
  6
ByLayer
 62
  256
370
   -1
100
AcDbLine
 10
229.999976
 20
9.999976
 11
232.499976
 21
5.66984898108
  0
LINE
  5
137
100
AcDbEntity
  8
help-lines
  6
ByLayer
 62
  256
370
   -1
100
AcDbLine
 10
227.499976
 20
5.66984898108
 11
232.499976
 21
5.66984898108
  0
CIRCLE
  5
138
100
AcDbEntity
  8
help-lines
  6
ByLayer
 62
  256
370
   -1
100
AcDbCircle
 10
72.5
 20
5
 40
3
  0
MTEXT
  5
139
100
AcDbEntity
  8
help-lines
  6
ByLayer
 62
  256
370
   -1
100
AcDbMText
 10
72.5
 20
5
 30
0
 40
4
 41
0.8888888888888888
 71
    5
 72
    5
  1
1
  7
iso
210
0
220
0
230
1
 50
0
 73
    2
 44
0.96
  0
MTEXT
  5
13A
100
AcDbEntity
  8
help-lines
  6
ByLayer
 62
  256
370
   -1
100
AcDbMText
 10
177.5
 20
5
 30
0
 40
4
 41
1.777777777777778
 71
    5
 72
    5
  1
2
  7
iso
210
0
220
0
230
1
 50
0
 73
    2
 44
0.96
  0
CIRCLE
  5
13B
100
AcDbEntity
  8
help-lines
  6
ByLayer
 62
  256
370
   -1
100
AcDbCircle
 10
278
 20
5
 40
3
  0
MTEXT
  5
13C
100
AcDbEntity
  8
help-lines
  6
ByLayer
 62
  256
370
   -1
100
AcDbMText
 10
278
 20
5
 30
0
 40
4
 41
1.777777777778026
 71
    5
 72
    5
  1
3
  7
iso
210
0
220
0
230
1
 50
0
 73
    2
 44
0.96
  0
LINE
  5
13D
100
AcDbEntity
  8
help-lines
  6
ByLayer
 62
  256
370
   -1
100
AcDbLine
 10
315
 20
9.999976
 11
312.5
 21
5.66984898108
  0
LINE
  5
13E
100
AcDbEntity
  8
help-lines
  6
ByLayer
 62
  256
370
   -1
100
AcDbLine
 10
315
 20
9.999976
 11
317.5
 21
5.66984898108
  0
LINE
  5
13F
100
AcDbEntity
  8
help-lines
  6
ByLayer
 62
  256
370
   -1
100
AcDbLine
 10
312.5
 20
5.66984898108
 11
317.5
 21
5.66984898108
  0
CIRCLE
  5
140
100
AcDbEntity
  8
help-lines
  6
ByLayer
 62
  256
370
   -1
100
AcDbCircle
 10
363.000024
 20
5
 40
3
  0
MTEXT
  5
141
100
AcDbEntity
  8
help-lines
  6
ByLayer
 62
  256
370
   -1
100
AcDbMText
 10
363.000024
 20
5
 30
0
 40
4
 41
2.222222222222222
 71
    5
 72
    5
  1
4
  7
iso
210
0
220
0
230
1
 50
0
 73
    2
 44
0.96
  0
LINE
  5
142
100
AcDbEntity
  8
help-lines
  6
ByLayer
 62
  256
370
   -1
100
AcDbLine
 10
420
 20
0
 11
420
 21
297
  0
LINE
  5
143
100
AcDbEntity
  8
help-lines
  6
ByLayer
 62
  256
370
   -1
100
AcDbLine
 10
3.55e-14
 20
0
 11
420
 21
0
  0
LINE
  5
144
100
AcDbEntity
  8
help-lines
  6
ByLayer
 62
  256
370
   -1
100
AcDbLine
 10
125
 20
297
 11
125
 21
287
  0
LINE
  5
145
100
AcDbEntity
  8
help-lines
  6
ByLayer
 62
  256
370
   -1
100
AcDbLine
 10
230
 20
297
 11
230
 21
287
  0
LINE
  5
146
100
AcDbEntity
  8
help-lines
  6
ByLayer
 62
  256
370
   -1
100
AcDbLine
 10
124.999976
 20
287.000024
 11
122.499976
 21
291.330151019
  0
LINE
  5
147
100
AcDbEntity
  8
help-lines
  6
ByLayer
 62
  256
370
   -1
100
AcDbLine
 10
124.999976
 20
287.000024
 11
127.499976
 21
291.330151019
  0
LINE
  5
148
100
AcDbEntity
  8
help-lines
  6
ByLayer
 62
  256
370
   -1
100
AcDbLine
 10
122.499976
 20
291.330151019
 11
127.499976
 21
291.330151019
  0
CIRCLE
  5
149
100
AcDbEntity
  8
help-lines
  6
ByLayer
 62
  256
370
   -1
100
AcDbCircle
 10
177.5
 20
292
 40
3
  0
LINE
  5
14A
100
AcDbEntity
  8
help-lines
  6
ByLayer
 62
  256
370
   -1
100
AcDbLine
 10
229.999976
 20
287.000024
 11
227.499976
 21
291.330151019
  0
LINE
  5
14B
100
AcDbEntity
  8
help-lines
  6
ByLayer
 62
  256
370
   -1
100
AcDbLine
 10
229.999976
 20
287.000024
 11
232.499976
 21
291.330151019
  0
LINE
  5
14C
100
AcDbEntity
  8
help-lines
  6
ByLayer
 62
  256
370
   -1
100
AcDbLine
 10
227.499976
 20
291.330151019
 11
232.499976
 21
291.330151019
  0
CIRCLE
  5
14D
100
AcDbEntity
  8
help-lines
  6
ByLayer
 62
  256
370
   -1
100
AcDbCircle
 10
72.5
 20
292
 40
3
  0
MTEXT
  5
14E
100
AcDbEntity
  8
help-lines
  6
ByLayer
 62
  256
370
   -1
100
AcDbMText
 10
72.5
 20
292
 30
0
 40
4
 41
0.8888888888888888
 71
    5
 72
    5
  1
1
  7
iso
210
0
220
0
230
1
 50
0
 73
    2
 44
0.96
  0
MTEXT
  5
14F
100
AcDbEntity
  8
help-lines
  6
ByLayer
 62
  256
370
   -1
100
AcDbMText
 10
177.5
 20
292
 30
0
 40
4
 41
1.777777777777778
 71
    5
 72
    5
  1
2
  7
iso
210
0
220
0
230
1
 50
0
 73
    2
 44
0.96
  0
CIRCLE
  5
150
100
AcDbEntity
  8
help-lines
  6
ByLayer
 62
  256
370
   -1
100
AcDbCircle
 10
278
 20
292
 40
3
  0
MTEXT
  5
151
100
AcDbEntity
  8
help-lines
  6
ByLayer
 62
  256
370
   -1
100
AcDbMText
 10
278
 20
292
 30
0
 40
4
 41
1.777777777778026
 71
    5
 72
    5
  1
3
  7
iso
210
0
220
0
230
1
 50
0
 73
    2
 44
0.96
  0
LINE
  5
152
100
AcDbEntity
  8
help-lines
  6
ByLayer
 62
  256
370
   -1
100
AcDbLine
 10
315
 20
287.000024
 11
312.5
 21
291.330151019
  0
LINE
  5
153
100
AcDbEntity
  8
help-lines
  6
ByLayer
 62
  256
370
   -1
100
AcDbLine
 10
315
 20
287.000024
 11
317.5
 21
291.330151019
  0
LINE
  5
154
100
AcDbEntity
  8
help-lines
  6
ByLayer
 62
  256
370
   -1
100
AcDbLine
 10
312.5
 20
291.330151019
 11
317.5
 21
291.330151019
  0
CIRCLE
  5
155
100
AcDbEntity
  8
help-lines
  6
ByLayer
 62
  256
370
   -1
100
AcDbCircle
 10
363.000024
 20
292
 40
3
  0
MTEXT
  5
156
100
AcDbEntity
  8
help-lines
  6
ByLayer
 62
  256
370
   -1
100
AcDbMText
 10
363.000024
 20
292
 30
0
 40
4
 41
2.222222222222222
 71
    5
 72
    5
  1
4
  7
iso
210
0
220
0
230
1
 50
0
 73
    2
 44
0.96
  0
ENDBLK
  5
62
330
60
100
AcDbEntity
  8
0
100
AcDbBlockEnd
  0
BLOCK
  5
64
330
63
100
AcDbEntity
  8
0
100
AcDbBlockBegin
  2
a3-0
 70
    0
 10
0
 20
0
  3
a3-0
  1

  0
HATCH
  5
157
100
AcDbEntity
  8
hatch
  6
ByLayer
 62
  256
370
   -1
100
AcDbHatch
 10
0
 20
0
 30
0
210
0
220
0
230
1
  2
ansi31
 70
    0
 71
    0
 91
    1
 92
    0
 93
    3
 72
    1
 10
20
 20
148.5
 11
15.6698729811
 21
146
 72
    1
 10
15.6698729811
 20
146
 11
15.6698729811
 21
151
 72
    1
 10
15.6698729811
 20
151
 11
20
 21
148.5
 97
    0
 75
    0
 76
    1
 52
0
 41
0.5
 77
    0
 78
    0
 98
    0
  0
HATCH
  5
158
100
AcDbEntity
  8
hatch
  6
ByLayer
 62
  256
370
   -1
100
AcDbHatch
 10
0
 20
0
 30
0
210
0
220
0
230
1
  2
ansi31
 70
    0
 71
    0
 91
    1
 92
    0
 93
    3
 72
    1
 10
410
 20
148.5
 11
414.330127019
 21
146
 72
    1
 10
414.330127019
 20
146
 11
414.330127019
 21
151
 72
    1
 10
414.330127019
 20
151
 11
410
 21
148.5
 97
    0
 75
    0
 76
    1
 52
3.14159265359
 41
0.5
 77
    0
 78
    0
 98
    0
  0
HATCH
  5
159
100
AcDbEntity
  8
hatch
  6
ByLayer
 62
  256
370
   -1
100
AcDbHatch
 10
0
 20
0
 30
0
210
0
220
0
230
1
  2
ansi31
 70
    0
 71
    0
 91
    1
 92
    0
 93
    3
 72
    1
 10
124.999976
 20
9.999976
 11
122.499976
 21
5.66984898108
 72
    1
 10
122.499976
 20
5.66984898108
 11
127.499976
 21
5.66984898108
 72
    1
 10
127.499976
 20
5.66984898108
 11
124.999976
 21
9.999976
 97
    0
 75
    0
 76
    1
 52
4.71238898038
 41
0.5
 77
    0
 78
    0
 98
    0
  0
HATCH
  5
15A
100
AcDbEntity
  8
hatch
  6
ByLayer
 62
  256
370
   -1
100
AcDbHatch
 10
0
 20
0
 30
0
210
0
220
0
230
1
  2
ansi31
 70
    0
 71
    0
 91
    1
 92
    0
 93
    3
 72
    1
 10
229.999976
 20
9.999976
 11
227.499976
 21
5.66984898108
 72
    1
 10
227.499976
 20
5.66984898108
 11
232.499976
 21
5.66984898108
 72
    1
 10
232.499976
 20
5.66984898108
 11
229.999976
 21
9.999976
 97
    0
 75
    0
 76
    1
 52
4.71238898038
 41
0.5
 77
    0
 78
    0
 98
    0
  0
HATCH
  5
15B
100
AcDbEntity
  8
hatch
  6
ByLayer
 62
  256
370
   -1
100
AcDbHatch
 10
0
 20
0
 30
0
210
0
220
0
230
1
  2
ansi31
 70
    0
 71
    0
 91
    1
 92
    0
 93
    3
 72
    1
 10
315
 20
9.999976
 11
312.5
 21
5.66984898108
 72
    1
 10
312.5
 20
5.66984898108
 11
317.5
 21
5.66984898108
 72
    1
 10
317.5
 20
5.66984898108
 11
315
 21
9.999976
 97
    0
 75
    0
 76
    1
 52
4.71238898038
 41
0.5
 77
    0
 78
    0
 98
    0
  0
HATCH
  5
15C
100
AcDbEntity
  8
hatch
  6
ByLayer
 62
  256
370
   -1
100
AcDbHatch
 10
0
 20
0
 30
0
210
0
220
0
230
1
  2
ansi31
 70
    0
 71
    0
 91
    1
 92
    0
 93
    3
 72
    1
 10
315
 20
287.000024
 11
312.5
 21
291.330151019
 72
    1
 10
312.5
 20
291.330151019
 11
317.5
 21
291.330151019
 72
    1
 10
317.5
 20
291.330151019
 11
315
 21
287.000024
 97
    0
 75
    0
 76
    1
 52
4.71238898038
 41
0.5
 77
    0
 78
    0
 98
    0
  0
HATCH
  5
15D
100
AcDbEntity
  8
hatch
  6
ByLayer
 62
  256
370
   -1
100
AcDbHatch
 10
0
 20
0
 30
0
210
0
220
0
230
1
  2
ansi31
 70
    0
 71
    0
 91
    1
 92
    0
 93
    3
 72
    1
 10
229.999976
 20
287.000024
 11
227.499976
 21
291.330151019
 72
    1
 10
227.499976
 20
291.330151019
 11
232.499976
 21
291.330151019
 72
    1
 10
232.499976
 20
291.330151019
 11
229.999976
 21
287.000024
 97
    0
 75
    0
 76
    1
 52
4.71238898038
 41
0.5
 77
    0
 78
    0
 98
    0
  0
HATCH
  5
15E
100
AcDbEntity
  8
hatch
  6
ByLayer
 62
  256
370
   -1
100
AcDbHatch
 10
0
 20
0
 30
0
210
0
220
0
230
1
  2
ansi31
 70
    0
 71
    0
 91
    1
 92
    0
 93
    3
 72
    1
 10
124.999976
 20
287.000024
 11
122.499976
 21
291.330151019
 72
    1
 10
122.499976
 20
291.330151019
 11
127.499976
 21
291.330151019
 72
    1
 10
127.499976
 20
291.330151019
 11
124.999976
 21
287.000024
 97
    0
 75
    0
 76
    1
 52
4.71238898038
 41
0.5
 77
    0
 78
    0
 98
    0
  0
CIRCLE
  5
15F
100
AcDbEntity
  8
help-lines
  6
ByLayer
 62
  256
370
   -1
100
AcDbCircle
 10
15
 20
222.75
 40
3
  0
LINE
  5
160
100
AcDbEntity
  8
help-lines
  6
ByLayer
 62
  256
370
   -1
100
AcDbLine
 10
20
 20
148.5
 11
15.6698729811
 21
146
  0
LINE
  5
161
100
AcDbEntity
  8
help-lines
  6
ByLayer
 62
  256
370
   -1
100
AcDbLine
 10
20
 20
148.5
 11
15.6698729811
 21
151
  0
LINE
  5
162
100
AcDbEntity
  8
help-lines
  6
ByLayer
 62
  256
370
   -1
100
AcDbLine
 10
15.6698729811
 20
146
 11
15.6698729811
 21
151
  0
CIRCLE
  5
163
100
AcDbEntity
  8
help-lines
  6
ByLayer
 62
  256
370
   -1
100
AcDbCircle
 10
15
 20
74.25
 40
3
  0
MTEXT
  5
164
100
AcDbEntity
  8
help-lines
  6
ByLayer
 62
  256
370
   -1
100
AcDbMText
 10
15
 20
74.25
 30
0
 40
4
 41
2.666666666666667
 71
    5
 72
    5
  1
A
  7
iso
210
0
220
0
230
1
 50
6.28318530718
 73
    2
 44
0.96
  0
MTEXT
  5
165
100
AcDbEntity
  8
help-lines
  6
ByLayer
 62
  256
370
   -1
100
AcDbMText
 10
15
 20
222.75
 30
0
 40
4
 41
2.222222222222222
 71
    5
 72
    5
  1
B
  7
iso
210
0
220
0
230
1
 50
6.28318530718
 73
    2
 44
0.96
  0
LINE
  5
166
100
AcDbEntity
  8
help-lines
  6
ByLayer
 62
  256
370
   -1
100
AcDbLine
 10
1.82076576039e-14
 20
297
 11
0
 21
0
  0
CIRCLE
  5
167
100
AcDbEntity
  8
help-lines
  6
ByLayer
 62
  256
370
   -1
100
AcDbCircle
 10
415
 20
222.75
 40
3
  0
LINE
  5
168
100
AcDbEntity
  8
help-lines
  6
ByLayer
 62
  256
370
   -1
100
AcDbLine
 10
410
 20
148.5
 11
414.330127019
 21
146
  0
LINE
  5
169
100
AcDbEntity
  8
help-lines
  6
ByLayer
 62
  256
370
   -1
100
AcDbLine
 10
410
 20
148.5
 11
414.330127019
 21
151
  0
LINE
  5
16A
100
AcDbEntity
  8
help-lines
  6
ByLayer
 62
  256
370
   -1
100
AcDbLine
 10
414.330127019
 20
146
 11
414.330127019
 21
151
  0
CIRCLE
  5
16B
100
AcDbEntity
  8
help-lines
  6
ByLayer
 62
  256
370
   -1
100
AcDbCircle
 10
415
 20
74.25
 40
3
  0
MTEXT
  5
16C
100
AcDbEntity
  8
help-lines
  6
ByLayer
 62
  256
370
   -1
100
AcDbMText
 10
415
 20
74.25
 30
0
 40
4
 41
2.666666666666667
 71
    5
 72
    5
  1
A
  7
iso
210
0
220
0
230
1
 50
6.28318530718
 73
    2
 44
0.96
  0
MTEXT
  5
16D
100
AcDbEntity
  8
help-lines
  6
ByLayer
 62
  256
370
   -1
100
AcDbMText
 10
415
 20
222.75
 30
0
 40
4
 41
2.222222222222222
 71
    5
 72
    5
  1
B
  7
iso
210
0
220
0
230
1
 50
6.28318530718
 73
    2
 44
0.96
  0
LINE
  5
16E
100
AcDbEntity
  8
help-lines
  6
ByLayer
 62
  256
370
   -1
100
AcDbLine
 10
420
 20
297
 11
1.82076576039e-14
 21
297
  0
LINE
  5
16F
100
AcDbEntity
  8
help-lines
  6
ByLayer
 62
  256
370
   -1
100
AcDbLine
 10
125
 20
0
 11
125
 21
10
  0
LINE
  5
170
100
AcDbEntity
  8
help-lines
  6
ByLayer
 62
  256
370
   -1
100
AcDbLine
 10
230
 20
0
 11
230
 21
10
  0
LINE
  5
171
100
AcDbEntity
  8
help-lines
  6
ByLayer
 62
  256
370
   -1
100
AcDbLine
 10
124.999976
 20
9.999976
 11
122.499976
 21
5.66984898108
  0
LINE
  5
172
100
AcDbEntity
  8
help-lines
  6
ByLayer
 62
  256
370
   -1
100
AcDbLine
 10
124.999976
 20
9.999976
 11
127.499976
 21
5.66984898108
  0
LINE
  5
173
100
AcDbEntity
  8
help-lines
  6
ByLayer
 62
  256
370
   -1
100
AcDbLine
 10
122.499976
 20
5.66984898108
 11
127.499976
 21
5.66984898108
  0
CIRCLE
  5
174
100
AcDbEntity
  8
help-lines
  6
ByLayer
 62
  256
370
   -1
100
AcDbCircle
 10
177.5
 20
5
 40
3
  0
LINE
  5
175
100
AcDbEntity
  8
help-lines
  6
ByLayer
 62
  256
370
   -1
100
AcDbLine
 10
229.999976
 20
9.999976
 11
227.499976
 21
5.66984898108
  0
LINE
  5
176
100
AcDbEntity
  8
help-lines
  6
ByLayer
 62
  256
370
   -1
100
AcDbLine
 10
229.999976
 20
9.999976
 11
232.499976
 21
5.66984898108
  0
LINE
  5
177
100
AcDbEntity
  8
help-lines
  6
ByLayer
 62
  256
370
   -1
100
AcDbLine
 10
227.499976
 20
5.66984898108
 11
232.499976
 21
5.66984898108
  0
CIRCLE
  5
178
100
AcDbEntity
  8
help-lines
  6
ByLayer
 62
  256
370
   -1
100
AcDbCircle
 10
72.5
 20
5
 40
3
  0
MTEXT
  5
179
100
AcDbEntity
  8
help-lines
  6
ByLayer
 62
  256
370
   -1
100
AcDbMText
 10
72.5
 20
5
 30
0
 40
4
 41
0.8888888888888888
 71
    5
 72
    5
  1
1
  7
iso
210
0
220
0
230
1
 50
0
 73
    2
 44
0.96
  0
MTEXT
  5
17A
100
AcDbEntity
  8
help-lines
  6
ByLayer
 62
  256
370
   -1
100
AcDbMText
 10
177.5
 20
5
 30
0
 40
4
 41
1.777777777777778
 71
    5
 72
    5
  1
2
  7
iso
210
0
220
0
230
1
 50
0
 73
    2
 44
0.96
  0
CIRCLE
  5
17B
100
AcDbEntity
  8
help-lines
  6
ByLayer
 62
  256
370
   -1
100
AcDbCircle
 10
278
 20
5
 40
3
  0
MTEXT
  5
17C
100
AcDbEntity
  8
help-lines
  6
ByLayer
 62
  256
370
   -1
100
AcDbMText
 10
278
 20
5
 30
0
 40
4
 41
1.777777777778026
 71
    5
 72
    5
  1
3
  7
iso
210
0
220
0
230
1
 50
0
 73
    2
 44
0.96
  0
LINE
  5
17D
100
AcDbEntity
  8
help-lines
  6
ByLayer
 62
  256
370
   -1
100
AcDbLine
 10
315
 20
9.999976
 11
312.5
 21
5.66984898108
  0
LINE
  5
17E
100
AcDbEntity
  8
help-lines
  6
ByLayer
 62
  256
370
   -1
100
AcDbLine
 10
315
 20
9.999976
 11
317.5
 21
5.66984898108
  0
LINE
  5
17F
100
AcDbEntity
  8
help-lines
  6
ByLayer
 62
  256
370
   -1
100
AcDbLine
 10
312.5
 20
5.66984898108
 11
317.5
 21
5.66984898108
  0
CIRCLE
  5
180
100
AcDbEntity
  8
help-lines
  6
ByLayer
 62
  256
370
   -1
100
AcDbCircle
 10
363.000024
 20
5
 40
3
  0
MTEXT
  5
181
100
AcDbEntity
  8
help-lines
  6
ByLayer
 62
  256
370
   -1
100
AcDbMText
 10
363.000024
 20
5
 30
0
 40
4
 41
2.222222222222222
 71
    5
 72
    5
  1
4
  7
iso
210
0
220
0
230
1
 50
0
 73
    2
 44
0.96
  0
LINE
  5
182
100
AcDbEntity
  8
help-lines
  6
ByLayer
 62
  256
370
   -1
100
AcDbLine
 10
420
 20
0
 11
420
 21
297
  0
LINE
  5
183
100
AcDbEntity
  8
help-lines
  6
ByLayer
 62
  256
370
   -1
100
AcDbLine
 10
3.5527136788e-14
 20
0
 11
420
 21
0
  0
LINE
  5
184
100
AcDbEntity
  8
help-lines
  6
ByLayer
 62
  256
370
   -1
100
AcDbLine
 10
125
 20
297
 11
125
 21
287
  0
LINE
  5
185
100
AcDbEntity
  8
help-lines
  6
ByLayer
 62
  256
370
   -1
100
AcDbLine
 10
230
 20
297
 11
230
 21
287
  0
LINE
  5
186
100
AcDbEntity
  8
help-lines
  6
ByLayer
 62
  256
370
   -1
100
AcDbLine
 10
124.999976
 20
287.000024
 11
122.499976
 21
291.330151019
  0
LINE
  5
187
100
AcDbEntity
  8
help-lines
  6
ByLayer
 62
  256
370
   -1
100
AcDbLine
 10
124.999976
 20
287.000024
 11
127.499976
 21
291.330151019
  0
LINE
  5
188
100
AcDbEntity
  8
help-lines
  6
ByLayer
 62
  256
370
   -1
100
AcDbLine
 10
122.499976
 20
291.330151019
 11
127.499976
 21
291.330151019
  0
CIRCLE
  5
189
100
AcDbEntity
  8
help-lines
  6
ByLayer
 62
  256
370
   -1
100
AcDbCircle
 10
177.5
 20
292
 40
3
  0
LINE
  5
18A
100
AcDbEntity
  8
help-lines
  6
ByLayer
 62
  256
370
   -1
100
AcDbLine
 10
229.999976
 20
287.000024
 11
227.499976
 21
291.330151019
  0
LINE
  5
18B
100
AcDbEntity
  8
help-lines
  6
ByLayer
 62
  256
370
   -1
100
AcDbLine
 10
229.999976
 20
287.000024
 11
232.499976
 21
291.330151019
  0
LINE
  5
18C
100
AcDbEntity
  8
help-lines
  6
ByLayer
 62
  256
370
   -1
100
AcDbLine
 10
227.499976
 20
291.330151019
 11
232.499976
 21
291.330151019
  0
CIRCLE
  5
18D
100
AcDbEntity
  8
help-lines
  6
ByLayer
 62
  256
370
   -1
100
AcDbCircle
 10
72.5
 20
292
 40
3
  0
MTEXT
  5
18E
100
AcDbEntity
  8
help-lines
  6
ByLayer
 62
  256
370
   -1
100
AcDbMText
 10
72.5
 20
292
 30
0
 40
4
 41
0.8888888888888888
 71
    5
 72
    5
  1
1
  7
iso
210
0
220
0
230
1
 50
0
 73
    2
 44
0.96
  0
MTEXT
  5
18F
100
AcDbEntity
  8
help-lines
  6
ByLayer
 62
  256
370
   -1
100
AcDbMText
 10
177.5
 20
292
 30
0
 40
4
 41
1.777777777777778
 71
    5
 72
    5
  1
2
  7
iso
210
0
220
0
230
1
 50
0
 73
    2
 44
0.96
  0
CIRCLE
  5
190
100
AcDbEntity
  8
help-lines
  6
ByLayer
 62
  256
370
   -1
100
AcDbCircle
 10
278
 20
292
 40
3
  0
MTEXT
  5
191
100
AcDbEntity
  8
help-lines
  6
ByLayer
 62
  256
370
   -1
100
AcDbMText
 10
278
 20
292
 30
0
 40
4
 41
1.777777777778026
 71
    5
 72
    5
  1
3
  7
iso
210
0
220
0
230
1
 50
0
 73
    2
 44
0.96
  0
LINE
  5
192
100
AcDbEntity
  8
help-lines
  6
ByLayer
 62
  256
370
   -1
100
AcDbLine
 10
315
 20
287.000024
 11
312.5
 21
291.330151019
  0
LINE
  5
193
100
AcDbEntity
  8
help-lines
  6
ByLayer
 62
  256
370
   -1
100
AcDbLine
 10
315
 20
287.000024
 11
317.5
 21
291.330151019
  0
LINE
  5
194
100
AcDbEntity
  8
help-lines
  6
ByLayer
 62
  256
370
   -1
100
AcDbLine
 10
312.5
 20
291.330151019
 11
317.5
 21
291.330151019
  0
CIRCLE
  5
195
100
AcDbEntity
  8
help-lines
  6
ByLayer
 62
  256
370
   -1
100
AcDbCircle
 10
363.000024
 20
292
 40
3
  0
MTEXT
  5
196
100
AcDbEntity
  8
help-lines
  6
ByLayer
 62
  256
370
   -1
100
AcDbMText
 10
363.000024
 20
292
 30
0
 40
4
 41
2.222222222222222
 71
    5
 72
    5
  1
4
  7
iso
210
0
220
0
230
1
 50
0
 73
    2
 44
0.96
  0
ENDBLK
  5
65
330
63
100
AcDbEntity
  8
0
100
AcDbBlockEnd
  0
BLOCK
  5
67
330
66
100
AcDbEntity
  8
0
100
AcDbBlockBegin
  2
eca-logo-0
 70
    0
 10
0
 20
0
  3
eca-logo-0
  1

  0
ARC
  5
197
100
AcDbEntity
  8
0
  6
ByLayer
 62
  256
370
   -1
100
AcDbCircle
 10
110.420388752
 20
76.91488935949999
 40
7.01016792418
100
AcDbArc
 50
87.74620047419999
 51
274.031479733
  0
LINE
  5
198
100
AcDbEntity
  8
0
  6
ByLayer
 62
  256
370
   -1
100
AcDbLine
 10
110.886912
 20
69.94001919999999
 11
115.008423684
 21
69.9454058127
  0
ARC
  5
199
100
AcDbEntity
  8
0
  6
ByLayer
 62
  256
370
   -1
100
AcDbCircle
 10
123.926518775
 20
77.00278865919999
 40
11.2882077629
100
AcDbArc
 50
141.77912084
 51
217.944755456
  0
LINE
  5
19A
100
AcDbEntity
  8
0
  6
ByLayer
 62
  256
370
   -1
100
AcDbLine
 10
110.65210144
 20
83.92022498999999
 11
114.989564861
 21
83.93583805510001
  0
MTEXT
  5
19B
100
AcDbEntity
  8
0
  6
ByLayer
 62
  256
370
   -1
100
AcDbMText
 10
109.008608924
 20
82.4343709274
 30
0
 40
2.5
 41
1.666666666666667
 71
    1
 72
    1
  1
E\PC\PA
  7
standard
210
0
220
0
230
1
 50
0
 73
    2
 44
1
  0
LINE
  5
19C
100
AcDbEntity
  8
0
  6
ByLayer
 62
  256
370
   -1
100
AcDbLine
 10
113.540949806
 20
72.6336679929
 11
125.540949806
 21
72.6336679929
  0
LINE
  5
19D
100
AcDbEntity
  8
0
  6
ByLayer
 62
  256
370
   -1
100
AcDbLine
 10
113.540949806
 20
81.34970815200001
 11
125.540949806
 21
81.34970815200001
  0
LINE
  5
19E
100
AcDbEntity
  8
0
  6
ByLayer
 62
  256
370
   -1
100
AcDbLine
 10
112.649976812
 20
76.8948431818
 11
125.523374438
 21
76.93048210160001
  0
ENDBLK
  5
68
330
66
100
AcDbEntity
  8
0
100
AcDbBlockEnd
  0
BLOCK
  5
6A
330
69
100
AcDbEntity
  8
0
100
AcDbBlockBegin
  2
eca-logo-1
 70
    0
 10
0
 20
0
  3
eca-logo-1
  1

  0
ARC
  5
19F
100
AcDbEntity
  8
0
  6
ByLayer
 62
  256
370
   -1
100
AcDbCircle
 10
11.1840352802
 20
10.462484617
 40
7.01016792418
100
AcDbArc
 50
87.74620047419999
 51
274.031479733
  0
LINE
  5
1A0
100
AcDbEntity
  8
0
  6
ByLayer
 62
  256
370
   -1
100
AcDbLine
 10
11.6505585283
 20
3.4876144575
 11
15.7720702125
 21
3.49300107019
  0
ARC
  5
1A1
100
AcDbEntity
  8
0
  6
ByLayer
 62
  256
370
   -1
100
AcDbCircle
 10
24.6901653037
 20
10.5503839167
 40
11.2882077629
100
AcDbArc
 50
141.77912084
 51
217.944755456
  0
LINE
  5
1A2
100
AcDbEntity
  8
0
  6
ByLayer
 62
  256
370
   -1
100
AcDbLine
 10
11.4157479686
 20
17.4678202475
 11
15.753211389
 21
17.4834333126
  0
MTEXT
  5
1A3
100
AcDbEntity
  8
0
  6
ByLayer
 62
  256
370
   -1
100
AcDbMText
 10
9.77225545204
 20
15.9819661849
 30
0
 40
2.5
 41
1.666666666666667
 71
    1
 72
    1
  1
E\PC\PA
  7
standard
210
0
220
0
230
1
 50
0
 73
    2
 44
1
  0
LINE
  5
1A4
100
AcDbEntity
  8
0
  6
ByLayer
 62
  256
370
   -1
100
AcDbLine
 10
14.3045963348
 20
6.18126325039
 11
26.3045963348
 21
6.18126325039
  0
LINE
  5
1A5
100
AcDbEntity
  8
0
  6
ByLayer
 62
  256
370
   -1
100
AcDbLine
 10
14.3045963348
 20
14.8973034095
 11
26.3045963348
 21
14.8973034095
  0
LINE
  5
1A6
100
AcDbEntity
  8
0
  6
ByLayer
 62
  256
370
   -1
100
AcDbLine
 10
13.4136233407
 20
10.4424384393
 11
26.287020966
 21
10.4780773591
  0
ENDBLK
  5
6B
330
69
100
AcDbEntity
  8
0
100
AcDbBlockEnd
  0
BLOCK
  5
6D
330
6C
100
AcDbEntity
  8
0
100
AcDbBlockBegin
  2
Terminal-in
 70
    0
 10
0
 20
0
  3
Terminal-in
  1

  0
CIRCLE
  5
1A7
100
AcDbEntity
  8
0
  6
ByLayer
 62
  256
370
   -1
100
AcDbCircle
 10
0.00863291037492786
 20
10.74201307537149
 40
3.343779540414038
  0
LINE
  5
1A8
100
AcDbEntity
  8
0
  6
ByLayer
 62
  256
370
   -1
100
AcDbLine
 10
0.00863291037492786
 20
0.06667053457141492
 11
0.00863291037492786
 21
7.398233534957427
  0
ENDBLK
  5
6E
330
6C
100
AcDbEntity
  8
0
100
AcDbBlockEnd
  0
BLOCK
  5
70
330
6F
100
AcDbEntity
  8
0
100
AcDbBlockBegin
  2
Switch
 70
    0
 10
0
 20
0
  3
Switch
  1

  0
LINE
  5
1A9
100
AcDbEntity
  8
Contour
  6
ByLayer
 62
  256
370
   25
100
AcDbLine
 10
0
 20
0
 11
9
 21
0
  0
CIRCLE
  5
1AA
100
AcDbEntity
  8
Contour
  6
ByLayer
 62
  256
370
   25
100
AcDbCircle
 10
10
 20
0
 40
1
  0
LINE
  5
1AB
100
AcDbEntity
  8
Contour
  6
ByLayer
 62
  256
370
   25
100
AcDbLine
 10
30
 20
0
 11
21
 21
0
  0
CIRCLE
  5
1AC
100
AcDbEntity
  8
Contour
  6
ByLayer
 62
  256
370
   25
100
AcDbCircle
 10
20
 20
0
 40
1
  0
LINE
  5
1AD
100
AcDbEntity
  8
Contour
  6
ByLayer
 62
  256
370
   25
100
AcDbLine
 10
11
 20
0
 11
19.375
 21
3.75
  0
ENDBLK
  5
71
330
6F
100
AcDbEntity
  8
0
100
AcDbBlockEnd
  0
BLOCK
  5
73
330
72
100
AcDbEntity
  8
0
100
AcDbBlockBegin
  2
junction
 70
    0
 10
0
 20
0
  3
junction
  1

  0
HATCH
  5
1AE
100
AcDbEntity
  8
0
  6
ByLayer
 62
  256
370
   -1
100
AcDbHatch
 10
0
 20
0
 30
0
210
0
220
0
230
1
  2
gost_ceramics
 70
    0
 71
    0
 91
    1
 92
    0
 93
    1
 72
    2
 10
-0.05958860799999854
 20
-0.1342767104000018
 40
1.289183059150252
 50
0
 51
360
 73
    1
 97
    0
 75
    0
 76
    1
 52
0
 41
0.05
 77
    0
 78
    0
 98
    0
  0
CIRCLE
  5
1AF
100
AcDbEntity
  8
0
  6
ByLayer
 62
  256
370
   -1
100
AcDbCircle
 10
-0.05958860799999854
 20
-0.1342767104000018
 40
1.289183059150252
  0
ENDBLK
  5
74
330
72
100
AcDbEntity
  8
0
100
AcDbBlockEnd
  0
BLOCK
  5
76
330
75
100
AcDbEntity
  8
0
100
AcDbBlockBegin
  2
junction-0
 70
    0
 10
0
 20
0
  3
junction-0
  1

  0
HATCH
  5
1B0
100
AcDbEntity
  8
0
  6
ByLayer
 62
  256
370
   -1
100
AcDbHatch
 10
0
 20
0
 30
0
210
0
220
0
230
1
  2
gost_ceramics
 70
    0
 71
    0
 91
    1
 92
    0
 93
    1
 72
    2
 10
-0.05958860799999854
 20
-0.1342767104000018
 40
1.289183059150252
 50
0
 51
360
 73
    1
 97
    0
 75
    0
 76
    1
 52
0
 41
0.05
 77
    0
 78
    0
 98
    0
  0
CIRCLE
  5
1B1
100
AcDbEntity
  8
0
  6
ByLayer
 62
  256
370
   -1
100
AcDbCircle
 10
-0.05958860799999854
 20
-0.1342767104000018
 40
1.289183059150252
  0
ENDBLK
  5
77
330
75
100
AcDbEntity
  8
0
100
AcDbBlockEnd
  0
BLOCK
  5
79
330
78
100
AcDbEntity
  8
0
100
AcDbBlockBegin
  2
junction-1
 70
    0
 10
0
 20
0
  3
junction-1
  1

  0
HATCH
  5
1B2
100
AcDbEntity
  8
0
  6
ByLayer
 62
  256
370
   -1
100
AcDbHatch
 10
0
 20
0
 30
0
210
0
220
0
230
1
  2
gost_ceramics
 70
    0
 71
    0
 91
    1
 92
    0
 93
    1
 72
    2
 10
-0.05958860800001275
 20
-0.1342767104000018
 40
1.289183059150252
 50
0
 51
360
 73
    1
 97
    0
 75
    0
 76
    1
 52
0
 41
0.05
 77
    0
 78
    0
 98
    0
  0
CIRCLE
  5
1B3
100
AcDbEntity
  8
0
  6
ByLayer
 62
  256
370
   -1
100
AcDbCircle
 10
-0.05958860800001275
 20
-0.1342767104000018
 40
1.289183059150252
  0
ENDBLK
  5
7A
330
78
100
AcDbEntity
  8
0
100
AcDbBlockEnd
  0
BLOCK
  5
7C
330
7B
100
AcDbEntity
  8
0
100
AcDbBlockBegin
  2
junction-2
 70
    0
 10
0
 20
0
  3
junction-2
  1

  0
HATCH
  5
1B4
100
AcDbEntity
  8
0
  6
ByLayer
 62
  256
370
   -1
100
AcDbHatch
 10
0
 20
0
 30
0
210
0
220
0
230
1
  2
gost_ceramics
 70
    0
 71
    0
 91
    1
 92
    0
 93
    1
 72
    2
 10
-0.05958860800001275
 20
-0.1342767104000018
 40
1.289183059150252
 50
0
 51
360
 73
    1
 97
    0
 75
    0
 76
    1
 52
0
 41
0.05
 77
    0
 78
    0
 98
    0
  0
CIRCLE
  5
1B5
100
AcDbEntity
  8
0
  6
ByLayer
 62
  256
370
   -1
100
AcDbCircle
 10
-0.05958860800001275
 20
-0.1342767104000018
 40
1.289183059150252
  0
ENDBLK
  5
7D
330
7B
100
AcDbEntity
  8
0
100
AcDbBlockEnd
  0
BLOCK
  5
7F
330
7E
100
AcDbEntity
  8
0
100
AcDbBlockBegin
  2
Switch-0
 70
    0
 10
0
 20
0
  3
Switch-0
  1

  0
LINE
  5
1B6
100
AcDbEntity
  8
Contour
  6
ByLayer
 62
  256
370
   25
100
AcDbLine
 10
0
 20
0
 11
9
 21
0
  0
CIRCLE
  5
1B7
100
AcDbEntity
  8
Contour
  6
ByLayer
 62
  256
370
   25
100
AcDbCircle
 10
10
 20
0
 40
1
  0
LINE
  5
1B8
100
AcDbEntity
  8
Contour
  6
ByLayer
 62
  256
370
   25
100
AcDbLine
 10
30
 20
0
 11
21
 21
0
  0
CIRCLE
  5
1B9
100
AcDbEntity
  8
Contour
  6
ByLayer
 62
  256
370
   25
100
AcDbCircle
 10
20
 20
0
 40
1
  0
LINE
  5
1BA
100
AcDbEntity
  8
Contour
  6
ByLayer
 62
  256
370
   25
100
AcDbLine
 10
11
 20
0
 11
19.375
 21
3.75
  0
ENDBLK
  5
80
330
7E
100
AcDbEntity
  8
0
100
AcDbBlockEnd
  0
BLOCK
  5
82
330
81
100
AcDbEntity
  8
0
100
AcDbBlockBegin
  2
Switch-1
 70
    0
 10
0
 20
0
  3
Switch-1
  1

  0
LINE
  5
1BB
100
AcDbEntity
  8
Contour
  6
ByLayer
 62
  256
370
   25
100
AcDbLine
 10
0
 20
0
 11
9
 21
0
  0
CIRCLE
  5
1BC
100
AcDbEntity
  8
Contour
  6
ByLayer
 62
  256
370
   25
100
AcDbCircle
 10
10
 20
0
 40
1
  0
LINE
  5
1BD
100
AcDbEntity
  8
Contour
  6
ByLayer
 62
  256
370
   25
100
AcDbLine
 10
30
 20
0
 11
21
 21
0
  0
CIRCLE
  5
1BE
100
AcDbEntity
  8
Contour
  6
ByLayer
 62
  256
370
   25
100
AcDbCircle
 10
20
 20
0
 40
1
  0
LINE
  5
1BF
100
AcDbEntity
  8
Contour
  6
ByLayer
 62
  256
370
   25
100
AcDbLine
 10
11
 20
0
 11
19.375
 21
3.75
  0
ENDBLK
  5
83
330
81
100
AcDbEntity
  8
0
100
AcDbBlockEnd
  0
BLOCK
  5
85
330
84
100
AcDbEntity
  8
0
100
AcDbBlockBegin
  2
Switch-2
 70
    0
 10
0
 20
0
  3
Switch-2
  1

  0
LINE
  5
1C0
100
AcDbEntity
  8
Contour
  6
ByLayer
 62
  256
370
   25
100
AcDbLine
 10
0
 20
0
 11
9
 21
0
  0
CIRCLE
  5
1C1
100
AcDbEntity
  8
Contour
  6
ByLayer
 62
  256
370
   25
100
AcDbCircle
 10
10
 20
0
 40
1
  0
LINE
  5
1C2
100
AcDbEntity
  8
Contour
  6
ByLayer
 62
  256
370
   25
100
AcDbLine
 10
30
 20
0
 11
21
 21
0
  0
CIRCLE
  5
1C3
100
AcDbEntity
  8
Contour
  6
ByLayer
 62
  256
370
   25
100
AcDbCircle
 10
20
 20
0
 40
1
  0
LINE
  5
1C4
100
AcDbEntity
  8
Contour
  6
ByLayer
 62
  256
370
   25
100
AcDbLine
 10
11
 20
0
 11
19.375
 21
3.75
  0
ENDBLK
  5
86
330
84
100
AcDbEntity
  8
0
100
AcDbBlockEnd
  0
BLOCK
  5
88
330
87
100
AcDbEntity
  8
0
100
AcDbBlockBegin
  2
junction-3
 70
    0
 10
0
 20
0
  3
junction-3
  1

  0
HATCH
  5
1C5
100
AcDbEntity
  8
0
  6
ByLayer
 62
  256
370
   -1
100
AcDbHatch
 10
0
 20
0
 30
0
210
0
220
0
230
1
  2
gost_ceramics
 70
    0
 71
    0
 91
    1
 92
    0
 93
    1
 72
    2
 10
-0.05958860800001275
 20
-0.1342767104000018
 40
1.289183059150252
 50
0
 51
360
 73
    1
 97
    0
 75
    0
 76
    1
 52
0
 41
0.05
 77
    0
 78
    0
 98
    0
  0
CIRCLE
  5
1C6
100
AcDbEntity
  8
0
  6
ByLayer
 62
  256
370
   -1
100
AcDbCircle
 10
-0.05958860800001275
 20
-0.1342767104000018
 40
1.289183059150252
  0
ENDBLK
  5
89
330
87
100
AcDbEntity
  8
0
100
AcDbBlockEnd
  0
BLOCK
  5
8B
330
8A
100
AcDbEntity
  8
0
100
AcDbBlockBegin
  2
junction-4
 70
    0
 10
0
 20
0
  3
junction-4
  1

  0
HATCH
  5
1C7
100
AcDbEntity
  8
0
  6
ByLayer
 62
  256
370
   -1
100
AcDbHatch
 10
0
 20
0
 30
0
210
0
220
0
230
1
  2
gost_ceramics
 70
    0
 71
    0
 91
    1
 92
    0
 93
    1
 72
    2
 10
-0.05958860800001275
 20
-0.1342767104000018
 40
1.289183059150252
 50
0
 51
360
 73
    1
 97
    0
 75
    0
 76
    1
 52
0
 41
0.05
 77
    0
 78
    0
 98
    0
  0
CIRCLE
  5
1C8
100
AcDbEntity
  8
0
  6
ByLayer
 62
  256
370
   -1
100
AcDbCircle
 10
-0.05958860800001275
 20
-0.1342767104000018
 40
1.289183059150252
  0
ENDBLK
  5
8C
330
8A
100
AcDbEntity
  8
0
100
AcDbBlockEnd
  0
BLOCK
  5
8E
330
8D
100
AcDbEntity
  8
0
100
AcDbBlockBegin
  2
Switch-4
 70
    0
 10
0
 20
0
  3
Switch-4
  1

  0
LINE
  5
1C9
100
AcDbEntity
  8
Contour
  6
ByLayer
 62
  256
370
   25
100
AcDbLine
 10
0
 20
0
 11
9
 21
0
  0
CIRCLE
  5
1CA
100
AcDbEntity
  8
Contour
  6
ByLayer
 62
  256
370
   25
100
AcDbCircle
 10
10
 20
0
 40
1
  0
LINE
  5
1CB
100
AcDbEntity
  8
Contour
  6
ByLayer
 62
  256
370
   25
100
AcDbLine
 10
30
 20
0
 11
21
 21
0
  0
CIRCLE
  5
1CC
100
AcDbEntity
  8
Contour
  6
ByLayer
 62
  256
370
   25
100
AcDbCircle
 10
20
 20
0
 40
1
  0
LINE
  5
1CD
100
AcDbEntity
  8
Contour
  6
ByLayer
 62
  256
370
   25
100
AcDbLine
 10
11
 20
0
 11
19.375
 21
3.75
  0
ENDBLK
  5
8F
330
8D
100
AcDbEntity
  8
0
100
AcDbBlockEnd
  0
BLOCK
  5
91
330
90
100
AcDbEntity
  8
0
100
AcDbBlockBegin
  2
Switch-5
 70
    0
 10
0
 20
0
  3
Switch-5
  1

  0
LINE
  5
1CE
100
AcDbEntity
  8
Contour
  6
ByLayer
 62
  256
370
   25
100
AcDbLine
 10
0
 20
0
 11
9
 21
0
  0
CIRCLE
  5
1CF
100
AcDbEntity
  8
Contour
  6
ByLayer
 62
  256
370
   25
100
AcDbCircle
 10
10
 20
0
 40
1
  0
LINE
  5
1D0
100
AcDbEntity
  8
Contour
  6
ByLayer
 62
  256
370
   25
100
AcDbLine
 10
30
 20
0
 11
21
 21
0
  0
CIRCLE
  5
1D1
100
AcDbEntity
  8
Contour
  6
ByLayer
 62
  256
370
   25
100
AcDbCircle
 10
20
 20
0
 40
1
  0
LINE
  5
1D2
100
AcDbEntity
  8
Contour
  6
ByLayer
 62
  256
370
   25
100
AcDbLine
 10
11
 20
0
 11
19.375
 21
3.75
  0
ENDBLK
  5
92
330
90
100
AcDbEntity
  8
0
100
AcDbBlockEnd
  0
BLOCK
  5
94
330
93
100
AcDbEntity
  8
0
100
AcDbBlockBegin
  2
Switch-6
 70
    0
 10
0
 20
0
  3
Switch-6
  1

  0
LINE
  5
1D3
100
AcDbEntity
  8
Contour
  6
ByLayer
 62
  256
370
   25
100
AcDbLine
 10
0
 20
0
 11
9
 21
0
  0
CIRCLE
  5
1D4
100
AcDbEntity
  8
Contour
  6
ByLayer
 62
  256
370
   25
100
AcDbCircle
 10
10
 20
0
 40
1
  0
LINE
  5
1D5
100
AcDbEntity
  8
Contour
  6
ByLayer
 62
  256
370
   25
100
AcDbLine
 10
30
 20
0
 11
21
 21
0
  0
CIRCLE
  5
1D6
100
AcDbEntity
  8
Contour
  6
ByLayer
 62
  256
370
   25
100
AcDbCircle
 10
20
 20
0
 40
1
  0
LINE
  5
1D7
100
AcDbEntity
  8
Contour
  6
ByLayer
 62
  256
370
   25
100
AcDbLine
 10
11
 20
0
 11
19.375
 21
3.75
  0
ENDBLK
  5
95
330
93
100
AcDbEntity
  8
0
100
AcDbBlockEnd
  0
BLOCK
  5
97
330
96
100
AcDbEntity
  8
0
100
AcDbBlockBegin
  2
junction-5
 70
    0
 10
0
 20
0
  3
junction-5
  1

  0
HATCH
  5
1D8
100
AcDbEntity
  8
0
  6
ByLayer
 62
  256
370
   -1
100
AcDbHatch
 10
0
 20
0
 30
0
210
0
220
0
230
1
  2
gost_ceramics
 70
    0
 71
    0
 91
    1
 92
    0
 93
    1
 72
    2
 10
-0.05958860800001275
 20
-0.1342767104000018
 40
1.289183059150252
 50
0
 51
360
 73
    1
 97
    0
 75
    0
 76
    1
 52
0
 41
0.05
 77
    0
 78
    0
 98
    0
  0
CIRCLE
  5
1D9
100
AcDbEntity
  8
0
  6
ByLayer
 62
  256
370
   -1
100
AcDbCircle
 10
-0.05958860800001275
 20
-0.1342767104000018
 40
1.289183059150252
  0
ENDBLK
  5
98
330
96
100
AcDbEntity
  8
0
100
AcDbBlockEnd
  0
BLOCK
  5
9A
330
99
100
AcDbEntity
  8
0
100
AcDbBlockBegin
  2
junction-6
 70
    0
 10
0
 20
0
  3
junction-6
  1

  0
HATCH
  5
1DA
100
AcDbEntity
  8
0
  6
ByLayer
 62
  256
370
   -1
100
AcDbHatch
 10
0
 20
0
 30
0
210
0
220
0
230
1
  2
gost_ceramics
 70
    0
 71
    0
 91
    1
 92
    0
 93
    1
 72
    2
 10
-0.05958860800001275
 20
-0.1342767104000018
 40
1.289183059150252
 50
0
 51
360
 73
    1
 97
    0
 75
    0
 76
    1
 52
0
 41
0.05
 77
    0
 78
    0
 98
    0
  0
CIRCLE
  5
1DB
100
AcDbEntity
  8
0
  6
ByLayer
 62
  256
370
   -1
100
AcDbCircle
 10
-0.05958860800001275
 20
-0.1342767104000018
 40
1.289183059150252
  0
ENDBLK
  5
9B
330
99
100
AcDbEntity
  8
0
100
AcDbBlockEnd
  0
BLOCK
  5
9D
330
9C
100
AcDbEntity
  8
0
100
AcDbBlockBegin
  2
s3
 70
    0
 10
0
 20
0
  3
s3
  1

  0
LINE
  5
1DC
100
AcDbEntity
  8
0
  6
CONTINUOUS
 62
    7
370
   70
100
AcDbLine
 10
4.5
 20
0
 11
0
 21
0
  0
LINE
  5
1DD
100
AcDbEntity
  8
0
  6
CONTINUOUS
 62
    7
370
   70
100
AcDbLine
 10
15
 20
0
 11
10.5
 21
0
  0
LINE
  5
1DE
100
AcDbEntity
  8
0
  6
CONTINUOUS
 62
    7
370
   70
100
AcDbLine
 10
4.5
 20
0
 11
11.5
 21
4.039999999999992
  0
LINE
  5
1DF
100
AcDbEntity
  8
0
  6
CONTINUOUS
 62
    7
370
   70
100
AcDbLine
 10
10.5
 20
2
 11
10.5
 21
6
  0
LINE
  5
1E0
100
AcDbEntity
  8
0
  6
CONTINUOUS
 62
    7
370
   70
100
AcDbLine
 10
10.5
 20
6
 11
15
 21
6
  0
POINT
  5
1E1
100
AcDbEntity
  8
0
  6
CONTINUOUS
 62
    7
370
   70
100
AcDbPoint
 10
0
 20
0
  0
POINT
  5
1E2
100
AcDbEntity
  8
0
  6
CONTINUOUS
 62
    7
370
   70
100
AcDbPoint
 10
15
 20
0
  0
POINT
  5
1E3
100
AcDbEntity
  8
0
  6
CONTINUOUS
 62
    7
370
   70
100
AcDbPoint
 10
15
 20
6
  0
ENDBLK
  5
9E
330
9C
100
AcDbEntity
  8
0
100
AcDbBlockEnd
  0
BLOCK
  5
A0
330
9F
100
AcDbEntity
  8
0
100
AcDbBlockBegin
  2
junction-7
 70
    0
 10
0
 20
0
  3
junction-7
  1

  0
HATCH
  5
1E4
100
AcDbEntity
  8
0
  6
ByLayer
 62
  256
370
   -1
100
AcDbHatch
 10
0
 20
0
 30
0
210
0
220
0
230
1
  2
gost_ceramics
 70
    0
 71
    0
 91
    1
 92
    0
 93
    1
 72
    2
 10
-0.05958860799999854
 20
-0.1342767104000018
 40
1.289183059150252
 50
0
 51
360
 73
    1
 97
    0
 75
    0
 76
    1
 52
0
 41
0.05
 77
    0
 78
    0
 98
    0
  0
CIRCLE
  5
1E5
100
AcDbEntity
  8
0
  6
ByLayer
 62
  256
370
   -1
100
AcDbCircle
 10
-0.05958860799999854
 20
-0.1342767104000018
 40
1.289183059150252
  0
ENDBLK
  5
A1
330
9F
100
AcDbEntity
  8
0
100
AcDbBlockEnd
  0
BLOCK
  5
A3
330
A2
100
AcDbEntity
  8
0
100
AcDbBlockBegin
  2
junction-8
 70
    0
 10
0
 20
0
  3
junction-8
  1

  0
HATCH
  5
1E6
100
AcDbEntity
  8
0
  6
ByLayer
 62
  256
370
   -1
100
AcDbHatch
 10
0
 20
0
 30
0
210
0
220
0
230
1
  2
gost_ceramics
 70
    0
 71
    0
 91
    1
 92
    0
 93
    1
 72
    2
 10
-0.05958860800001275
 20
-0.1342767104000018
 40
1.289183059150252
 50
0
 51
360
 73
    1
 97
    0
 75
    0
 76
    1
 52
0
 41
0.05
 77
    0
 78
    0
 98
    0
  0
CIRCLE
  5
1E7
100
AcDbEntity
  8
0
  6
ByLayer
 62
  256
370
   -1
100
AcDbCircle
 10
-0.05958860800001275
 20
-0.1342767104000018
 40
1.289183059150252
  0
ENDBLK
  5
A4
330
A2
100
AcDbEntity
  8
0
100
AcDbBlockEnd
  0
BLOCK
  5
A6
330
A5
100
AcDbEntity
  8
0
100
AcDbBlockBegin
  2
junction-9
 70
    0
 10
0
 20
0
  3
junction-9
  1

  0
HATCH
  5
1E8
100
AcDbEntity
  8
0
  6
ByLayer
 62
  256
370
   -1
100
AcDbHatch
 10
0
 20
0
 30
0
210
0
220
0
230
1
  2
gost_ceramics
 70
    0
 71
    0
 91
    1
 92
    0
 93
    1
 72
    2
 10
-0.05958860799999854
 20
-0.1342767104000018
 40
1.289183059150252
 50
0
 51
360
 73
    1
 97
    0
 75
    0
 76
    1
 52
0
 41
0.05
 77
    0
 78
    0
 98
    0
  0
CIRCLE
  5
1E9
100
AcDbEntity
  8
0
  6
ByLayer
 62
  256
370
   -1
100
AcDbCircle
 10
-0.05958860799999854
 20
-0.1342767104000018
 40
1.289183059150252
  0
ENDBLK
  5
A7
330
A5
100
AcDbEntity
  8
0
100
AcDbBlockEnd
  0
BLOCK
  5
A9
330
A8
100
AcDbEntity
  8
0
100
AcDbBlockBegin
  2
junction-10
 70
    0
 10
0
 20
0
  3
junction-10
  1

  0
HATCH
  5
1EA
100
AcDbEntity
  8
0
  6
ByLayer
 62
  256
370
   -1
100
AcDbHatch
 10
0
 20
0
 30
0
210
0
220
0
230
1
  2
gost_ceramics
 70
    0
 71
    0
 91
    1
 92
    0
 93
    1
 72
    2
 10
-0.05958860799999854
 20
-0.1342767104000018
 40
1.289183059150252
 50
0
 51
360
 73
    1
 97
    0
 75
    0
 76
    1
 52
0
 41
0.05
 77
    0
 78
    0
 98
    0
  0
CIRCLE
  5
1EB
100
AcDbEntity
  8
0
  6
ByLayer
 62
  256
370
   -1
100
AcDbCircle
 10
-0.05958860799999854
 20
-0.1342767104000018
 40
1.289183059150252
  0
ENDBLK
  5
AA
330
A8
100
AcDbEntity
  8
0
100
AcDbBlockEnd
  0
BLOCK
  5
AC
330
AB
100
AcDbEntity
  8
0
100
AcDbBlockBegin
  2
junction-11
 70
    0
 10
0
 20
0
  3
junction-11
  1

  0
HATCH
  5
1EC
100
AcDbEntity
  8
0
  6
ByLayer
 62
  256
370
   -1
100
AcDbHatch
 10
0
 20
0
 30
0
210
0
220
0
230
1
  2
gost_ceramics
 70
    0
 71
    0
 91
    1
 92
    0
 93
    1
 72
    2
 10
-0.05958860799999854
 20
-0.1342767104000018
 40
1.289183059150252
 50
0
 51
360
 73
    1
 97
    0
 75
    0
 76
    1
 52
0
 41
0.05
 77
    0
 78
    0
 98
    0
  0
CIRCLE
  5
1ED
100
AcDbEntity
  8
0
  6
ByLayer
 62
  256
370
   -1
100
AcDbCircle
 10
-0.05958860799999854
 20
-0.1342767104000018
 40
1.289183059150252
  0
ENDBLK
  5
AD
330
AB
100
AcDbEntity
  8
0
100
AcDbBlockEnd
  0
BLOCK
  5
AF
330
AE
100
AcDbEntity
  8
0
100
AcDbBlockBegin
  2
junction-12
 70
    0
 10
0
 20
0
  3
junction-12
  1

  0
HATCH
  5
1EE
100
AcDbEntity
  8
0
  6
ByLayer
 62
  256
370
   -1
100
AcDbHatch
 10
0
 20
0
 30
0
210
0
220
0
230
1
  2
gost_ceramics
 70
    0
 71
    0
 91
    1
 92
    0
 93
    1
 72
    2
 10
-0.05958860799999854
 20
-0.1342767104000018
 40
1.289183059150252
 50
0
 51
360
 73
    1
 97
    0
 75
    0
 76
    1
 52
0
 41
0.05
 77
    0
 78
    0
 98
    0
  0
CIRCLE
  5
1EF
100
AcDbEntity
  8
0
  6
ByLayer
 62
  256
370
   -1
100
AcDbCircle
 10
-0.05958860799999854
 20
-0.1342767104000018
 40
1.289183059150252
  0
ENDBLK
  5
B0
330
AE
100
AcDbEntity
  8
0
100
AcDbBlockEnd
  0
BLOCK
  5
B2
330
B1
100
AcDbEntity
  8
0
100
AcDbBlockBegin
  2
junction-13
 70
    0
 10
0
 20
0
  3
junction-13
  1

  0
HATCH
  5
1F0
100
AcDbEntity
  8
0
  6
ByLayer
 62
  256
370
   -1
100
AcDbHatch
 10
0
 20
0
 30
0
210
0
220
0
230
1
  2
gost_ceramics
 70
    0
 71
    0
 91
    1
 92
    0
 93
    1
 72
    2
 10
-0.05958860799999854
 20
-0.1342767104000018
 40
1.289183059150252
 50
0
 51
360
 73
    1
 97
    0
 75
    0
 76
    1
 52
0
 41
0.05
 77
    0
 78
    0
 98
    0
  0
CIRCLE
  5
1F1
100
AcDbEntity
  8
0
  6
ByLayer
 62
  256
370
   -1
100
AcDbCircle
 10
-0.05958860799999854
 20
-0.1342767104000018
 40
1.289183059150252
  0
ENDBLK
  5
B3
330
B1
100
AcDbEntity
  8
0
100
AcDbBlockEnd
  0
BLOCK
  5
B5
330
B4
100
AcDbEntity
  8
0
100
AcDbBlockBegin
  2
junction-14
 70
    0
 10
0
 20
0
  3
junction-14
  1

  0
HATCH
  5
1F2
100
AcDbEntity
  8
0
  6
ByLayer
 62
  256
370
   -1
100
AcDbHatch
 10
0
 20
0
 30
0
210
0
220
0
230
1
  2
gost_ceramics
 70
    0
 71
    0
 91
    1
 92
    0
 93
    1
 72
    2
 10
-0.05958860800001275
 20
-0.1342767104000018
 40
1.289183059150252
 50
0
 51
360
 73
    1
 97
    0
 75
    0
 76
    1
 52
0
 41
0.05
 77
    0
 78
    0
 98
    0
  0
CIRCLE
  5
1F3
100
AcDbEntity
  8
0
  6
ByLayer
 62
  256
370
   -1
100
AcDbCircle
 10
-0.05958860800001275
 20
-0.1342767104000018
 40
1.289183059150252
  0
ENDBLK
  5
B6
330
B4
100
AcDbEntity
  8
0
100
AcDbBlockEnd
  0
BLOCK
  5
B8
330
B7
100
AcDbEntity
  8
0
100
AcDbBlockBegin
  2
junction-15
 70
    0
 10
0
 20
0
  3
junction-15
  1

  0
HATCH
  5
1F4
100
AcDbEntity
  8
0
  6
ByLayer
 62
  256
370
   -1
100
AcDbHatch
 10
0
 20
0
 30
0
210
0
220
0
230
1
  2
gost_ceramics
 70
    0
 71
    0
 91
    1
 92
    0
 93
    1
 72
    2
 10
-0.05958860800001275
 20
-0.1342767104000018
 40
1.289183059150252
 50
0
 51
360
 73
    1
 97
    0
 75
    0
 76
    1
 52
0
 41
0.05
 77
    0
 78
    0
 98
    0
  0
CIRCLE
  5
1F5
100
AcDbEntity
  8
0
  6
ByLayer
 62
  256
370
   -1
100
AcDbCircle
 10
-0.05958860800001275
 20
-0.1342767104000018
 40
1.289183059150252
  0
ENDBLK
  5
B9
330
B7
100
AcDbEntity
  8
0
100
AcDbBlockEnd
  0
BLOCK
  5
BB
330
BA
100
AcDbEntity
  8
0
100
AcDbBlockBegin
  2
junction-16
 70
    0
 10
0
 20
0
  3
junction-16
  1

  0
HATCH
  5
1F6
100
AcDbEntity
  8
0
  6
ByLayer
 62
  256
370
   -1
100
AcDbHatch
 10
0
 20
0
 30
0
210
0
220
0
230
1
  2
gost_ceramics
 70
    0
 71
    0
 91
    1
 92
    0
 93
    1
 72
    2
 10
-0.05958860800001275
 20
-0.1342767104000018
 40
1.289183059150252
 50
0
 51
360
 73
    1
 97
    0
 75
    0
 76
    1
 52
0
 41
0.05
 77
    0
 78
    0
 98
    0
  0
CIRCLE
  5
1F7
100
AcDbEntity
  8
0
  6
ByLayer
 62
  256
370
   -1
100
AcDbCircle
 10
-0.05958860800001275
 20
-0.1342767104000018
 40
1.289183059150252
  0
ENDBLK
  5
BC
330
BA
100
AcDbEntity
  8
0
100
AcDbBlockEnd
  0
BLOCK
  5
BE
330
BD
100
AcDbEntity
  8
0
100
AcDbBlockBegin
  2
junction-17
 70
    0
 10
0
 20
0
  3
junction-17
  1

  0
HATCH
  5
1F8
100
AcDbEntity
  8
0
  6
ByLayer
 62
  256
370
   -1
100
AcDbHatch
 10
0
 20
0
 30
0
210
0
220
0
230
1
  2
gost_ceramics
 70
    0
 71
    0
 91
    1
 92
    0
 93
    1
 72
    2
 10
-0.05958860800001275
 20
-0.1342767104000018
 40
1.289183059150252
 50
0
 51
360
 73
    1
 97
    0
 75
    0
 76
    1
 52
0
 41
0.05
 77
    0
 78
    0
 98
    0
  0
CIRCLE
  5
1F9
100
AcDbEntity
  8
0
  6
ByLayer
 62
  256
370
   -1
100
AcDbCircle
 10
-0.05958860800001275
 20
-0.1342767104000018
 40
1.289183059150252
  0
ENDBLK
  5
BF
330
BD
100
AcDbEntity
  8
0
100
AcDbBlockEnd
  0
BLOCK
  5
C1
330
C0
100
AcDbEntity
  8
0
100
AcDbBlockBegin
  2
s1-0
 70
    0
 10
0
 20
0
  3
s1-0
  1

  0
LINE
  5
1FA
100
AcDbEntity
  8
0
  6
CONTINUOUS
 62
    7
370
   70
100
AcDbLine
 10
4.5
 20
0
 11
0
 21
0
  0
LINE
  5
1FB
100
AcDbEntity
  8
0
  6
CONTINUOUS
 62
    7
370
   70
100
AcDbLine
 10
15
 20
0
 11
10.5
 21
0
  0
LINE
  5
1FC
100
AcDbEntity
  8
0
  6
CONTINUOUS
 62
    7
370
   70
100
AcDbLine
 10
4.5
 20
0
 11
10.5
 21
3.460000000000001
  0
POINT
  5
1FD
100
AcDbEntity
  8
0
  6
CONTINUOUS
 62
    7
370
   70
100
AcDbPoint
 10
0
 20
0
  0
POINT
  5
1FE
100
AcDbEntity
  8
0
  6
CONTINUOUS
 62
    7
370
   70
100
AcDbPoint
 10
15
 20
0
  0
ENDBLK
  5
C2
330
C0
100
AcDbEntity
  8
0
100
AcDbBlockEnd
  0
BLOCK
  5
C4
330
C3
100
AcDbEntity
  8
0
100
AcDbBlockBegin
  2
s1-1
 70
    0
 10
0
 20
0
  3
s1-1
  1

  0
LINE
  5
1FF
100
AcDbEntity
  8
0
  6
CONTINUOUS
 62
    7
370
   70
100
AcDbLine
 10
4.5
 20
0
 11
0
 21
0
  0
LINE
  5
200
100
AcDbEntity
  8
0
  6
CONTINUOUS
 62
    7
370
   70
100
AcDbLine
 10
15
 20
0
 11
10.5
 21
0
  0
LINE
  5
201
100
AcDbEntity
  8
0
  6
CONTINUOUS
 62
    7
370
   70
100
AcDbLine
 10
4.5
 20
0
 11
10.5
 21
3.460000000000001
  0
POINT
  5
202
100
AcDbEntity
  8
0
  6
CONTINUOUS
 62
    7
370
   70
100
AcDbPoint
 10
0
 20
0
  0
POINT
  5
203
100
AcDbEntity
  8
0
  6
CONTINUOUS
 62
    7
370
   70
100
AcDbPoint
 10
15
 20
0
  0
ENDBLK
  5
C5
330
C3
100
AcDbEntity
  8
0
100
AcDbBlockEnd
  0
BLOCK
  5
C7
330
C6
100
AcDbEntity
  8
0
100
AcDbBlockBegin
  2
RRS
 70
    0
 10
0
 20
0
  3
RRS
  1

  0
INSERT
  5
204
100
AcDbEntity
  8
0
  6
ByLayer
 62
  256
370
   25
100
AcDbBlockReference
  2
s1-0
 10
1.5625
 20
4.6875
 30
0
 41
1
 42
1
 43
0
 50
0
 70
    1
 71
    1
 44
0
 45
0
  0
INSERT
  5
205
100
AcDbEntity
  8
0
  6
ByLayer
 62
  256
370
   25
100
AcDbBlockReference
  2
s1-1
 10
17.19999999999999
 20
4.599999999999994
 30
0
 41
1
 42
1
 43
0
 50
0
 70
    1
 71
    1
 44
0
 45
0
  0
LINE
  5
206
100
AcDbEntity
  8
0
  6
ByLayer
 62
  256
370
   25
100
AcDbLine
 10
-0.1999999999999886
 20
0.1999999999999886
 11
34.60000000000002
 21
0.1999999999999886
  0
LINE
  5
207
100
AcDbEntity
  8
0
  6
ByLayer
 62
  256
370
   25
100
AcDbLine
 10
34.60000000000002
 20
0.1999999999999886
 11
34.60000000000002
 21
10.60000000000002
  0
LINE
  5
208
100
AcDbEntity
  8
0
  6
ByLayer
 62
  256
370
   25
100
AcDbLine
 10
34.60000000000002
 20
10.60000000000002
 11
-0.1999999999999886
 21
10.60000000000002
  0
LINE
  5
209
100
AcDbEntity
  8
0
  6
ByLayer
 62
  256
370
   25
100
AcDbLine
 10
-0.1999999999999886
 20
10.60000000000002
 11
-0.1999999999999886
 21
0.1999999999999886
  0
LINE
  5
20A
100
AcDbEntity
  8
0
  6
ByLayer
 62
  256
370
   25
100
AcDbLine
 10
-7.400000000000034
 20
4.400000000000006
 11
2.599999999999966
 21
4.400000000000006
  0
LINE
  5
20B
100
AcDbEntity
  8
0
  6
ByLayer
 62
  256
370
   25
100
AcDbLine
 10
32.11264
 20
4.587520000000012
 11
44.57024000000001
 21
4.587520000000012
  0
ENDBLK
  5
C8
330
C6
100
AcDbEntity
  8
0
100
AcDbBlockEnd
  0
BLOCK
  5
CA
330
C9
100
AcDbEntity
  8
0
100
AcDbBlockBegin
  2
junction-18
 70
    0
 10
0
 20
0
  3
junction-18
  1

  0
HATCH
  5
20C
100
AcDbEntity
  8
0
  6
ByLayer
 62
  256
370
   -1
100
AcDbHatch
 10
0
 20
0
 30
0
210
0
220
0
230
1
  2
gost_ceramics
 70
    0
 71
    0
 91
    1
 92
    0
 93
    1
 72
    2
 10
-0.05958860800001275
 20
-0.1342767104000018
 40
1.289183059150252
 50
0
 51
360
 73
    1
 97
    0
 75
    0
 76
    1
 52
0
 41
0.05
 77
    0
 78
    0
 98
    0
  0
CIRCLE
  5
20D
100
AcDbEntity
  8
0
  6
ByLayer
 62
  256
370
   -1
100
AcDbCircle
 10
-0.05958860800001275
 20
-0.1342767104000018
 40
1.289183059150252
  0
ENDBLK
  5
CB
330
C9
100
AcDbEntity
  8
0
100
AcDbBlockEnd
  0
BLOCK
  5
CD
330
CC
100
AcDbEntity
  8
0
100
AcDbBlockBegin
  2
Resistor-vert
 70
    0
 10
0
 20
0
  3
Resistor-vert
  1

  0
LINE
  5
20E
100
AcDbEntity
  8
Contour
  6
ByLayer
 62
  256
370
   25
100
AcDbLine
 10
0
 20
20
 11
5
 21
17.5
  0
LINE
  5
20F
100
AcDbEntity
  8
Contour
  6
ByLayer
 62
  256
370
   25
100
AcDbLine
 10
5
 20
17.5
 11
0
 21
15
  0
LINE
  5
210
100
AcDbEntity
  8
Contour
  6
ByLayer
 62
  256
370
   25
100
AcDbLine
 10
0
 20
15
 11
5
 21
12.5
  0
LINE
  5
211
100
AcDbEntity
  8
Contour
  6
ByLayer
 62
  256
370
   25
100
AcDbLine
 10
5
 20
12.5
 11
0
 21
10
  0
LINE
  5
212
100
AcDbEntity
  8
Contour
  6
ByLayer
 62
  256
370
   25
100
AcDbLine
 10
0
 20
10
 11
0
 21
0
  0
LINE
  5
213
100
AcDbEntity
  8
Contour
  6
ByLayer
 62
  256
370
   25
100
AcDbLine
 10
0
 20
20
 11
5
 21
22.5
  0
LINE
  5
214
100
AcDbEntity
  8
Contour
  6
ByLayer
 62
  256
370
   25
100
AcDbLine
 10
5
 20
22.5
 11
0
 21
25
  0
LINE
  5
215
100
AcDbEntity
  8
Contour
  6
ByLayer
 62
  256
370
   25
100
AcDbLine
 10
0
 20
25
 11
5
 21
27.5
  0
LINE
  5
216
100
AcDbEntity
  8
Contour
  6
ByLayer
 62
  256
370
   25
100
AcDbLine
 10
5
 20
27.5
 11
0
 21
30
  0
LINE
  5
217
100
AcDbEntity
  8
Contour
  6
ByLayer
 62
  256
370
   25
100
AcDbLine
 10
0
 20
30
 11
0
 21
40
  0
ENDBLK
  5
CE
330
CC
100
AcDbEntity
  8
0
100
AcDbBlockEnd
  0
BLOCK
  5
D0
330
CF
100
AcDbEntity
  8
0
100
AcDbBlockBegin
  2
Terminal-Earth
 70
    0
 10
0
 20
0
  3
Terminal-Earth
  1

  0
LINE
  5
218
100
AcDbEntity
  8
Contour
  6
ByLayer
 62
  256
370
   25
100
AcDbLine
 10
0
 20
0
 11
0
 21
-10
  0
LINE
  5
219
100
AcDbEntity
  8
Contour
  6
ByLayer
 62
  256
370
   25
100
AcDbLine
 10
0
 20
-10
 11
-5
 21
-10
  0
LINE
  5
21A
100
AcDbEntity
  8
Contour
  6
ByLayer
 62
  256
370
   25
100
AcDbLine
 10
0
 20
-10
 11
5
 21
-10
  0
LINE
  5
21B
100
AcDbEntity
  8
Contour
  6
ByLayer
 62
  256
370
   25
100
AcDbLine
 10
0
 20
-11.25
 11
-3.75
 21
-11.25
  0
LINE
  5
21C
100
AcDbEntity
  8
Contour
  6
ByLayer
 62
  256
370
   25
100
AcDbLine
 10
0
 20
-11.25
 11
3.75
 21
-11.25
  0
LINE
  5
21D
100
AcDbEntity
  8
Contour
  6
ByLayer
 62
  256
370
   25
100
AcDbLine
 10
0
 20
-12.5
 11
-2.5
 21
-12.5
  0
LINE
  5
21E
100
AcDbEntity
  8
Contour
  6
ByLayer
 62
  256
370
   25
100
AcDbLine
 10
0
 20
-12.5
 11
2.5
 21
-12.5
  0
LINE
  5
21F
100
AcDbEntity
  8
Contour
  6
ByLayer
 62
  256
370
   25
100
AcDbLine
 10
0
 20
-13.75
 11
-1.25
 21
-13.75
  0
LINE
  5
220
100
AcDbEntity
  8
Contour
  6
ByLayer
 62
  256
370
   25
100
AcDbLine
 10
0
 20
-13.75
 11
1.25
 21
-13.75
  0
LINE
  5
221
100
AcDbEntity
  8
Contour
  6
ByLayer
 62
  256
370
   25
100
AcDbLine
 10
0
 20
-15
 11
0
 21
-14.375
  0
ENDBLK
  5
D1
330
CF
100
AcDbEntity
  8
0
100
AcDbBlockEnd
  0
BLOCK
  5
D3
330
D2
100
AcDbEntity
  8
0
100
AcDbBlockBegin
  2
junction-19
 70
    0
 10
0
 20
0
  3
junction-19
  1

  0
HATCH
  5
222
100
AcDbEntity
  8
0
  6
ByLayer
 62
  256
370
   -1
100
AcDbHatch
 10
0
 20
0
 30
0
210
0
220
0
230
1
  2
gost_ceramics
 70
    0
 71
    0
 91
    1
 92
    0
 93
    1
 72
    2
 10
-0.05958860800001275
 20
-0.1342767104000018
 40
1.289183059150252
 50
0
 51
360
 73
    1
 97
    0
 75
    0
 76
    1
 52
0
 41
0.05
 77
    0
 78
    0
 98
    0
  0
CIRCLE
  5
223
100
AcDbEntity
  8
0
  6
ByLayer
 62
  256
370
   -1
100
AcDbCircle
 10
-0.05958860800001275
 20
-0.1342767104000018
 40
1.289183059150252
  0
ENDBLK
  5
D4
330
D2
100
AcDbEntity
  8
0
100
AcDbBlockEnd
  0
BLOCK
  5
D6
330
D5
100
AcDbEntity
  8
0
100
AcDbBlockBegin
  2
r1
 70
    0
 10
0
 20
0
  3
r1
  1

  0
POINT
  5
224
100
AcDbEntity
  8
0
  6
CONTINUOUS
 62
    7
370
   70
100
AcDbPoint
 10
0
 20
0
  0
POINT
  5
225
100
AcDbEntity
  8
0
  6
CONTINUOUS
 62
    7
370
   70
100
AcDbPoint
 10
15
 20
0
  0
LINE
  5
226
100
AcDbEntity
  8
0
  6
CONTINUOUS
 62
    7
370
   25
100
AcDbLine
 10
4.5
 20
6
 11
10.5
 21
6
  0
LINE
  5
227
100
AcDbEntity
  8
0
  6
CONTINUOUS
 62
    7
370
   25
100
AcDbLine
 10
4.5
 20
-6
 11
10.5
 21
-6
  0
LINE
  5
228
100
AcDbEntity
  8
0
  6
CONTINUOUS
 62
    7
370
   25
100
AcDbLine
 10
10.5
 20
-6
 11
10.5
 21
6
  0
LINE
  5
229
100
AcDbEntity
  8
0
  6
CONTINUOUS
 62
    7
370
   25
100
AcDbLine
 10
4.5
 20
6
 11
4.5
 21
-6
  0
LINE
  5
22A
100
AcDbEntity
  8
0
  6
CONTINUOUS
 62
    7
370
   25
100
AcDbLine
 10
15
 20
0
 11
10.5
 21
0
  0
LINE
  5
22B
100
AcDbEntity
  8
0
  6
CONTINUOUS
 62
    7
370
   25
100
AcDbLine
 10
4.5
 20
0
 11
0
 21
0
  0
ENDBLK
  5
D7
330
D5
100
AcDbEntity
  8
0
100
AcDbBlockEnd
  0
BLOCK
  5
D9
330
D8
100
AcDbEntity
  8
0
100
AcDbBlockBegin
  2
diodo_bobina
 70
    0
 10
0
 20
0
  3
diodo_bobina
  1

  0
LINE
  5
22C
100
AcDbEntity
  8
0
  6
CONTINUOUS
 62
    7
370
   25
100
AcDbLine
 10
0
 20
0
 11
0
 21
10
  0
LINE
  5
22D
100
AcDbEntity
  8
0
  6
CONTINUOUS
 62
    7
370
   25
100
AcDbLine
 10
0
 20
7
 11
2
 21
3
  0
LINE
  5
22E
100
AcDbEntity
  8
0
  6
CONTINUOUS
 62
    7
370
   25
100
AcDbLine
 10
2
 20
3
 11
-2
 21
3
  0
LINE
  5
22F
100
AcDbEntity
  8
0
  6
CONTINUOUS
 62
    7
370
   25
100
AcDbLine
 10
-2
 20
3
 11
0
 21
7
  0
LINE
  5
230
100
AcDbEntity
  8
0
  6
CONTINUOUS
 62
    7
370
   25
100
AcDbLine
 10
2
 20
7
 11
-2
 21
7
  0
ENDBLK
  5
DA
330
D8
100
AcDbEntity
  8
0
100
AcDbBlockEnd
  0
BLOCK
  5
DC
330
DB
100
AcDbEntity
  8
0
100
AcDbBlockBegin
  2
junction-20
 70
    0
 10
0
 20
0
  3
junction-20
  1

  0
HATCH
  5
231
100
AcDbEntity
  8
0
  6
ByLayer
 62
  256
370
   -1
100
AcDbHatch
 10
0
 20
0
 30
0
210
0
220
0
230
1
  2
gost_ceramics
 70
    0
 71
    0
 91
    1
 92
    0
 93
    1
 72
    2
 10
-0.05958860800001275
 20
-0.1342767104000018
 40
1.289183059150252
 50
0
 51
360
 73
    1
 97
    0
 75
    0
 76
    1
 52
0
 41
0.05
 77
    0
 78
    0
 98
    0
  0
CIRCLE
  5
232
100
AcDbEntity
  8
0
  6
ByLayer
 62
  256
370
   -1
100
AcDbCircle
 10
-0.05958860800001275
 20
-0.1342767104000018
 40
1.289183059150252
  0
ENDBLK
  5
DD
330
DB
100
AcDbEntity
  8
0
100
AcDbBlockEnd
  0
BLOCK
  5
DF
330
DE
100
AcDbEntity
  8
0
100
AcDbBlockBegin
  2
mcp2014x-connector
 70
    0
 10
0
 20
0
  3
mcp2014x-connector
  1

  0
LINE
  5
233
100
AcDbEntity
  8
0
  6
ByLayer
 62
  256
370
   -1
100
AcDbLine
 10
0.001768171077685565
 20
6.175801839350029
 11
6.251768171077678
 21
6.175801839350029
  0
LINE
  5
234
100
AcDbEntity
  8
0
  6
ByLayer
 62
  256
370
   -1
100
AcDbLine
 10
6.251768171077678
 20
6.175801839350029
 11
6.251768171077678
 21
0.003926839350029354
  0
LINE
  5
235
100
AcDbEntity
  8
0
  6
ByLayer
 62
  256
370
   -1
100
AcDbLine
 10
6.251768171077678
 20
0.003926839350029354
 11
0.001768171077685565
 21
0.003926839350029354
  0
LINE
  5
236
100
AcDbEntity
  8
0
  6
ByLayer
 62
  256
370
   -1
100
AcDbLine
 10
0.001768171077685565
 20
0.003926839350029354
 11
0.001768171077685565
 21
6.175801839350029
  0
ENDBLK
  5
E0
330
DE
100
AcDbEntity
  8
0
100
AcDbBlockEnd
  0
BLOCK
  5
E2
330
E1
100
AcDbEntity
  8
0
100
AcDbBlockBegin
  2
mcp2014x-connector-0
 70
    0
 10
0
 20
0
  3
mcp2014x-connector-0
  1

  0
LINE
  5
237
100
AcDbEntity
  8
0
  6
ByLayer
 62
  256
370
   -1
100
AcDbLine
 10
0.001768171077685565
 20
6.175801839350029
 11
6.251768171077686
 21
6.175801839350029
  0
LINE
  5
238
100
AcDbEntity
  8
0
  6
ByLayer
 62
  256
370
   -1
100
AcDbLine
 10
6.251768171077686
 20
6.175801839350029
 11
6.251768171077686
 21
0.003926839350029354
  0
LINE
  5
239
100
AcDbEntity
  8
0
  6
ByLayer
 62
  256
370
   -1
100
AcDbLine
 10
6.251768171077686
 20
0.003926839350029354
 11
0.001768171077685565
 21
0.003926839350029354
  0
LINE
  5
23A
100
AcDbEntity
  8
0
  6
ByLayer
 62
  256
370
   -1
100
AcDbLine
 10
0.001768171077685565
 20
0.003926839350029354
 11
0.001768171077685565
 21
6.175801839350029
  0
ENDBLK
  5
E3
330
E1
100
AcDbEntity
  8
0
100
AcDbBlockEnd
  0
BLOCK
  5
E5
330
E4
100
AcDbEntity
  8
0
100
AcDbBlockBegin
  2
mcp2014x-connector-1
 70
    0
 10
0
 20
0
  3
mcp2014x-connector-1
  1

  0
LINE
  5
23B
100
AcDbEntity
  8
0
  6
ByLayer
 62
  256
370
   -1
100
AcDbLine
 10
0.001768171077685565
 20
6.175801839350029
 11
6.251768171077686
 21
6.175801839350029
  0
LINE
  5
23C
100
AcDbEntity
  8
0
  6
ByLayer
 62
  256
370
   -1
100
AcDbLine
 10
6.251768171077686
 20
6.175801839350029
 11
6.251768171077686
 21
0.003926839350029354
  0
LINE
  5
23D
100
AcDbEntity
  8
0
  6
ByLayer
 62
  256
370
   -1
100
AcDbLine
 10
6.251768171077686
 20
0.003926839350029354
 11
0.001768171077685565
 21
0.003926839350029354
  0
LINE
  5
23E
100
AcDbEntity
  8
0
  6
ByLayer
 62
  256
370
   -1
100
AcDbLine
 10
0.001768171077685565
 20
0.003926839350029354
 11
0.001768171077685565
 21
6.175801839350029
  0
ENDBLK
  5
E6
330
E4
100
AcDbEntity
  8
0
100
AcDbBlockEnd
  0
BLOCK
  5
E8
330
E7
100
AcDbEntity
  8
0
100
AcDbBlockBegin
  2
mcp2014x-connector-2
 70
    0
 10
0
 20
0
  3
mcp2014x-connector-2
  1

  0
LINE
  5
23F
100
AcDbEntity
  8
0
  6
ByLayer
 62
  256
370
   -1
100
AcDbLine
 10
0.001768171077685565
 20
6.175801839350029
 11
6.251768171077686
 21
6.175801839350029
  0
LINE
  5
240
100
AcDbEntity
  8
0
  6
ByLayer
 62
  256
370
   -1
100
AcDbLine
 10
6.251768171077686
 20
6.175801839350029
 11
6.251768171077686
 21
0.003926839350029354
  0
LINE
  5
241
100
AcDbEntity
  8
0
  6
ByLayer
 62
  256
370
   -1
100
AcDbLine
 10
6.251768171077686
 20
0.003926839350029354
 11
0.001768171077685565
 21
0.003926839350029354
  0
LINE
  5
242
100
AcDbEntity
  8
0
  6
ByLayer
 62
  256
370
   -1
100
AcDbLine
 10
0.001768171077685565
 20
0.003926839350029354
 11
0.001768171077685565
 21
6.175801839350029
  0
ENDBLK
  5
E9
330
E7
100
AcDbEntity
  8
0
100
AcDbBlockEnd
  0
BLOCK
  5
EB
330
EA
100
AcDbEntity
  8
0
100
AcDbBlockBegin
  2
mcp2014x-connector-3
 70
    0
 10
0
 20
0
  3
mcp2014x-connector-3
  1

  0
LINE
  5
243
100
AcDbEntity
  8
0
  6
ByLayer
 62
  256
370
   -1
100
AcDbLine
 10
0.001768171077685565
 20
6.175801839350029
 11
6.251768171077686
 21
6.175801839350029
  0
LINE
  5
244
100
AcDbEntity
  8
0
  6
ByLayer
 62
  256
370
   -1
100
AcDbLine
 10
6.251768171077686
 20
6.175801839350029
 11
6.251768171077686
 21
0.003926839350029354
  0
LINE
  5
245
100
AcDbEntity
  8
0
  6
ByLayer
 62
  256
370
   -1
100
AcDbLine
 10
6.251768171077686
 20
0.003926839350029354
 11
0.001768171077685565
 21
0.003926839350029354
  0
LINE
  5
246
100
AcDbEntity
  8
0
  6
ByLayer
 62
  256
370
   -1
100
AcDbLine
 10
0.001768171077685565
 20
0.003926839350029354
 11
0.001768171077685565
 21
6.175801839350029
  0
ENDBLK
  5
EC
330
EA
100
AcDbEntity
  8
0
100
AcDbBlockEnd
  0
BLOCK
  5
EE
330
ED
100
AcDbEntity
  8
0
100
AcDbBlockBegin
  2
mcp2014x-connector-4
 70
    0
 10
0
 20
0
  3
mcp2014x-connector-4
  1

  0
LINE
  5
247
100
AcDbEntity
  8
0
  6
ByLayer
 62
  256
370
   -1
100
AcDbLine
 10
0.001768171077685565
 20
6.175801839350029
 11
6.251768171077686
 21
6.175801839350029
  0
LINE
  5
248
100
AcDbEntity
  8
0
  6
ByLayer
 62
  256
370
   -1
100
AcDbLine
 10
6.251768171077686
 20
6.175801839350029
 11
6.251768171077686
 21
0.003926839350029354
  0
LINE
  5
249
100
AcDbEntity
  8
0
  6
ByLayer
 62
  256
370
   -1
100
AcDbLine
 10
6.251768171077686
 20
0.003926839350029354
 11
0.001768171077685565
 21
0.003926839350029354
  0
LINE
  5
24A
100
AcDbEntity
  8
0
  6
ByLayer
 62
  256
370
   -1
100
AcDbLine
 10
0.001768171077685565
 20
0.003926839350029354
 11
0.001768171077685565
 21
6.175801839350029
  0
ENDBLK
  5
EF
330
ED
100
AcDbEntity
  8
0
100
AcDbBlockEnd
  0
BLOCK
  5
F1
330
F0
100
AcDbEntity
  8
0
100
AcDbBlockBegin
  2
mcp2014x-connector-5
 70
    0
 10
0
 20
0
  3
mcp2014x-connector-5
  1

  0
LINE
  5
24B
100
AcDbEntity
  8
0
  6
ByLayer
 62
  256
370
   -1
100
AcDbLine
 10
0.001768171077685565
 20
6.175801839350029
 11
6.251768171077686
 21
6.175801839350029
  0
LINE
  5
24C
100
AcDbEntity
  8
0
  6
ByLayer
 62
  256
370
   -1
100
AcDbLine
 10
6.251768171077686
 20
6.175801839350029
 11
6.251768171077686
 21
0.003926839350029354
  0
LINE
  5
24D
100
AcDbEntity
  8
0
  6
ByLayer
 62
  256
370
   -1
100
AcDbLine
 10
6.251768171077686
 20
0.003926839350029354
 11
0.001768171077685565
 21
0.003926839350029354
  0
LINE
  5
24E
100
AcDbEntity
  8
0
  6
ByLayer
 62
  256
370
   -1
100
AcDbLine
 10
0.001768171077685565
 20
0.003926839350029354
 11
0.001768171077685565
 21
6.175801839350029
  0
ENDBLK
  5
F2
330
F0
100
AcDbEntity
  8
0
100
AcDbBlockEnd
  0
BLOCK
  5
F4
330
F3
100
AcDbEntity
  8
0
100
AcDbBlockBegin
  2
mcp2014x-connector-6
 70
    0
 10
0
 20
0
  3
mcp2014x-connector-6
  1

  0
LINE
  5
24F
100
AcDbEntity
  8
0
  6
ByLayer
 62
  256
370
   -1
100
AcDbLine
 10
0.001768171077685565
 20
6.175801839350029
 11
6.251768171077686
 21
6.175801839350029
  0
LINE
  5
250
100
AcDbEntity
  8
0
  6
ByLayer
 62
  256
370
   -1
100
AcDbLine
 10
6.251768171077686
 20
6.175801839350029
 11
6.251768171077686
 21
0.003926839350029354
  0
LINE
  5
251
100
AcDbEntity
  8
0
  6
ByLayer
 62
  256
370
   -1
100
AcDbLine
 10
6.251768171077686
 20
0.003926839350029354
 11
0.001768171077685565
 21
0.003926839350029354
  0
LINE
  5
252
100
AcDbEntity
  8
0
  6
ByLayer
 62
  256
370
   -1
100
AcDbLine
 10
0.001768171077685565
 20
0.003926839350029354
 11
0.001768171077685565
 21
6.175801839350029
  0
ENDBLK
  5
F5
330
F3
100
AcDbEntity
  8
0
100
AcDbBlockEnd
  0
BLOCK
  5
F7
330
F6
100
AcDbEntity
  8
0
100
AcDbBlockBegin
  2
mcp2014x-connector-7
 70
    0
 10
0
 20
0
  3
mcp2014x-connector-7
  1

  0
LINE
  5
253
100
AcDbEntity
  8
0
  6
ByLayer
 62
  256
370
   -1
100
AcDbLine
 10
0.001768171077685565
 20
6.175801839350029
 11
6.251768171077686
 21
6.175801839350029
  0
LINE
  5
254
100
AcDbEntity
  8
0
  6
ByLayer
 62
  256
370
   -1
100
AcDbLine
 10
6.251768171077686
 20
6.175801839350029
 11
6.251768171077686
 21
0.003926839350029354
  0
LINE
  5
255
100
AcDbEntity
  8
0
  6
ByLayer
 62
  256
370
   -1
100
AcDbLine
 10
6.251768171077686
 20
0.003926839350029354
 11
0.001768171077685565
 21
0.003926839350029354
  0
LINE
  5
256
100
AcDbEntity
  8
0
  6
ByLayer
 62
  256
370
   -1
100
AcDbLine
 10
0.001768171077685565
 20
0.003926839350029354
 11
0.001768171077685565
 21
6.175801839350029
  0
ENDBLK
  5
F8
330
F6
100
AcDbEntity
  8
0
100
AcDbBlockEnd
  0
BLOCK
  5
FA
330
F9
100
AcDbEntity
  8
0
100
AcDbBlockBegin
  2
mcp2014x-connector-8
 70
    0
 10
0
 20
0
  3
mcp2014x-connector-8
  1

  0
LINE
  5
257
100
AcDbEntity
  8
0
  6
ByLayer
 62
  256
370
   -1
100
AcDbLine
 10
0.001768171077685565
 20
6.175801839350029
 11
6.251768171077686
 21
6.175801839350029
  0
LINE
  5
258
100
AcDbEntity
  8
0
  6
ByLayer
 62
  256
370
   -1
100
AcDbLine
 10
6.251768171077686
 20
6.175801839350029
 11
6.251768171077686
 21
0.003926839350029354
  0
LINE
  5
259
100
AcDbEntity
  8
0
  6
ByLayer
 62
  256
370
   -1
100
AcDbLine
 10
6.251768171077686
 20
0.003926839350029354
 11
0.001768171077685565
 21
0.003926839350029354
  0
LINE
  5
25A
100
AcDbEntity
  8
0
  6
ByLayer
 62
  256
370
   -1
100
AcDbLine
 10
0.001768171077685565
 20
0.003926839350029354
 11
0.001768171077685565
 21
6.175801839350029
  0
ENDBLK
  5
FB
330
F9
100
AcDbEntity
  8
0
100
AcDbBlockEnd
  0
BLOCK
  5
FD
330
FC
100
AcDbEntity
  8
0
100
AcDbBlockBegin
  2
mcp2014x-connector-9
 70
    0
 10
0
 20
0
  3
mcp2014x-connector-9
  1

  0
LINE
  5
25B
100
AcDbEntity
  8
0
  6
ByLayer
 62
  256
370
   -1
100
AcDbLine
 10
0.001768171077685565
 20
6.175801839350029
 11
6.251768171077686
 21
6.175801839350029
  0
LINE
  5
25C
100
AcDbEntity
  8
0
  6
ByLayer
 62
  256
370
   -1
100
AcDbLine
 10
6.251768171077686
 20
6.175801839350029
 11
6.251768171077686
 21
0.003926839350029354
  0
LINE
  5
25D
100
AcDbEntity
  8
0
  6
ByLayer
 62
  256
370
   -1
100
AcDbLine
 10
6.251768171077686
 20
0.003926839350029354
 11
0.001768171077685565
 21
0.003926839350029354
  0
LINE
  5
25E
100
AcDbEntity
  8
0
  6
ByLayer
 62
  256
370
   -1
100
AcDbLine
 10
0.001768171077685565
 20
0.003926839350029354
 11
0.001768171077685565
 21
6.175801839350029
  0
ENDBLK
  5
FE
330
FC
100
AcDbEntity
  8
0
100
AcDbBlockEnd
  0
BLOCK
  5
100
330
FF
100
AcDbEntity
  8
0
100
AcDbBlockBegin
  2
mcp2014x-connector-10
 70
    0
 10
0
 20
0
  3
mcp2014x-connector-10
  1

  0
LINE
  5
25F
100
AcDbEntity
  8
0
  6
ByLayer
 62
  256
370
   -1
100
AcDbLine
 10
0.001768171077685565
 20
6.175801839350029
 11
6.251768171077686
 21
6.175801839350029
  0
LINE
  5
260
100
AcDbEntity
  8
0
  6
ByLayer
 62
  256
370
   -1
100
AcDbLine
 10
6.251768171077686
 20
6.175801839350029
 11
6.251768171077686
 21
0.003926839350029354
  0
LINE
  5
261
100
AcDbEntity
  8
0
  6
ByLayer
 62
  256
370
   -1
100
AcDbLine
 10
6.251768171077686
 20
0.003926839350029354
 11
0.001768171077685565
 21
0.003926839350029354
  0
LINE
  5
262
100
AcDbEntity
  8
0
  6
ByLayer
 62
  256
370
   -1
100
AcDbLine
 10
0.001768171077685565
 20
0.003926839350029354
 11
0.001768171077685565
 21
6.175801839350029
  0
ENDBLK
  5
101
330
FF
100
AcDbEntity
  8
0
100
AcDbBlockEnd
  0
BLOCK
  5
103
330
102
100
AcDbEntity
  8
0
100
AcDbBlockBegin
  2
RRS-0
 70
    0
 10
0
 20
0
  3
RRS-0
  1

  0
LINE
  5
263
100
AcDbEntity
  8
0
  6
ByLayer
 62
  256
370
   25
100
AcDbLine
 10
-0.1999999999999886
 20
0.1999999999999886
 11
34.60000000000002
 21
0.1999999999999886
  0
LINE
  5
264
100
AcDbEntity
  8
0
  6
ByLayer
 62
  256
370
   25
100
AcDbLine
 10
34.60000000000002
 20
0.1999999999999886
 11
34.60000000000002
 21
10.60000000000002
  0
LINE
  5
265
100
AcDbEntity
  8
0
  6
ByLayer
 62
  256
370
   25
100
AcDbLine
 10
34.60000000000002
 20
10.60000000000002
 11
-0.1999999999999886
 21
10.60000000000002
  0
LINE
  5
266
100
AcDbEntity
  8
0
  6
ByLayer
 62
  256
370
   25
100
AcDbLine
 10
-0.1999999999999886
 20
10.60000000000002
 11
-0.1999999999999886
 21
0.1999999999999886
  0
LINE
  5
267
100
AcDbEntity
  8
0
  6
ByLayer
 62
  256
370
   25
100
AcDbLine
 10
-6
 20
5
 11
4
 21
5
  0
LINE
  5
268
100
AcDbEntity
  8
0
  6
ByLayer
 62
  256
370
   25
100
AcDbLine
 10
4
 20
5
 11
13
 21
8
  0
LINE
  5
269
100
AcDbEntity
  8
0
  6
ByLayer
 62
  256
370
   25
100
AcDbLine
 10
13
 20
5
 11
20
 21
5
  0
LINE
  5
26A
100
AcDbEntity
  8
0
  6
ByLayer
 62
  256
370
   25
100
AcDbLine
 10
20
 20
5
 11
29
 21
8
  0
LINE
  5
26B
100
AcDbEntity
  8
0
  6
ByLayer
 62
  256
370
   25
100
AcDbLine
 10
29
 20
5
 11
40
 21
5
  0
ENDBLK
  5
104
330
102
100
AcDbEntity
  8
0
100
AcDbBlockEnd
  0
BLOCK
  5
106
330
105
100
AcDbEntity
  8
0
100
AcDbBlockBegin
  2
Resistor-Therm
 70
    0
 10
0
 20
0
  3
Resistor-Therm
  1

  0
LINE
  5
26C
100
AcDbEntity
  8
Contour
  6
ByLayer
 62
  256
370
   25
100
AcDbLine
 10
20
 20
0
 11
17.5
 21
-5
  0
LINE
  5
26D
100
AcDbEntity
  8
Contour
  6
ByLayer
 62
  256
370
   25
100
AcDbLine
 10
17.5
 20
-5
 11
15
 21
0
  0
LINE
  5
26E
100
AcDbEntity
  8
Contour
  6
ByLayer
 62
  256
370
   25
100
AcDbLine
 10
15
 20
0
 11
12.5
 21
-5
  0
LINE
  5
26F
100
AcDbEntity
  8
Contour
  6
ByLayer
 62
  256
370
   25
100
AcDbLine
 10
12.5
 20
-5
 11
10
 21
0
  0
LINE
  5
270
100
AcDbEntity
  8
Contour
  6
ByLayer
 62
  256
370
   25
100
AcDbLine
 10
10
 20
0
 11
0
 21
0
  0
LINE
  5
271
100
AcDbEntity
  8
Contour
  6
ByLayer
 62
  256
370
   25
100
AcDbLine
 10
20
 20
-1.06581410364015e-14
 11
30
 21
0
  0
CIRCLE
  5
272
100
AcDbEntity
  8
Contour
  6
ByLayer
 62
  256
370
   25
100
AcDbCircle
 10
17.5
 20
1.25
 40
1.25
  0
ENDBLK
  5
107
330
105
100
AcDbEntity
  8
0
100
AcDbBlockEnd
  0
BLOCK
  5
109
330
108
100
AcDbEntity
  8
0
100
AcDbBlockBegin
  2
2vd1
 70
    0
 10
0
 20
0
  3
2vd1
  1

  0
LINE
  5
273
100
AcDbEntity
  8
0
  6
CONTINUOUS
 62
    7
370
   25
100
AcDbLine
 10
0
 20
0
 11
-1.83690953073e-15
 21
-10
  0
LINE
  5
274
100
AcDbEntity
  8
0
  6
CONTINUOUS
 62
    7
370
   25
100
AcDbLine
 10
-1.28583667151e-15
 20
-7
 11
-2
 21
-3
  0
LINE
  5
275
100
AcDbEntity
  8
0
  6
CONTINUOUS
 62
    7
370
   25
100
AcDbLine
 10
-2
 20
-3
 11
2
 21
-3
  0
LINE
  5
276
100
AcDbEntity
  8
0
  6
CONTINUOUS
 62
    7
370
   25
100
AcDbLine
 10
2
 20
-3
 11
-1.28583667151e-15
 21
-7
  0
LINE
  5
277
100
AcDbEntity
  8
0
  6
CONTINUOUS
 62
    7
370
   25
100
AcDbLine
 10
-2
 20
-7
 11
2
 21
-7
  0
ENDBLK
  5
10A
330
108
100
AcDbEntity
  8
0
100
AcDbBlockEnd
  0
ENDSEC
  0
SECTION
  2
ENTITIES
  0
HATCH
  5
278
100
AcDbEntity
  8
hatch
  6
ByLayer
 62
  256
370
   -1
100
AcDbHatch
 10
0
 20
0
 30
0
210
0
220
0
230
1
  2
ansi31
 70
    0
 71
    0
 91
    1
 92
    0
 93
    3
 72
    1
 10
124.499976
 20
287.250024
 11
121.999976
 21
291.580151019
 72
    1
 10
121.999976
 20
291.580151019
 11
126.999976
 21
291.580151019
 72
    1
 10
126.999976
 20
291.580151019
 11
124.499976
 21
287.250024
 97
    0
 75
    0
 76
    1
 52
4.71238898038
 41
0.5
 77
    0
 78
    0
 98
    0
  0
HATCH
  5
279
100
AcDbEntity
  8
hatch
  6
ByLayer
 62
  256
370
   -1
100
AcDbHatch
 10
0
 20
0
 30
0
210
0
220
0
230
1
  2
ansi31
 70
    0
 71
    0
 91
    1
 92
    0
 93
    3
 72
    1
 10
229.499976
 20
287.250024
 11
226.999976
 21
291.580151019
 72
    1
 10
226.999976
 20
291.580151019
 11
231.999976
 21
291.580151019
 72
    1
 10
231.999976
 20
291.580151019
 11
229.499976
 21
287.250024
 97
    0
 75
    0
 76
    1
 52
4.71238898038
 41
0.5
 77
    0
 78
    0
 98
    0
  0
HATCH
  5
27A
100
AcDbEntity
  8
hatch
  6
ByLayer
 62
  256
370
   -1
100
AcDbHatch
 10
0
 20
0
 30
0
210
0
220
0
230
1
  2
ansi31
 70
    0
 71
    0
 91
    1
 92
    0
 93
    3
 72
    1
 10
314.5
 20
287.250024
 11
312
 21
291.580151019
 72
    1
 10
312
 20
291.580151019
 11
317
 21
291.580151019
 72
    1
 10
317
 20
291.580151019
 11
314.5
 21
287.250024
 97
    0
 75
    0
 76
    1
 52
4.71238898038
 41
0.5
 77
    0
 78
    0
 98
    0
  0
HATCH
  5
27B
100
AcDbEntity
  8
hatch
  6
ByLayer
 62
  256
370
   -1
100
AcDbHatch
 10
0
 20
0
 30
0
210
0
220
0
230
1
  2
ansi31
 70
    0
 71
    0
 91
    1
 92
    0
 93
    3
 72
    1
 10
314.5
 20
10.249976
 11
312
 21
5.91984898108
 72
    1
 10
312
 20
5.91984898108
 11
317
 21
5.91984898108
 72
    1
 10
317
 20
5.91984898108
 11
314.5
 21
10.249976
 97
    0
 75
    0
 76
    1
 52
4.71238898038
 41
0.5
 77
    0
 78
    0
 98
    0
  0
HATCH
  5
27C
100
AcDbEntity
  8
hatch
  6
ByLayer
 62
  256
370
   -1
100
AcDbHatch
 10
0
 20
0
 30
0
210
0
220
0
230
1
  2
ansi31
 70
    0
 71
    0
 91
    1
 92
    0
 93
    3
 72
    1
 10
229.499976
 20
10.249976
 11
226.999976
 21
5.91984898108
 72
    1
 10
226.999976
 20
5.91984898108
 11
231.999976
 21
5.91984898108
 72
    1
 10
231.999976
 20
5.91984898108
 11
229.499976
 21
10.249976
 97
    0
 75
    0
 76
    1
 52
4.71238898038
 41
0.5
 77
    0
 78
    0
 98
    0
  0
HATCH
  5
27D
100
AcDbEntity
  8
hatch
  6
ByLayer
 62
  256
370
   -1
100
AcDbHatch
 10
0
 20
0
 30
0
210
0
220
0
230
1
  2
ansi31
 70
    0
 71
    0
 91
    1
 92
    0
 93
    3
 72
    1
 10
124.499976
 20
10.249976
 11
121.999976
 21
5.91984898108
 72
    1
 10
121.999976
 20
5.91984898108
 11
126.999976
 21
5.91984898108
 72
    1
 10
126.999976
 20
5.91984898108
 11
124.499976
 21
10.249976
 97
    0
 75
    0
 76
    1
 52
4.71238898038
 41
0.5
 77
    0
 78
    0
 98
    0
  0
HATCH
  5
27E
100
AcDbEntity
  8
hatch
  6
ByLayer
 62
  256
370
   -1
100
AcDbHatch
 10
0
 20
0
 30
0
210
0
220
0
230
1
  2
ansi31
 70
    0
 71
    0
 91
    1
 92
    0
 93
    3
 72
    1
 10
19.5
 20
148.75
 11
15.1698729811
 21
146.25
 72
    1
 10
15.1698729811
 20
146.25
 11
15.1698729811
 21
151.25
 72
    1
 10
15.1698729811
 20
151.25
 11
19.5
 21
148.75
 97
    0
 75
    0
 76
    1
 52
0
 41
0.5
 77
    0
 78
    0
 98
    0
  0
LINE
  5
27F
100
AcDbEntity
  8
help-lines
  6
ByLayer
 62
  256
370
   -1
100
AcDbLine
 10
-0.3706532681816158
 20
148.6319605408279
 11
15.1698729811
 21
148.6319605408279
  0
LINE
  5
280
100
AcDbEntity
  8
help-lines
  6
ByLayer
 62
  256
370
   -1
100
AcDbLine
 10
314.5451730611308
 20
297.224709437482
 11
314.5451730611308
 21
291.580151019
  0
LINE
  5
281
100
AcDbEntity
  8
help-lines
  6
ByLayer
 62
  256
370
   -1
100
AcDbLine
 10
314.4947345867757
 20
0.3389682416326533
 11
314.4947345867757
 21
5.91984898108
  0
CIRCLE
  5
282
100
AcDbEntity
  8
help-lines
  6
ByLayer
 62
  256
370
   -1
100
AcDbCircle
 10
14.5
 20
223
 40
3
  0
LINE
  5
283
100
AcDbEntity
  8
help-lines
  6
ByLayer
 62
  256
370
   -1
100
AcDbLine
 10
19.5
 20
148.75
 11
15.1698729811
 21
146.25
  0
LINE
  5
284
100
AcDbEntity
  8
help-lines
  6
ByLayer
 62
  256
370
   -1
100
AcDbLine
 10
19.5
 20
148.75
 11
15.1698729811
 21
151.25
  0
LINE
  5
285
100
AcDbEntity
  8
help-lines
  6
ByLayer
 62
  256
370
   -1
100
AcDbLine
 10
15.1698729811
 20
146.25
 11
15.1698729811
 21
151.25
  0
MTEXT
  5
286
100
AcDbEntity
  8
help-lines
  6
ByLayer
 62
  256
370
   -1
100
AcDbMText
 10
14.5
 20
223
 30
0
 40
4
 41
2.222222222222222
 71
    5
 72
    5
  1
B
  7
iso
210
0
220
0
230
1
 50
6.283185307179996
 73
    2
 44
0.96
  0
LINE
  5
287
100
AcDbEntity
  8
help-lines
  6
ByLayer
 62
  256
370
   -1
100
AcDbLine
 10
-0.4999999999999818
 20
297.25
 11
-0.5
 21
0.25
  0
LINE
  5
288
100
AcDbEntity
  8
help-lines
  6
ByLayer
 62
  256
370
   -1
100
AcDbLine
 10
419.5
 20
297.25
 11
-0.4999999999999818
 21
297.25
  0
LINE
  5
289
100
AcDbEntity
  8
help-lines
  6
ByLayer
 62
  256
370
   -1
100
AcDbLine
 10
124.5
 20
0.25
 11
124.5
 21
10.25
  0
LINE
  5
28A
100
AcDbEntity
  8
help-lines
  6
ByLayer
 62
  256
370
   -1
100
AcDbLine
 10
229.5
 20
0.25
 11
229.5
 21
10.25
  0
LINE
  5
28B
100
AcDbEntity
  8
help-lines
  6
ByLayer
 62
  256
370
   -1
100
AcDbLine
 10
124.499976
 20
10.249976
 11
121.999976
 21
5.91984898108
  0
LINE
  5
28C
100
AcDbEntity
  8
help-lines
  6
ByLayer
 62
  256
370
   -1
100
AcDbLine
 10
124.499976
 20
10.249976
 11
126.999976
 21
5.91984898108
  0
LINE
  5
28D
100
AcDbEntity
  8
help-lines
  6
ByLayer
 62
  256
370
   -1
100
AcDbLine
 10
121.999976
 20
5.91984898108
 11
126.999976
 21
5.91984898108
  0
CIRCLE
  5
28E
100
AcDbEntity
  8
help-lines
  6
ByLayer
 62
  256
370
   -1
100
AcDbCircle
 10
177
 20
5.25
 40
3
  0
LINE
  5
28F
100
AcDbEntity
  8
help-lines
  6
ByLayer
 62
  256
370
   -1
100
AcDbLine
 10
229.499976
 20
10.249976
 11
226.999976
 21
5.91984898108
  0
LINE
  5
290
100
AcDbEntity
  8
help-lines
  6
ByLayer
 62
  256
370
   -1
100
AcDbLine
 10
229.499976
 20
10.249976
 11
231.999976
 21
5.91984898108
  0
LINE
  5
291
100
AcDbEntity
  8
help-lines
  6
ByLayer
 62
  256
370
   -1
100
AcDbLine
 10
226.999976
 20
5.91984898108
 11
231.999976
 21
5.91984898108
  0
CIRCLE
  5
292
100
AcDbEntity
  8
help-lines
  6
ByLayer
 62
  256
370
   -1
100
AcDbCircle
 10
72
 20
5.25
 40
3
  0
MTEXT
  5
293
100
AcDbEntity
  8
help-lines
  6
ByLayer
 62
  256
370
   -1
100
AcDbMText
 10
72
 20
5.25
 30
0
 40
4
 41
0.8888888888888888
 71
    5
 72
    5
  1
1
  7
iso
210
0
220
0
230
1
 50
0
 73
    2
 44
0.96
  0
MTEXT
  5
294
100
AcDbEntity
  8
help-lines
  6
ByLayer
 62
  256
370
   -1
100
AcDbMText
 10
177
 20
5.25
 30
0
 40
4
 41
1.777777777777778
 71
    5
 72
    5
  1
2
  7
iso
210
0
220
0
230
1
 50
0
 73
    2
 44
0.96
  0
CIRCLE
  5
295
100
AcDbEntity
  8
help-lines
  6
ByLayer
 62
  256
370
   -1
100
AcDbCircle
 10
277.5
 20
5.25
 40
3
  0
MTEXT
  5
296
100
AcDbEntity
  8
help-lines
  6
ByLayer
 62
  256
370
   -1
100
AcDbMText
 10
277.5
 20
5.25
 30
0
 40
4
 41
1.777777777778026
 71
    5
 72
    5
  1
3
  7
iso
210
0
220
0
230
1
 50
0
 73
    2
 44
0.96
  0
LINE
  5
297
100
AcDbEntity
  8
help-lines
  6
ByLayer
 62
  256
370
   -1
100
AcDbLine
 10
314.5
 20
10.249976
 11
312
 21
5.91984898108
  0
LINE
  5
298
100
AcDbEntity
  8
help-lines
  6
ByLayer
 62
  256
370
   -1
100
AcDbLine
 10
314.5
 20
10.249976
 11
317
 21
5.91984898108
  0
LINE
  5
299
100
AcDbEntity
  8
help-lines
  6
ByLayer
 62
  256
370
   -1
100
AcDbLine
 10
312
 20
5.91984898108
 11
317
 21
5.91984898108
  0
CIRCLE
  5
29A
100
AcDbEntity
  8
help-lines
  6
ByLayer
 62
  256
370
   -1
100
AcDbCircle
 10
362.500024
 20
5.25
 40
3
  0
MTEXT
  5
29B
100
AcDbEntity
  8
help-lines
  6
ByLayer
 62
  256
370
   -1
100
AcDbMText
 10
362.500024
 20
5.25
 30
0
 40
4
 41
2.222222222222222
 71
    5
 72
    5
  1
4
  7
iso
210
0
220
0
230
1
 50
0
 73
    2
 44
0.96
  0
LINE
  5
29C
100
AcDbEntity
  8
help-lines
  6
ByLayer
 62
  256
370
   -1
100
AcDbLine
 10
419.5
 20
0.25
 11
419.5
 21
297.25
  0
LINE
  5
29D
100
AcDbEntity
  8
help-lines
  6
ByLayer
 62
  256
370
   -1
100
AcDbLine
 10
-0.4999999999999645
 20
0.25
 11
419.5
 21
0.25
  0
LINE
  5
29E
100
AcDbEntity
  8
help-lines
  6
ByLayer
 62
  256
370
   -1
100
AcDbLine
 10
124.5
 20
297.25
 11
124.5
 21
287.25
  0
LINE
  5
29F
100
AcDbEntity
  8
help-lines
  6
ByLayer
 62
  256
370
   -1
100
AcDbLine
 10
229.5
 20
297.25
 11
229.5
 21
287.25
  0
LINE
  5
2A0
100
AcDbEntity
  8
help-lines
  6
ByLayer
 62
  256
370
   -1
100
AcDbLine
 10
124.499976
 20
287.250024
 11
121.999976
 21
291.580151019
  0
LINE
  5
2A1
100
AcDbEntity
  8
help-lines
  6
ByLayer
 62
  256
370
   -1
100
AcDbLine
 10
124.499976
 20
287.250024
 11
126.999976
 21
291.580151019
  0
LINE
  5
2A2
100
AcDbEntity
  8
help-lines
  6
ByLayer
 62
  256
370
   -1
100
AcDbLine
 10
121.999976
 20
291.580151019
 11
126.999976
 21
291.580151019
  0
CIRCLE
  5
2A3
100
AcDbEntity
  8
help-lines
  6
ByLayer
 62
  256
370
   -1
100
AcDbCircle
 10
177
 20
292.25
 40
3
  0
LINE
  5
2A4
100
AcDbEntity
  8
help-lines
  6
ByLayer
 62
  256
370
   -1
100
AcDbLine
 10
229.499976
 20
287.250024
 11
226.999976
 21
291.580151019
  0
LINE
  5
2A5
100
AcDbEntity
  8
help-lines
  6
ByLayer
 62
  256
370
   -1
100
AcDbLine
 10
229.499976
 20
287.250024
 11
231.999976
 21
291.580151019
  0
LINE
  5
2A6
100
AcDbEntity
  8
help-lines
  6
ByLayer
 62
  256
370
   -1
100
AcDbLine
 10
226.999976
 20
291.580151019
 11
231.999976
 21
291.580151019
  0
CIRCLE
  5
2A7
100
AcDbEntity
  8
help-lines
  6
ByLayer
 62
  256
370
   -1
100
AcDbCircle
 10
72
 20
292.25
 40
3
  0
MTEXT
  5
2A8
100
AcDbEntity
  8
help-lines
  6
ByLayer
 62
  256
370
   -1
100
AcDbMText
 10
72
 20
292.25
 30
0
 40
4
 41
0.8888888888888888
 71
    5
 72
    5
  1
1
  7
iso
210
0
220
0
230
1
 50
0
 73
    2
 44
0.96
  0
MTEXT
  5
2A9
100
AcDbEntity
  8
help-lines
  6
ByLayer
 62
  256
370
   -1
100
AcDbMText
 10
177
 20
292.25
 30
0
 40
4
 41
1.777777777777778
 71
    5
 72
    5
  1
2
  7
iso
210
0
220
0
230
1
 50
0
 73
    2
 44
0.96
  0
CIRCLE
  5
2AA
100
AcDbEntity
  8
help-lines
  6
ByLayer
 62
  256
370
   -1
100
AcDbCircle
 10
277.5
 20
292.25
 40
3
  0
MTEXT
  5
2AB
100
AcDbEntity
  8
help-lines
  6
ByLayer
 62
  256
370
   -1
100
AcDbMText
 10
277.5
 20
292.25
 30
0
 40
4
 41
1.777777777778026
 71
    5
 72
    5
  1
3
  7
iso
210
0
220
0
230
1
 50
0
 73
    2
 44
0.96
  0
LINE
  5
2AC
100
AcDbEntity
  8
help-lines
  6
ByLayer
 62
  256
370
   -1
100
AcDbLine
 10
314.5
 20
287.250024
 11
312
 21
291.580151019
  0
LINE
  5
2AD
100
AcDbEntity
  8
help-lines
  6
ByLayer
 62
  256
370
   -1
100
AcDbLine
 10
314.5
 20
287.250024
 11
317
 21
291.580151019
  0
LINE
  5
2AE
100
AcDbEntity
  8
help-lines
  6
ByLayer
 62
  256
370
   -1
100
AcDbLine
 10
312
 20
291.580151019
 11
317
 21
291.580151019
  0
CIRCLE
  5
2AF
100
AcDbEntity
  8
help-lines
  6
ByLayer
 62
  256
370
   -1
100
AcDbCircle
 10
362.500024
 20
292.25
 40
3
  0
MTEXT
  5
2B0
100
AcDbEntity
  8
help-lines
  6
ByLayer
 62
  256
370
   -1
100
AcDbMText
 10
362.500024
 20
292.25
 30
0
 40
4
 41
2.222222222222222
 71
    5
 72
    5
  1
4
  7
iso
210
0
220
0
230
1
 50
0
 73
    2
 44
0.96
  0
CIRCLE
  5
2B1
100
AcDbEntity
  8
help-lines
  6
ByLayer
 62
  256
370
   -1
100
AcDbCircle
 10
16.12865853658537
 20
94.51646341463413
 40
2.7
  0
MTEXT
  5
2B2
100
AcDbEntity
  8
help-lines
  6
ByLayer
 62
  256
370
   -1
100
AcDbMText
 10
16.12865853658537
 20
94.51646341463413
 30
0
 40
3.6
 41
2.4
 71
    5
 72
    5
  1
A
  7
iso
210
0
220
0
230
1
 50
6.283185307179996
 73
    2
 44
0.96
  0
INSERT
  5
2B3
100
AcDbEntity
  8
schematic
  6
ByLayer
 62
  256
370
   -1
100
AcDbBlockReference
  2
Terminal-in
 10
42.26447486311597
 20
219.8488103534096
 30
0
 41
0.9
 42
0.9
 43
0
 50
0
 70
    1
 71
    1
 44
0
 45
0
  0
INSERT
  5
2B4
100
AcDbEntity
  8
schematic
  6
ByLayer
 62
  256
370
   -1
100
AcDbBlockReference
  2
Terminal-in
 10
69.12394261821805
 20
219.6998497003483
 30
0
 41
0.9
 42
0.9
 43
0
 50
0
 70
    1
 71
    1
 44
0
 45
0
  0
LINE
  5
2B5
100
AcDbEntity
  8
schematic
  6
ByLayer
 62
  256
370
   -1
100
AcDbLine
 10
69.10721363862628
 20
139.6588103534095
 11
69.10721363862618
 21
226.3583596011922
  0
LINE
  5
2B6
100
AcDbEntity
  8
schematic
  6
ByLayer
 62
  256
370
   -1
100
AcDbLine
 10
42.35539323046298
 20
139.6588103534095
 11
42.35539323046298
 21
226.508369440079
  0
INSERT
  5
2B7
100
AcDbEntity
  8
schematic
  6
ByLayer
 62
  256
370
   -1
100
AcDbBlockReference
  2
Terminal-in
 10
97.0889777202589
 20
220.1327665983075
 30
0
 41
0.9
 42
0.9
 43
0
 50
0
 70
    1
 71
    1
 44
0
 45
0
  0
INSERT
  5
2B8
100
AcDbEntity
  8
schematic
  6
ByLayer
 62
  256
370
   -1
100
AcDbBlockReference
  2
Terminal-in
 10
117.1986658835242
 20
219.9838059452463
 30
0
 41
0.9
 42
0.9
 43
0
 50
0
 70
    1
 71
    1
 44
0
 45
0
  0
INSERT
  5
2B9
100
AcDbEntity
  8
schematic
  6
ByLayer
 62
  256
370
   -1
100
AcDbBlockReference
  2
Terminal-in
 10
144.5701858835242
 20
220.3934477411646
 30
0
 41
0.9
 42
0.9
 43
0
 50
0
 70
    1
 71
    1
 44
0
 45
0
  0
INSERT
  5
2BA
100
AcDbEntity
  8
schematic
  6
ByLayer
 62
  256
370
   -1
100
AcDbBlockReference
  2
Terminal-in
 10
171.7555050671978
 20
221.175491169736
 30
0
 41
0.9
 42
0.9
 43
0
 50
0
 70
    1
 71
    1
 44
0
 45
0
  0
INSERT
  5
2BB
100
AcDbEntity
  8
schematic
  6
ByLayer
 62
  256
370
   -1
100
AcDbBlockReference
  2
Terminal-in
 10
199.3132258835242
 20
222.516137047287
 30
0
 41
0.9
 42
0.9
 43
0
 50
0
 70
    1
 71
    1
 44
0
 45
0
  0
INSERT
  5
2BC
100
AcDbEntity
  8
schematic
  6
ByLayer
 62
  256
370
   -1
100
AcDbBlockReference
  2
Terminal-in
 10
225.9399426182182
 20
222.1344253738176
 30
0
 41
0.9
 42
0.9
 43
0
 50
0
 70
    1
 71
    1
 44
0
 45
0
  0
INSERT
  5
2BD
100
AcDbEntity
  8
schematic
  6
ByLayer
 62
  256
370
   -1
100
AcDbBlockReference
  2
Terminal-in
 10
253.3231001692387
 20
221.6945259452462
 30
0
 41
0.9
 42
0.9
 43
0
 50
0
 70
    1
 71
    1
 44
0
 45
0
  0
INSERT
  5
2BE
100
AcDbEntity
  8
schematic
  6
ByLayer
 62
  256
370
   -1
100
AcDbBlockReference
  2
Terminal-in
 10
280.4153189447489
 20
222.1274428432054
 30
0
 41
0.9
 42
0.9
 43
0
 50
0
 70
    1
 71
    1
 44
0
 45
0
  0
LINE
  5
2BF
100
AcDbEntity
  8
schematic
  6
ByLayer
 62
  256
370
   -1
100
AcDbLine
 10
199.4128724141366
 20
139.6588103534095
 11
199.4128724141366
 21
229.1759500549372
  0
LINE
  5
2C0
100
AcDbEntity
  8
schematic
  6
ByLayer
 62
  256
370
   -1
100
AcDbLine
 10
226.0046764957693
 20
139.6588103534095
 11
226.0046764957694
 21
228.7933747351379
  0
LINE
  5
2C1
100
AcDbEntity
  8
schematic
  6
ByLayer
 62
  256
370
   -1
100
AcDbLine
 10
253.3529213937286
 20
139.6588103534095
 11
253.3529213937286
 21
228.3530169201434
  0
LINE
  5
2C2
100
AcDbEntity
  8
schematic
  6
ByLayer
 62
  256
370
   -1
100
AcDbLine
 10
280.4102275161776
 20
139.6588103534095
 11
280.4102275161775
 21
228.7858805064309
  0
INSERT
  5
2C3
100
AcDbEntity
  8
schematic
  6
ByLayer
 62
  256
370
   -1
100
AcDbBlockReference
  2
Switch
 10
41.37679156515692
 20
252.2466177330019
 30
0
 41
0.9
 42
0.9
 43
0
 50
0
 70
    1
 71
    1
 44
0
 45
0
  0
INSERT
  5
2C4
100
AcDbEntity
  8
schematic
  6
ByLayer
 62
  256
370
   -1
100
AcDbBlockReference
  2
Switch-4
 10
116.0567311896467
 20
252.1022830064711
 30
0
 41
0.9
 42
0.9
 43
0
 50
0
 70
    1
 71
    1
 44
0
 45
0
  0
INSERT
  5
2C5
100
AcDbEntity
  8
schematic
  6
ByLayer
 62
  256
370
   -1
100
AcDbBlockReference
  2
Switch-0
 10
198.7182560876064
 20
252.3583091289206
 30
0
 41
0.9
 42
0.9
 43
0
 50
0
 70
    1
 71
    1
 44
0
 45
0
  0
INSERT
  5
2C6
100
AcDbEntity
  8
schematic
  6
ByLayer
 62
  256
370
   -1
100
AcDbBlockReference
  2
Switch-1
 10
225.467865361076
 20
252.2149345003493
 30
0
 41
0.9
 42
0.9
 43
0
 50
0
 70
    1
 71
    1
 44
0
 45
0
  0
INSERT
  5
2C7
100
AcDbEntity
  8
schematic
  6
ByLayer
 62
  256
370
   -1
100
AcDbBlockReference
  2
Switch-2
 10
252.8766255243414
 20
252.3341030227983
 30
0
 41
0.9
 42
0.9
 43
0
 50
0
 70
    1
 71
    1
 44
0
 45
0
  0
INSERT
  5
2C8
100
AcDbEntity
  8
schematic
  6
ByLayer
 62
  256
370
   -1
100
AcDbBlockReference
  2
Switch-5
 10
143.99430167128
 20
252.0426987452474
 30
0
 41
0.9
 42
0.9
 43
0
 50
0
 70
    1
 71
    1
 44
0
 45
0
  0
INSERT
  5
2C9
100
AcDbEntity
  8
schematic
  6
ByLayer
 62
  256
370
   -1
100
AcDbBlockReference
  2
Switch-6
 10
171.403061834546
 20
252.0426987452483
 30
0
 41
0.9
 42
0.9
 43
0
 50
0
 70
    1
 71
    1
 44
0
 45
0
  0
INSERT
  5
2CA
100
AcDbEntity
  8
schematic
  6
ByLayer
 62
  256
370
   -1
100
AcDbBlockReference
  2
junction-18
 10
280.3316740467904
 20
215.9640503534103
 30
0
 41
0.9
 42
0.9
 43
0
 50
0
 70
    1
 71
    1
 44
0
 45
0
  0
LINE
  5
2CB
100
AcDbEntity
  8
schematic
  6
ByLayer
 62
  256
370
   -1
100
AcDbLine
 10
30.80876057740169
 20
100.2729736187156
 11
30.80876057740169
 21
139.5497083125929
  0
INSERT
  5
2CC
100
AcDbEntity
  8
schematic
  6
ByLayer
 62
  256
370
   -1
100
AcDbBlockReference
  2
junction-4
 10
280.3123091618935
 20
252.1519555654928
 30
0
 41
0.9
 42
0.9
 43
0
 50
0
 70
    1
 71
    1
 44
0
 45
0
  0
INSERT
  5
2CD
100
AcDbEntity
  8
schematic
  6
ByLayer
 62
  256
370
   -1
100
AcDbBlockReference
  2
junction-3
 10
253.0084172983831
 20
252.0756877111255
 30
0
 41
0.9
 42
0.9
 43
0
 50
0
 70
    1
 71
    1
 44
0
 45
0
  0
INSERT
  5
2CE
100
AcDbEntity
  8
schematic
  6
ByLayer
 62
  256
370
   -1
100
AcDbBlockReference
  2
junction-2
 10
226.1621325610767
 20
252.6095626916969
 30
0
 41
0.9
 42
0.9
 43
0
 50
0
 70
    1
 71
    1
 44
0
 45
0
  0
INSERT
  5
2CF
100
AcDbEntity
  8
schematic
  6
ByLayer
 62
  256
370
   -1
100
AcDbBlockReference
  2
junction-1
 10
199.4683835325052
 20
252.5332948373295
 30
0
 41
0.9
 42
0.9
 43
0
 50
0
 70
    1
 71
    1
 44
0
 45
0
  0
INSERT
  5
2D0
100
AcDbEntity
  8
schematic
  6
ByLayer
 62
  256
370
   -1
100
AcDbBlockReference
  2
junction-6
 10
171.8594202515253
 20
252.3807591285949
 30
0
 41
0.9
 42
0.9
 43
0
 50
0
 70
    1
 71
    1
 44
0
 45
0
  0
INSERT
  5
2D1
100
AcDbEntity
  8
schematic
  6
ByLayer
 62
  256
370
   -1
100
AcDbBlockReference
  2
junction-5
 10
144.7080640967499
 20
252.1519555654933
 30
0
 41
0.9
 42
0.9
 43
0
 50
0
 70
    1
 71
    1
 44
0
 45
0
  0
INSERT
  5
2D2
100
AcDbEntity
  8
schematic
  6
ByLayer
 62
  256
370
   -1
100
AcDbBlockReference
  2
junction-12
 10
116.7940293983007
 20
252.3807591285952
 30
0
 41
0.9
 42
0.9
 43
0
 50
0
 70
    1
 71
    1
 44
0
 45
0
  0
INSERT
  5
2D3
100
AcDbEntity
  8
schematic
  6
ByLayer
 62
  256
370
   -1
100
AcDbBlockReference
  2
junction
 10
68.50217736107648
 20
252.3998260921895
 30
0
 41
0.9
 42
0.9
 43
0
 50
0
 70
    1
 71
    1
 44
0
 45
0
  0
INSERT
  5
2D4
100
AcDbEntity
  8
schematic
  6
ByLayer
 62
  256
370
   -1
100
AcDbBlockReference
  2
junction-0
 10
41.92759685495349
 20
252.6381631370875
 30
0
 41
0.9
 42
0.9
 43
0
 50
0
 70
    1
 71
    1
 44
0
 45
0
  0
LINE
  5
2D5
100
AcDbEntity
  8
schematic
  6
ByLayer
 62
  256
370
   -1
100
AcDbLine
 10
117.1266585365854
 20
139.5497083125929
 11
117.1266585365854
 21
226.6432737261479
  0
INSERT
  5
2D6
100
AcDbEntity
  8
schematic
  6
ByLayer
 62
  256
370
   -1
100
AcDbBlockReference
  2
mcp2014x-connector-0
 10
66.07865853658537
 20
132.7664634146341
 30
0
 41
0.9
 42
0.9
 43
0
 50
0
 70
    1
 71
    1
 44
0
 45
0
  0
INSERT
  5
2D7
100
AcDbEntity
  8
schematic
  6
ByLayer
 62
  256
370
   -1
100
AcDbBlockReference
  2
mcp2014x-connector
 10
39.97865853658536
 20
132.7664634146341
 30
0
 41
0.9
 42
0.9
 43
0
 50
0
 70
    1
 71
    1
 44
0
 45
0
  0
INSERT
  5
2D8
100
AcDbEntity
  8
schematic
  6
ByLayer
 62
  256
370
   -1
100
AcDbBlockReference
  2
mcp2014x-connector-1
 10
114.6786585365854
 20
132.7664634146341
 30
0
 41
0.9
 42
0.9
 43
0
 50
0
 70
    1
 71
    1
 44
0
 45
0
  0
INSERT
  5
2D9
100
AcDbEntity
  8
schematic
  6
ByLayer
 62
  256
370
   -1
100
AcDbBlockReference
  2
mcp2014x-connector-2
 10
196.5786585365854
 20
132.7664634146341
 30
0
 41
0.9
 42
0.9
 43
0
 50
0
 70
    1
 71
    1
 44
0
 45
0
  0
INSERT
  5
2DA
100
AcDbEntity
  8
schematic
  6
ByLayer
 62
  256
370
   -1
100
AcDbBlockReference
  2
mcp2014x-connector-3
 10
223.5786585365854
 20
132.7664634146341
 30
0
 41
0.9
 42
0.9
 43
0
 50
0
 70
    1
 71
    1
 44
0
 45
0
  0
INSERT
  5
2DB
100
AcDbEntity
  8
schematic
  6
ByLayer
 62
  256
370
   -1
100
AcDbBlockReference
  2
mcp2014x-connector-4
 10
250.5786585365854
 20
132.7664634146341
 30
0
 41
0.9
 42
0.9
 43
0
 50
0
 70
    1
 71
    1
 44
0
 45
0
  0
INSERT
  5
2DC
100
AcDbEntity
  8
schematic
  6
ByLayer
 62
  256
370
   -1
100
AcDbBlockReference
  2
mcp2014x-connector-5
 10
277.5786585365854
 20
132.7664634146341
 30
0
 41
0.9
 42
0.9
 43
0
 50
0
 70
    1
 71
    1
 44
0
 45
0
  0
MTEXT
  5
2DD
100
AcDbEntity
  8
labels
  6
ByLayer
 62
  256
370
   -1
100
AcDbMText
 10
42.05153211829987
 20
137.1706562766755
 30
0
 40
2.7
 41
0.6000000000000001
 71
    1
 72
    1
  1
1
  7
standard
210
0
220
0
230
1
 50
0
 73
    2
 44
1
  0
MTEXT
  5
2DE
100
AcDbEntity
  8
labels
  6
ByLayer
 62
  256
370
   -1
100
AcDbMText
 10
68.32342457740208
 20
137.4804944350429
 30
0
 40
2.7
 41
1.2
 71
    1
 72
    1
  1
2
  7
standard
210
0
220
0
230
1
 50
0
 73
    2
 44
1
  0
MTEXT
  5
2DF
100
AcDbEntity
  8
labels
  6
ByLayer
 62
  256
370
   -1
100
AcDbMText
 10
116.8845974753616
 20
137.4804944350429
 30
0
 40
2.7
 41
1.200000000000168
 71
    1
 72
    1
  1
3
  7
standard
210
0
220
0
230
1
 50
0
 73
    2
 44
1
  0
MTEXT
  5
2E0
100
AcDbEntity
  8
labels
  6
ByLayer
 62
  256
370
   -1
100
AcDbMText
 10
198.9619173120967
 20
137.3315337819816
 30
0
 40
2.7
 41
1.5
 71
    1
 72
    1
  1
4
  7
standard
210
0
220
0
230
1
 50
0
 73
    2
 44
1
  0
MTEXT
  5
2E1
100
AcDbEntity
  8
labels
  6
ByLayer
 62
  256
370
   -1
100
AcDbMText
 10
225.7748348631173
 20
137.3315337819816
 30
0
 40
2.7
 41
1.200000000000168
 71
    1
 72
    1
  1
5
  7
standard
210
0
220
0
230
1
 50
0
 73
    2
 44
1
  0
INSERT
  5
2E2
100
AcDbEntity
  8
schematic
  6
ByLayer
 62
  256
370
   -1
100
AcDbBlockReference
  2
r1
 10
240.2612583733228
 20
167.6263184350437
 30
0
 41
0.9
 42
0.9
 43
0
 50
90
 70
    1
 71
    1
 44
0
 45
0
  0
INSERT
  5
2E3
100
AcDbEntity
  8
schematic
  6
ByLayer
 62
  256
370
   -1
100
AcDbBlockReference
  2
diodo_bobina
 10
243.5805783976189
 20
172.6840688648244
 30
0
 41
0.378
 42
0.378
 43
0
 50
0
 70
    1
 71
    1
 44
0
 45
0
  0
LINE
  5
2E4
100
AcDbEntity
  8
schematic
  6
ByLayer
 62
  256
370
   -1
100
AcDbLine
 10
240.224018210057
 20
139.5497083125929
 11
240.224018210057
 21
170.8317490309618
  0
LINE
  5
2E5
100
AcDbEntity
  8
schematic
  6
ByLayer
 62
  256
370
   -1
100
AcDbLine
 10
240.3431867325059
 20
179.4562181901456
 11
240.3431867325059
 21
206.4562181901456
  0
LINE
  5
2E6
100
AcDbEntity
  8
schematic
  6
ByLayer
 62
  256
370
   -1
100
AcDbLine
 10
240.3729788631184
 20
206.7284898636155
 11
225.7748348631183
 21
221.6245551697381
  0
LINE
  5
2E7
100
AcDbEntity
  8
schematic
  6
ByLayer
 62
  256
370
   -1
100
AcDbLine
 10
240.2240182100572
 20
207.0264111697379
 11
253.0346343733226
 21
221.4755945166769
  0
INSERT
  5
2E8
100
AcDbEntity
  8
schematic
  6
ByLayer
 62
  256
370
   -1
100
AcDbBlockReference
  2
mcp2014x-connector-5
 10
237.0786585365854
 20
132.7664634146341
 30
0
 41
0.9
 42
0.9
 43
0
 50
0
 70
    1
 71
    1
 44
0.9
 45
0.9
  0
MTEXT
  5
2E9
100
AcDbEntity
  8
labels
  6
ByLayer
 62
  256
370
   -1
100
AcDbMText
 10
252.7367130671976
 20
137.4804944350423
 30
0
 40
2.7
 41
1.200000000000168
 71
    1
 72
    1
  1
6
  7
standard
210
0
220
0
230
1
 50
0
 73
    2
 44
1
  0
MTEXT
  5
2EA
100
AcDbEntity
  8
labels
  6
ByLayer
 62
  256
370
   -1
100
AcDbMText
 10
239.6281755978099
 20
137.1825731289199
 30
0
 40
2.7
 41
1.200000000000168
 71
    1
 72
    1
  1
9
  7
standard
210
0
220
0
230
1
 50
0
 73
    2
 44
1
  0
MTEXT
  5
2EB
100
AcDbEntity
  8
labels
  6
ByLayer
 62
  256
370
   35
100
AcDbMText
 10
175.8235564957691
 20
121.4751368840219
 30
0
 40
4.5
 41
28.00000000000028
 71
    1
 72
    1
  1
MCP2105X
  7
standard
210
0
220
0
230
1
 50
0
 73
    2
 44
1
  0
MTEXT
  5
2EC
100
AcDbEntity
  8
labels
  6
ByLayer
 62
  256
370
   -1
100
AcDbMText
 10
279.6985912712794
 20
137.3128255370832
 30
0
 40
2.7
 41
1.2
 71
    1
 72
    1
  1
7
  7
standard
210
0
220
0
230
1
 50
0
 73
    2
 44
1
  0
INSERT
  5
2ED
100
AcDbEntity
  8
schematic
  6
ByLayer
 62
  256
370
   -1
100
AcDbBlockReference
  2
mcp2014x-connector-5
 10
284.3180258822176
 20
132.7401633486749
 30
0
 41
0.9
 42
0.9
 43
0
 50
0
 70
    1
 71
    1
 44
0
 45
0
  0
MTEXT
  5
2EE
100
AcDbEntity
  8
labels
  6
ByLayer
 62
  256
370
   -1
100
AcDbMText
 10
286.5363762211028
 20
136.7837077639282
 30
0
 40
2.7
 41
1.2
 71
    1
 72
    1
  1
8
  7
standard
210
0
220
0
230
1
 50
0
 73
    2
 44
1
  0
LINE
  5
2EF
100
AcDbEntity
  8
schematic
  6
ByLayer
 62
  256
370
   -1
100
AcDbLine
 10
280.3666118742019
 20
151.7395289339475
 11
287.0049659183358
 21
151.7395289339475
  0
LINE
  5
2F0
100
AcDbEntity
  8
schematic
  6
ByLayer
 62
  256
370
   -1
100
AcDbLine
 10
287.0049659183358
 20
139.6342950887621
 11
287.0049659183358
 21
151.7395289339475
  0
INSERT
  5
2F1
100
AcDbEntity
  8
schematic
  6
ByLayer
 62
  256
370
   -1
100
AcDbBlockReference
  2
junction
 10
280.405661015638
 20
151.7785780753835
 30
0
 41
0.9
 42
0.9
 43
0
 50
0
 70
    1
 71
    1
 44
0.9
 45
0.9
  0
LINE
  5
2F2
100
AcDbEntity
  8
schematic
  6
ByLayer
 62
  256
370
   -1
100
AcDbLine
 10
226.5716626365039
 20
221.1507485725119
 11
227.5026667181365
 21
218.0086097970016
  0
LINE
  5
2F3
100
AcDbEntity
  8
schematic
  6
ByLayer
 62
  256
370
   -1
100
AcDbLine
 10
227.5026667181365
 20
218.0086097970016
 11
229.7583366791282
 21
220.3859523704776
  0
LINE
  5
2F4
100
AcDbEntity
  8
schematic
  6
ByLayer
 62
  256
370
   -1
100
AcDbLine
 10
229.7583366791282
 20
220.3859523704776
 11
226.5716626365039
 21
221.1507485725119
  0
LINE
  5
2F5
100
AcDbEntity
  8
schematic
  6
ByLayer
 62
  256
370
   -1
100
AcDbLine
 10
252.9369161849121
 20
221.1824399514506
 11
249.3022762502183
 21
219.9907547269609
  0
LINE
  5
2F6
100
AcDbEntity
  8
schematic
  6
ByLayer
 62
  256
370
   -1
100
AcDbLine
 10
249.3022762502183
 20
219.9907547269609
 11
252.1516258952879
 21
217.4389068221514
  0
LINE
  5
2F7
100
AcDbEntity
  8
schematic
  6
ByLayer
 62
  256
370
   -1
100
AcDbLine
 10
252.1516258952879
 20
217.4389068221514
 11
252.9369161849121
 21
221.1824399514506
  0
LINE
  5
2F8
100
AcDbEntity
  8
schematic
  6
ByLayer
 62
  256
370
   -1
100
AcDbLine
 10
318.8024128223
 20
139.6588103534095
 11
318.8024128223
 21
192.8945964758588
  0
INSERT
  5
2F9
100
AcDbEntity
  8
schematic
  6
ByLayer
 62
  256
370
   -1
100
AcDbBlockReference
  2
junction-14
 10
318.9886136386266
 20
216.1073377003487
 30
0
 41
0.9
 42
0.9
 43
0
 50
0
 70
    1
 71
    1
 44
0
 45
0
  0
INSERT
  5
2FA
100
AcDbEntity
  8
schematic
  6
ByLayer
 62
  256
370
   -1
100
AcDbBlockReference
  2
r1
 10
319.0375088092428
 20
193.3875737754526
 30
0
 41
0.9
 42
0.9
 43
0
 50
90
 70
    1
 71
    1
 44
0
 45
0
  0
LINE
  5
2FB
100
AcDbEntity
  8
schematic
  6
ByLayer
 62
  256
370
   -1
100
AcDbLine
 10
318.9421739912843
 20
207.0204527436165
 11
318.9421739912843
 21
216.0204527436165
  0
INSERT
  5
2FC
100
AcDbEntity
  8
schematic
  6
ByLayer
 62
  256
370
   -1
100
AcDbBlockReference
  2
mcp2014x-connector-7
 10
316.2786585365854
 20
132.7664634146341
 30
0
 41
0.9
 42
0.9
 43
0
 50
0
 70
    1
 71
    1
 44
0
 45
0
  0
INSERT
  5
2FD
100
AcDbEntity
  8
schematic
  6
ByLayer
 62
  256
370
   -1
100
AcDbBlockReference
  2
diodo_bobina
 10
322.9462363455651
 20
198.2305825277771
 30
0
 41
0.36
 42
0.36
 43
0
 50
0
 70
    1
 71
    1
 44
0.36
 45
0.36
  0
MTEXT
  5
2FE
100
AcDbEntity
  8
labels
  6
ByLayer
 62
  256
370
   -1
100
AcDbMText
 10
317.3214820859736
 20
136.8540267256547
 30
0
 40
2.7
 41
3.300000000000335
 71
    1
 72
    1
  1
65
  7
standard
210
0
220
0
230
1
 50
0
 73
    2
 44
1
  0
LINE
  5
2FF
100
AcDbEntity
  8
schematic
  6
ByLayer
 62
  256
370
   -1
100
AcDbLine
 10
368.4786585365854
 20
100.2729736187156
 11
30.80876057740169
 21
100.2729736187156
  0
LINE
  5
300
100
AcDbEntity
  8
schematic
  6
ByLayer
 62
  256
370
   -1
100
AcDbLine
 10
30.80876057740169
 20
139.5497083125929
 11
368.4786585365854
 21
139.5497083125929
  0
MTEXT
  5
301
100
AcDbEntity
  8
labels
  6
ByLayer
 62
  256
370
   -1
100
AcDbMText
 10
236.8872995814863
 20
175.7744661574931
 30
0
 40
2.7
 41
3.9
 71
    1
 72
    1
  1
RP
  7
standard
210
0
220
0
230
1
 50
0
 73
    2
 44
1
  0
MTEXT
  5
302
100
AcDbEntity
  8
labels
  6
ByLayer
 62
  256
370
   -1
100
AcDbMText
 10
34.50004629168743
 20
231.2790674962669
 30
0
 40
5.4
 41
1.2
 71
    1
 72
    1
  1
1
  7
standard
210
0
220
0
230
1
 50
0
 73
    2
 44
1
  0
MTEXT
  5
303
100
AcDbEntity
  8
labels
  6
ByLayer
 62
  256
370
   -1
100
AcDbMText
 10
59.22984221005487
 20
231.3954430064713
 30
0
 40
5.4
 41
2.4
 71
    1
 72
    1
  1
2
  7
standard
210
0
220
0
230
1
 50
0
 73
    2
 44
1
  0
MTEXT
  5
304
100
AcDbEntity
  8
labels
  6
ByLayer
 62
  256
370
   -1
100
AcDbMText
 10
89.92867769740201
 20
231.9981750489206
 30
0
 40
5.4
 41
2.400000000000335
 71
    1
 72
    1
  1
3
  7
standard
210
0
220
0
230
1
 50
0
 73
    2
 44
1
  0
MTEXT
  5
305
100
AcDbEntity
  8
labels
  6
ByLayer
 62
  256
370
   -1
100
AcDbMText
 10
109.4723153790348
 20
231.5215009591246
 30
0
 40
5.4
 41
3
 71
    1
 72
    1
  1
4
  7
standard
210
0
220
0
230
1
 50
0
 73
    2
 44
1
  0
MTEXT
  5
306
100
AcDbEntity
  8
labels
  6
ByLayer
 62
  256
370
   -1
100
AcDbMText
 10
137.4054170410757
 20
232.2841795027981
 30
0
 40
5.4
 41
2.400000000000335
 71
    1
 72
    1
  1
5
  7
standard
210
0
220
0
230
1
 50
0
 73
    2
 44
1
  0
MTEXT
  5
307
100
AcDbEntity
  8
labels
  6
ByLayer
 62
  256
370
   -1
100
AcDbMText
 10
164.3851705235247
 20
232.5701839566757
 30
0
 40
5.4
 41
2.400000000000335
 71
    1
 72
    1
  1
6
  7
standard
210
0
220
0
230
1
 50
0
 73
    2
 44
1
  0
MTEXT
  5
308
100
AcDbEntity
  8
labels
  6
ByLayer
 62
  256
370
   -1
100
AcDbMText
 10
192.1276025496472
 20
233.4281973183083
 30
0
 40
5.4
 41
2.4
 71
    1
 72
    1
  1
7
  7
standard
210
0
220
0
230
1
 50
0
 73
    2
 44
1
  0
MTEXT
  5
309
100
AcDbEntity
  8
labels
  6
ByLayer
 62
  256
370
   -1
100
AcDbMText
 10
218.7260167602596
 20
234.0002062260634
 30
0
 40
5.4
 41
2.4
 71
    1
 72
    1
  1
8
  7
standard
210
0
220
0
230
1
 50
0
 73
    2
 44
1
  0
MTEXT
  5
30A
100
AcDbEntity
  8
labels
  6
ByLayer
 62
  256
370
   -1
100
AcDbMText
 10
246.2777791504638
 20
233.5235321362675
 30
0
 40
5.4
 41
2.400000000000335
 71
    1
 72
    1
  1
9
  7
standard
210
0
220
0
230
1
 50
0
 73
    2
 44
1
  0
MTEXT
  5
30B
100
AcDbEntity
  8
labels
  6
ByLayer
 62
  256
370
   -1
100
AcDbMText
 10
270.1114836402598
 20
234.0955410440226
 30
0
 40
5.4
 41
5.4
 71
    1
 72
    1
  1
10
  7
standard
210
0
220
0
230
1
 50
0
 73
    2
 44
1
  0
INSERT
  5
30C
100
AcDbEntity
  8
schematic
  6
ByLayer
 62
  256
370
   -1
100
AcDbBlockReference
  2
mcp2014x-connector
 10
330.6786585365854
 20
101.2664634146341
 30
0
 41
0.9
 42
0.9
 43
0
 50
0
 70
    1
 71
    1
 44
0.9
 45
0.9
  0
LINE
  5
30D
100
AcDbEntity
  8
schematic
  6
ByLayer
 62
  256
370
   -1
100
AcDbLine
 10
333.3786585365854
 20
121.9664634146341
 11
333.3786585365854
 21
106.8246850700492
  0
MTEXT
  5
30E
100
AcDbEntity
  8
labels
  6
ByLayer
 62
  256
370
   -1
100
AcDbMText
 10
331.6024412239325
 20
105.4888716170832
 30
0
 40
2.7
 41
3.600000000000168
 71
    1
 72
    1
  1
64
  7
standard
210
0
220
0
230
1
 50
0
 73
    2
 44
1
  0
LINE
  5
30F
100
AcDbEntity
  8
schematic
  6
ByLayer
 62
  256
370
   -1
100
AcDbLine
 10
318.9786585365854
 20
132.7664634146341
 11
318.9786585365854
 21
129.1664634146341
  0
LINE
  5
310
100
AcDbEntity
  8
schematic
  6
ByLayer
 62
  256
370
   -1
100
AcDbLine
 10
318.9786585365854
 20
125.5664634146341
 11
318.9786585365854
 21
121.9664634146341
  0
LINE
  5
311
100
AcDbEntity
  8
schematic
  6
ByLayer
 62
  256
370
   -1
100
AcDbLine
 10
318.9786585365854
 20
125.5664634146341
 11
320.7786585365854
 21
129.1664634146341
  0
MTEXT
  5
312
100
AcDbEntity
  8
labels
  6
ByLayer
 62
  256
370
   -1
100
AcDbMText
 10
314.5851762182232
 20
128.3045182064724
 30
0
 40
2.7
 41
3.9
 71
    1
 72
    1
  1
RP
  7
standard
210
0
220
0
230
1
 50
0
 73
    2
 44
1
  0
LINE
  5
313
100
AcDbEntity
  8
schematic
  6
ByLayer
 62
  256
370
   -1
100
AcDbLine
 10
239.7786585365854
 20
132.7664634146341
 11
239.7786585365854
 21
126.4664634146341
  0
LINE
  5
314
100
AcDbEntity
  8
schematic
  6
ByLayer
 62
  256
370
   -1
100
AcDbLine
 10
239.7786585365854
 20
120.1664634146341
 11
243.3786585365854
 21
126.4664634146341
  0
INSERT
  5
315
100
AcDbEntity
  8
schematic
  6
ByLayer
 62
  256
370
   -1
100
AcDbBlockReference
  2
mcp2014x-connector
 10
237.0786585365854
 20
101.2664634146341
 30
0
 41
0.9
 42
0.9
 43
0
 50
0
 70
    1
 71
    1
 44
0.9
 45
0.9
  0
LINE
  5
316
100
AcDbEntity
  8
schematic
  6
ByLayer
 62
  256
370
   -1
100
AcDbLine
 10
239.7786585365854
 20
106.8246850700492
 11
239.7786585365854
 21
120.1664634146341
  0
MTEXT
  5
317
100
AcDbEntity
  8
labels
  6
ByLayer
 62
  256
370
   -1
100
AcDbMText
 10
232.5786585365854
 20
124.6664634146341
 30
0
 40
2.7
 41
6.300000000000001
 71
    1
 72
    1
  1
RRP
  7
standard
210
0
220
0
230
1
 50
0
 73
    2
 44
1
  0
MTEXT
  5
318
100
AcDbEntity
  8
labels
  6
ByLayer
 62
  256
370
   -1
100
AcDbMText
 10
237.9786585365854
 20
105.7664634146341
 30
0
 40
2.7
 41
3.300000000000001
 71
    1
 72
    1
  1
77
  7
standard
210
0
220
0
230
1
 50
0
 73
    2
 44
1
  0
INSERT
  5
319
100
AcDbEntity
  8
schematic
  6
ByLayer
 62
  256
370
   -1
100
AcDbBlockReference
  2
mcp2014x-connector
 10
45.37865853658536
 20
101.2664634146341
 30
0
 41
0.9
 42
0.9
 43
0
 50
0
 70
    1
 71
    1
 44
0.9
 45
0.9
  0
LINE
  5
31A
100
AcDbEntity
  8
schematic
  6
ByLayer
 62
  256
370
   -1
100
AcDbLine
 10
48.07865853658537
 20
74.26646341463413
 11
48.07865853658537
 21
100.3664634146342
  0
LINE
  5
31B
100
AcDbEntity
  8
schematic
  6
ByLayer
 62
  256
370
   -1
100
AcDbLine
 10
79.57865853658537
 20
74.26646341463413
 11
79.57865853658537
 21
100.3664634146342
  0
INSERT
  5
31C
100
AcDbEntity
  8
schematic
  6
ByLayer
 62
  256
370
   -1
100
AcDbBlockReference
  2
mcp2014x-connector
 10
76.87865853658538
 20
101.2664634146341
 30
0
 41
0.9
 42
0.9
 43
0
 50
0
 70
    1
 71
    1
 44
0.9
 45
0.9
  0
LINE
  5
31D
100
AcDbEntity
  8
schematic
  6
ByLayer
 62
  256
370
   -1
100
AcDbLine
 10
111.0786585365854
 20
90.46646341463415
 11
111.0786585365854
 21
100.3664634146342
  0
LINE
  5
31E
100
AcDbEntity
  8
schematic
  6
ByLayer
 62
  256
370
   -1
100
AcDbLine
 10
124.5786585365854
 20
90.46646341463415
 11
124.5786585365854
 21
100.3664634146342
  0
LINE
  5
31F
100
AcDbEntity
  8
schematic
  6
ByLayer
 62
  256
370
   -1
100
AcDbLine
 10
138.0786585365854
 20
90.46646341463415
 11
138.0786585365854
 21
100.3664634146342
  0
LINE
  5
320
100
AcDbEntity
  8
schematic
  6
ByLayer
 62
  256
370
   -1
100
AcDbLine
 10
151.5786585365854
 20
90.46646341463415
 11
151.5786585365854
 21
100.3664634146342
  0
INSERT
  5
321
100
AcDbEntity
  8
schematic
  6
ByLayer
 62
  256
370
   -1
100
AcDbBlockReference
  2
mcp2014x-connector
 10
108.3786585365854
 20
101.2664634146341
 30
0
 41
0.9
 42
0.9
 43
0
 50
0
 70
    1
 71
    1
 44
0.9
 45
0.9
  0
INSERT
  5
322
100
AcDbEntity
  8
schematic
  6
ByLayer
 62
  256
370
   -1
100
AcDbBlockReference
  2
mcp2014x-connector
 10
121.8786585365854
 20
101.2664634146341
 30
0
 41
0.9
 42
0.9
 43
0
 50
0
 70
    1
 71
    1
 44
0.9
 45
0.9
  0
INSERT
  5
323
100
AcDbEntity
  8
schematic
  6
ByLayer
 62
  256
370
   -1
100
AcDbBlockReference
  2
mcp2014x-connector
 10
135.3786585365854
 20
101.2664634146341
 30
0
 41
0.9
 42
0.9
 43
0
 50
0
 70
    1
 71
    1
 44
0.9
 45
0.9
  0
INSERT
  5
324
100
AcDbEntity
  8
schematic
  6
ByLayer
 62
  256
370
   -1
100
AcDbBlockReference
  2
mcp2014x-connector
 10
148.8786585365854
 20
101.2664634146341
 30
0
 41
0.9
 42
0.9
 43
0
 50
0
 70
    1
 71
    1
 44
0.9
 45
0.9
  0
MTEXT
  5
325
100
AcDbEntity
  8
labels
  6
ByLayer
 62
  256
370
   -1
100
AcDbMText
 10
46.4720169574314
 20
105.1441409153432
 30
0
 40
2.7
 41
3.300000000000335
 71
    1
 72
    1
  1
35
  7
standard
210
0
220
0
230
1
 50
0
 73
    2
 44
1
  0
MTEXT
  5
326
100
AcDbEntity
  8
labels
  6
ByLayer
 62
  256
370
   -1
100
AcDbMText
 10
77.94318438357382
 20
105.107532345247
 30
0
 40
2.7
 41
3.600000000000168
 71
    1
 72
    1
  1
43
  7
standard
210
0
220
0
230
1
 50
0
 73
    2
 44
1
  0
MTEXT
  5
327
100
AcDbEntity
  8
labels
  6
ByLayer
 62
  256
370
   -1
100
AcDbMText
 10
109.8536546508711
 20
105.5842064350423
 30
0
 40
2.7
 41
3
 71
    1
 72
    1
  1
41
  7
standard
210
0
220
0
230
1
 50
0
 73
    2
 44
1
  0
MTEXT
  5
328
100
AcDbEntity
  8
labels
  6
ByLayer
 62
  256
370
   -1
100
AcDbMText
 10
122.6285202574018
 20
105.2982019811648
 30
0
 40
2.7
 41
3.600000000000001
 71
    1
 72
    1
  1
42
  7
standard
210
0
220
0
230
1
 50
0
 73
    2
 44
1
  0
MTEXT
  5
329
100
AcDbEntity
  8
labels
  6
ByLayer
 62
  256
370
   -1
100
AcDbMText
 10
136.7380733153609
 20
105.2982019811648
 30
0
 40
2.7
 41
3.300000000000168
 71
    1
 72
    1
  1
39
  7
standard
210
0
220
0
230
1
 50
0
 73
    2
 44
1
  0
MTEXT
  5
32A
100
AcDbEntity
  8
labels
  6
ByLayer
 62
  256
370
   -1
100
AcDbMText
 10
149.7989433757691
 20
105.0121975272872
 30
0
 40
2.7
 41
3.600000000000001
 71
    1
 72
    1
  1
40
  7
standard
210
0
220
0
230
1
 50
0
 73
    2
 44
1
  0
MTEXT
  5
32B
100
AcDbEntity
  8
labels
  6
ByLayer
 62
  256
370
   -1
100
AcDbMText
 10
243.2777115978103
 20
181.0048470881038
 30
0
 40
1.8
 41
2.2
 71
    1
 72
    1
  1
A1
  7
standard
210
0
220
0
230
1
 50
0
 73
    2
 44
1
  0
MTEXT
  5
32C
100
AcDbEntity
  8
labels
  6
ByLayer
 62
  256
370
   -1
100
AcDbMText
 10
320.9606921692403
 20
205.6857652921861
 30
0
 40
1.8
 41
2.2
 71
    1
 72
    1
  1
A1
  7
standard
210
0
220
0
230
1
 50
0
 73
    2
 44
1
  0
MTEXT
  5
32D
100
AcDbEntity
  8
labels
  6
ByLayer
 62
  256
370
   -1
100
AcDbMText
 10
320.7786585365854
 20
195.7664634146341
 30
0
 40
1.8
 41
2.6
 71
    1
 72
    1
  1
A2
  7
standard
210
0
220
0
230
1
 50
0
 73
    2
 44
1
  0
MTEXT
  5
32E
100
AcDbEntity
  8
labels
  6
ByLayer
 62
  256
370
   -1
100
AcDbMText
 10
243.3786585365854
 20
169.6664634146342
 30
0
 40
1.8
 41
2.6
 71
    1
 72
    1
  1
A2
  7
standard
210
0
220
0
230
1
 50
0
 73
    2
 44
1
  0
MTEXT
  5
32F
100
AcDbEntity
  8
labels
  6
ByLayer
 62
  256
370
   -1
100
AcDbMText
 10
48.07865853658537
 20
266.8664634146342
 30
0
 40
2.7
 41
11.4
 71
    1
 72
    1
  1
EXTRA\PCORSA
  7
standard
210
0
220
0
230
1
 50
0
 73
    2
 44
1
  0
MTEXT
  5
330
100
AcDbEntity
  8
labels
  6
ByLayer
 62
  256
370
   -1
100
AcDbMText
 10
129.0786585365854
 20
266.8664634146342
 30
0
 40
2.7
 41
11.09999885518839
 71
    1
 72
    1
  1
INTER\PFOSSA
  7
standard
210
0
220
0
230
1
 50
0
 73
    2
 44
1
  0
MTEXT
  5
331
100
AcDbEntity
  8
labels
  6
ByLayer
 62
  256
370
   -1
100
AcDbMText
 10
201.0786585365854
 20
272.2664634146341
 30
0
 40
2.7
 41
21.59999970000025
 71
    1
 72
    1
  1
PRELIMINARI\P(ponticellare \Pse auto)
  7
standard
210
0
220
0
230
1
 50
0
 73
    2
 44
1
  0
MTEXT
  5
332
100
AcDbEntity
  8
labels
  6
ByLayer
 62
  256
370
   -1
100
AcDbMText
 10
151.5786585365854
 20
266.8664634146342
 30
0
 40
2.7
 41
12.30000000000017
 71
    1
 72
    1
  1
ALT\PCABINA
  7
standard
210
0
220
0
230
1
 50
0
 73
    2
 44
1
  0
MTEXT
  5
333
100
AcDbEntity
  8
labels
  6
ByLayer
 62
  256
370
   -1
100
AcDbMText
 10
78.67865853658537
 20
274.0664634146341
 30
0
 40
2.7
 41
26.4
 71
    1
 72
    1
  1
BOTTONIERA\PMANUTENZIONE\PCABINA\P(vedi pag. 2)
  7
standard
210
0
220
0
230
1
 50
0
 73
    2
 44
1
  0
MTEXT
  5
334
100
AcDbEntity
  8
labels
  6
ByLayer
 62
  256
370
   -1
100
AcDbMText
 10
231.6786585365854
 20
266.8664634146342
 30
0
 40
2.7
 41
12.30000000000017
 71
    1
 72
    1
  1
PORTE\PCABINA
  7
standard
210
0
220
0
230
1
 50
0
 73
    2
 44
1
  0
MTEXT
  5
335
100
AcDbEntity
  8
labels
  6
ByLayer
 62
  256
370
   -1
100
AcDbMText
 10
174.6786585365854
 20
263.2664634146341
 30
0
 40
2.7
 41
23.40000000000017
 71
    1
 72
    1
  1
PARACADUTE
  7
standard
210
0
220
0
230
1
 50
0
 73
    2
 44
1
  0
MTEXT
  5
336
100
AcDbEntity
  8
labels
  6
ByLayer
 62
  256
370
   -1
100
AcDbMText
 10
260.4786585365854
 20
262.3664634146342
 30
0
 40
2.7
 41
13.5
 71
    1
 72
    1
  1
BLOCCHI
  7
standard
210
0
220
0
230
1
 50
0
 73
    2
 44
1
  0
LINE
  5
337
100
AcDbEntity
  8
schematic
  6
ByLayer
 62
  256
370
   -1
100
AcDbLine
 10
41.77865853658537
 20
252.4664634146341
 11
41.77865853658537
 21
238.0664634146341
  0
LINE
  5
338
100
AcDbEntity
  8
schematic
  6
ByLayer
 62
  256
370
   -1
100
AcDbLine
 10
41.77865853658537
 20
238.0664634146341
 11
39.07865853658537
 21
238.0664634146341
  0
LINE
  5
339
100
AcDbEntity
  8
schematic
  6
ByLayer
 62
  256
370
   -1
100
AcDbLine
 10
39.07865853658537
 20
238.0664634146341
 11
44.47865853658536
 21
238.0664634146341
  0
LINE
  5
33A
100
AcDbEntity
  8
schematic
  6
ByLayer
 62
  256
370
   -1
100
AcDbLine
 10
44.47865853658536
 20
238.0664634146341
 11
41.77865853658537
 21
234.4664634146341
  0
LINE
  5
33B
100
AcDbEntity
  8
schematic
  6
ByLayer
 62
  256
370
   -1
100
AcDbLine
 10
41.77865853658537
 20
234.4664634146341
 11
39.07865853658537
 21
238.0664634146341
  0
LINE
  5
33C
100
AcDbEntity
  8
schematic
  6
ByLayer
 62
  256
370
   -1
100
AcDbLine
 10
68.77865853658537
 20
252.4664634146341
 11
68.77865853658537
 21
238.0664634146341
  0
LINE
  5
33D
100
AcDbEntity
  8
schematic
  6
ByLayer
 62
  256
370
   -1
100
AcDbLine
 10
68.77865853658537
 20
238.0664634146341
 11
66.07865853658537
 21
238.0664634146341
  0
LINE
  5
33E
100
AcDbEntity
  8
schematic
  6
ByLayer
 62
  256
370
   -1
100
AcDbLine
 10
66.07865853658537
 20
238.0664634146341
 11
71.47865853658537
 21
238.0664634146341
  0
LINE
  5
33F
100
AcDbEntity
  8
schematic
  6
ByLayer
 62
  256
370
   -1
100
AcDbLine
 10
71.47865853658537
 20
238.0664634146341
 11
68.77865853658537
 21
234.4664634146341
  0
LINE
  5
340
100
AcDbEntity
  8
schematic
  6
ByLayer
 62
  256
370
   -1
100
AcDbLine
 10
68.77865853658537
 20
234.4664634146341
 11
66.07865853658537
 21
238.0664634146341
  0
LINE
  5
341
100
AcDbEntity
  8
schematic
  6
ByLayer
 62
  256
370
   -1
100
AcDbLine
 10
116.4786585365854
 20
252.4664634146341
 11
116.4786585365854
 21
238.0664634146341
  0
LINE
  5
342
100
AcDbEntity
  8
schematic
  6
ByLayer
 62
  256
370
   -1
100
AcDbLine
 10
116.4786585365854
 20
238.0664634146341
 11
113.7786585365854
 21
238.0664634146341
  0
LINE
  5
343
100
AcDbEntity
  8
schematic
  6
ByLayer
 62
  256
370
   -1
100
AcDbLine
 10
113.7786585365854
 20
238.0664634146341
 11
119.1786585365854
 21
238.0664634146341
  0
LINE
  5
344
100
AcDbEntity
  8
schematic
  6
ByLayer
 62
  256
370
   -1
100
AcDbLine
 10
119.1786585365854
 20
238.0664634146341
 11
116.4786585365854
 21
234.4664634146341
  0
LINE
  5
345
100
AcDbEntity
  8
schematic
  6
ByLayer
 62
  256
370
   -1
100
AcDbLine
 10
116.4786585365854
 20
234.4664634146341
 11
113.7786585365854
 21
238.0664634146341
  0
LINE
  5
346
100
AcDbEntity
  8
schematic
  6
ByLayer
 62
  256
370
   -1
100
AcDbLine
 10
144.3786585365854
 20
252.4664634146341
 11
144.3786585365854
 21
238.0664634146341
  0
LINE
  5
347
100
AcDbEntity
  8
schematic
  6
ByLayer
 62
  256
370
   -1
100
AcDbLine
 10
144.3786585365854
 20
238.0664634146341
 11
141.6786585365854
 21
238.0664634146341
  0
LINE
  5
348
100
AcDbEntity
  8
schematic
  6
ByLayer
 62
  256
370
   -1
100
AcDbLine
 10
141.6786585365854
 20
238.0664634146341
 11
147.0786585365854
 21
238.0664634146341
  0
LINE
  5
349
100
AcDbEntity
  8
schematic
  6
ByLayer
 62
  256
370
   -1
100
AcDbLine
 10
147.0786585365854
 20
238.0664634146341
 11
144.3786585365854
 21
234.4664634146341
  0
LINE
  5
34A
100
AcDbEntity
  8
schematic
  6
ByLayer
 62
  256
370
   -1
100
AcDbLine
 10
144.3786585365854
 20
234.4664634146341
 11
141.6786585365854
 21
238.0664634146341
  0
LINE
  5
34B
100
AcDbEntity
  8
schematic
  6
ByLayer
 62
  256
370
   -1
100
AcDbLine
 10
171.3786585365854
 20
252.4664634146341
 11
171.3786585365854
 21
238.0664634146341
  0
LINE
  5
34C
100
AcDbEntity
  8
schematic
  6
ByLayer
 62
  256
370
   -1
100
AcDbLine
 10
171.3786585365854
 20
238.0664634146341
 11
168.6786585365854
 21
238.0664634146341
  0
LINE
  5
34D
100
AcDbEntity
  8
schematic
  6
ByLayer
 62
  256
370
   -1
100
AcDbLine
 10
168.6786585365854
 20
238.0664634146341
 11
174.0786585365854
 21
238.0664634146341
  0
LINE
  5
34E
100
AcDbEntity
  8
schematic
  6
ByLayer
 62
  256
370
   -1
100
AcDbLine
 10
174.0786585365854
 20
238.0664634146341
 11
171.3786585365854
 21
234.4664634146341
  0
LINE
  5
34F
100
AcDbEntity
  8
schematic
  6
ByLayer
 62
  256
370
   -1
100
AcDbLine
 10
171.3786585365854
 20
234.4664634146341
 11
168.6786585365854
 21
238.0664634146341
  0
LINE
  5
350
100
AcDbEntity
  8
schematic
  6
ByLayer
 62
  256
370
   -1
100
AcDbLine
 10
199.2786585365854
 20
253.3664634146342
 11
199.2786585365854
 21
238.9664634146341
  0
LINE
  5
351
100
AcDbEntity
  8
schematic
  6
ByLayer
 62
  256
370
   -1
100
AcDbLine
 10
199.2786585365854
 20
238.9664634146341
 11
196.5786585365854
 21
238.9664634146341
  0
LINE
  5
352
100
AcDbEntity
  8
schematic
  6
ByLayer
 62
  256
370
   -1
100
AcDbLine
 10
196.5786585365854
 20
238.9664634146341
 11
201.9786585365854
 21
238.9664634146341
  0
LINE
  5
353
100
AcDbEntity
  8
schematic
  6
ByLayer
 62
  256
370
   -1
100
AcDbLine
 10
201.9786585365854
 20
238.9664634146341
 11
199.2786585365854
 21
235.3664634146342
  0
LINE
  5
354
100
AcDbEntity
  8
schematic
  6
ByLayer
 62
  256
370
   -1
100
AcDbLine
 10
199.2786585365854
 20
235.3664634146342
 11
196.5786585365854
 21
238.9664634146341
  0
LINE
  5
355
100
AcDbEntity
  8
schematic
  6
ByLayer
 62
  256
370
   -1
100
AcDbLine
 10
226.2786585365854
 20
253.3664634146342
 11
226.2786585365854
 21
238.9664634146341
  0
LINE
  5
356
100
AcDbEntity
  8
schematic
  6
ByLayer
 62
  256
370
   -1
100
AcDbLine
 10
226.2786585365854
 20
238.9664634146341
 11
223.5786585365854
 21
238.9664634146341
  0
LINE
  5
357
100
AcDbEntity
  8
schematic
  6
ByLayer
 62
  256
370
   -1
100
AcDbLine
 10
223.5786585365854
 20
238.9664634146341
 11
228.9786585365854
 21
238.9664634146341
  0
LINE
  5
358
100
AcDbEntity
  8
schematic
  6
ByLayer
 62
  256
370
   -1
100
AcDbLine
 10
228.9786585365854
 20
238.9664634146341
 11
226.2786585365854
 21
235.3664634146342
  0
LINE
  5
359
100
AcDbEntity
  8
schematic
  6
ByLayer
 62
  256
370
   -1
100
AcDbLine
 10
226.2786585365854
 20
235.3664634146342
 11
223.5786585365854
 21
238.9664634146341
  0
LINE
  5
35A
100
AcDbEntity
  8
schematic
  6
ByLayer
 62
  256
370
   -1
100
AcDbLine
 10
253.3686585365854
 20
252.8264634146342
 11
253.3686585365854
 21
238.4264634146342
  0
LINE
  5
35B
100
AcDbEntity
  8
schematic
  6
ByLayer
 62
  256
370
   -1
100
AcDbLine
 10
253.3686585365854
 20
238.4264634146342
 11
250.6686585365854
 21
238.4264634146342
  0
LINE
  5
35C
100
AcDbEntity
  8
schematic
  6
ByLayer
 62
  256
370
   -1
100
AcDbLine
 10
250.6686585365854
 20
238.4264634146342
 11
256.0686585365854
 21
238.4264634146342
  0
LINE
  5
35D
100
AcDbEntity
  8
schematic
  6
ByLayer
 62
  256
370
   -1
100
AcDbLine
 10
256.0686585365854
 20
238.4264634146342
 11
253.3686585365854
 21
234.8264634146342
  0
LINE
  5
35E
100
AcDbEntity
  8
schematic
  6
ByLayer
 62
  256
370
   -1
100
AcDbLine
 10
253.3686585365854
 20
234.8264634146342
 11
250.6686585365854
 21
238.4264634146342
  0
LINE
  5
35F
100
AcDbEntity
  8
schematic
  6
ByLayer
 62
  256
370
   -1
100
AcDbLine
 10
280.7286585365854
 20
253.0064634146343
 11
280.7286585365854
 21
238.6064634146342
  0
LINE
  5
360
100
AcDbEntity
  8
schematic
  6
ByLayer
 62
  256
370
   -1
100
AcDbLine
 10
280.7286585365854
 20
238.6064634146342
 11
278.0286585365855
 21
238.6064634146342
  0
LINE
  5
361
100
AcDbEntity
  8
schematic
  6
ByLayer
 62
  256
370
   -1
100
AcDbLine
 10
278.0286585365855
 20
238.6064634146342
 11
283.4286585365855
 21
238.6064634146342
  0
LINE
  5
362
100
AcDbEntity
  8
schematic
  6
ByLayer
 62
  256
370
   -1
100
AcDbLine
 10
283.4286585365855
 20
238.6064634146342
 11
280.7286585365854
 21
235.0064634146343
  0
LINE
  5
363
100
AcDbEntity
  8
schematic
  6
ByLayer
 62
  256
370
   -1
100
AcDbLine
 10
280.7286585365854
 20
235.0064634146343
 11
278.0286585365855
 21
238.6064634146342
  0
LINE
  5
364
100
AcDbEntity
  8
schematic
  6
ByLayer
 62
  256
370
   -1
100
AcDbLine
 10
280.2786585365853
 20
215.5664634146341
 11
362.3586585365853
 21
215.5664634146341
  0
INSERT
  5
365
100
AcDbEntity
  8
schematic
  6
ByLayer
 62
  256
370
   -1
100
AcDbBlockReference
  2
mcp2014x-connector
 10
162.3786585365854
 20
101.2664634146341
 30
0
 41
0.9
 42
0.9
 43
0
 50
0
 70
    1
 71
    1
 44
0.9
 45
0.9
  0
MTEXT
  5
366
100
AcDbEntity
  8
labels
  6
ByLayer
 62
  256
370
   -1
100
AcDbMText
 10
163.2989433757691
 20
105.0121975272872
 30
0
 40
2.7
 41
3.300000000000168
 71
    1
 72
    1
  1
38
  7
standard
210
0
220
0
230
1
 50
0
 73
    2
 44
1
  0
LINE
  5
367
100
AcDbEntity
  8
schematic
  6
ByLayer
 62
  256
370
   -1
100
AcDbLine
 10
165.0786585365854
 20
95.86646341463415
 11
165.0786585365854
 21
100.3664634146342
  0
INSERT
  5
368
100
AcDbEntity
  8
schematic
  6
ByLayer
 62
  256
370
   -1
100
AcDbBlockReference
  2
Terminal-in
 10
239.7786585365854
 20
90.46646341463415
 30
0
 41
0.9
 42
0.9
 43
0
 50
180
 70
    1
 71
    1
 44
0.9
 45
0.9
  0
LINE
  5
369
100
AcDbEntity
  8
schematic
  6
ByLayer
 62
  256
370
   -1
100
AcDbLine
 10
239.7786585365854
 20
90.46646341463415
 11
239.7786585365854
 21
100.3664634146342
  0
LINE
  5
36A
100
AcDbEntity
  8
schematic
  6
ByLayer
 62
  256
370
   -1
100
AcDbLine
 10
239.7786585365854
 20
90.46646341463415
 11
333.3786585365854
 21
90.46646341463415
  0
LINE
  5
36B
100
AcDbEntity
  8
schematic
  6
ByLayer
 62
  256
370
   -1
100
AcDbLine
 10
333.3786585365854
 20
90.46646341463415
 11
333.3786585365854
 21
100.3664634146342
  0
INSERT
  5
36C
100
AcDbEntity
  8
schematic
  6
ByLayer
 62
  256
370
   -1
100
AcDbBlockReference
  2
junction
 10
239.7786585365854
 20
90.46646341463415
 30
0
 41
0.9
 42
0.9
 43
0
 50
0
 70
    1
 71
    1
 44
0.9
 45
0.9
  0
MTEXT
  5
36D
100
AcDbEntity
  8
labels
  6
ByLayer
 62
  256
370
   -1
100
AcDbMText
 10
232.5786585365854
 20
82.36646341463415
 30
0
 40
3.6
 41
5.2
 71
    2
 72
    1
  1
TN
  7
standard
210
0
220
0
230
1
 50
0
 73
    2
 44
1
  0
LINE
  5
36E
100
AcDbEntity
  8
schematic
  6
ByLayer
 62
  256
370
   -1
100
AcDbLine
 10
302.3654158404086
 20
139.6588103534095
 11
302.3654158404086
 21
192.8945964758588
  0
INSERT
  5
36F
100
AcDbEntity
  8
schematic
  6
ByLayer
 62
  256
370
   -1
100
AcDbBlockReference
  2
junction-14
 10
302.5516166567352
 20
216.1073377003487
 30
0
 41
0.9
 42
0.9
 43
0
 50
0
 70
    1
 71
    1
 44
0
 45
0
  0
INSERT
  5
370
100
AcDbEntity
  8
schematic
  6
ByLayer
 62
  256
370
   -1
100
AcDbBlockReference
  2
r1
 10
302.6005118273514
 20
193.3875737754526
 30
0
 41
0.9
 42
0.9
 43
0
 50
90
 70
    1
 71
    1
 44
0
 45
0
  0
LINE
  5
371
100
AcDbEntity
  8
schematic
  6
ByLayer
 62
  256
370
   -1
100
AcDbLine
 10
302.505177009393
 20
207.0204527436165
 11
302.505177009393
 21
216.0204527436165
  0
INSERT
  5
372
100
AcDbEntity
  8
schematic
  6
ByLayer
 62
  256
370
   -1
100
AcDbBlockReference
  2
mcp2014x-connector-7
 10
299.841661554694
 20
132.7664634146341
 30
0
 41
0.9
 42
0.9
 43
0
 50
0
 70
    1
 71
    1
 44
0
 45
0
  0
INSERT
  5
373
100
AcDbEntity
  8
schematic
  6
ByLayer
 62
  256
370
   -1
100
AcDbBlockReference
  2
diodo_bobina
 10
306.5092393636738
 20
198.2305825277771
 30
0
 41
0.36
 42
0.36
 43
0
 50
0
 70
    1
 71
    1
 44
0.36
 45
0.36
  0
LINE
  5
374
100
AcDbEntity
  8
schematic
  6
ByLayer
 62
  256
370
   -1
100
AcDbLine
 10
302.541661554694
 20
132.7664634146341
 11
302.541661554694
 21
129.1664634146341
  0
LINE
  5
375
100
AcDbEntity
  8
schematic
  6
ByLayer
 62
  256
370
   -1
100
AcDbLine
 10
302.541661554694
 20
125.5664634146341
 11
302.541661554694
 21
121.9664634146341
  0
LINE
  5
376
100
AcDbEntity
  8
schematic
  6
ByLayer
 62
  256
370
   -1
100
AcDbLine
 10
302.541661554694
 20
125.5664634146341
 11
304.341661554694
 21
129.1664634146341
  0
MTEXT
  5
377
100
AcDbEntity
  8
labels
  6
ByLayer
 62
  256
370
   -1
100
AcDbMText
 10
304.5236951873489
 20
205.6857652921861
 30
0
 40
1.8
 41
2.2
 71
    1
 72
    1
  1
A1
  7
standard
210
0
220
0
230
1
 50
0
 73
    2
 44
1
  0
MTEXT
  5
378
100
AcDbEntity
  8
labels
  6
ByLayer
 62
  256
370
   -1
100
AcDbMText
 10
304.341661554694
 20
195.7664634146341
 30
0
 40
1.8
 41
2.6
 71
    1
 72
    1
  1
A2
  7
standard
210
0
220
0
230
1
 50
0
 73
    2
 44
1
  0
MTEXT
  5
379
100
AcDbEntity
  8
labels
  6
ByLayer
 62
  256
370
   -1
100
AcDbMText
 10
294.6553173776799
 20
128.3045182064724
 30
0
 40
2.7
 41
6.300000000000001
 71
    1
 72
    1
  1
RBB
  7
standard
210
0
220
0
230
1
 50
0
 73
    2
 44
1
  0
LINE
  5
37A
100
AcDbEntity
  8
labels
  6
ByLayer
 62
  256
370
   -1
100
AcDbLine
 10
302.642928531556
 20
122.1846585227833
 11
302.642928531556
 21
106.9804363145338
  0
LINE
  5
37B
100
AcDbEntity
  8
labels
  6
ByLayer
 62
  256
370
   -1
100
AcDbLine
 10
302.642928531556
 20
100.2001750595035
 11
302.642928531556
 21
90.54343933264235
  0
INSERT
  5
37C
100
AcDbEntity
  8
schematic
  6
ByLayer
 62
  256
370
   -1
100
AcDbBlockReference
  2
mcp2014x-connector
 10
299.859289195539
 20
101.2664634146341
 30
0
 41
0.9
 42
0.9
 43
0
 50
0
 70
    1
 71
    1
 44
0.9
 45
0.9
  0
MTEXT
  5
37D
100
AcDbEntity
  8
labels
  6
ByLayer
 62
  256
370
   -1
100
AcDbMText
 10
300.8844851040823
 20
136.8540267256547
 30
0
 40
2.7
 41
2.700000000000001
 71
    1
 72
    1
  1
71
  7
standard
210
0
220
0
230
1
 50
0
 73
    2
 44
1
  0
MTEXT
  5
37E
100
AcDbEntity
  8
labels
  6
ByLayer
 62
  256
370
   -1
100
AcDbMText
 10
300.7830718828862
 20
105.4888716170832
 30
0
 40
2.7
 41
3.300000000000001
 71
    1
 72
    1
  1
72
  7
standard
210
0
220
0
230
1
 50
0
 73
    2
 44
1
  0
INSERT
  5
37F
100
AcDbEntity
  8
labels
  6
ByLayer
 62
  256
370
   -1
100
AcDbBlockReference
  2
junction
 10
302.642928531556
 20
90.54343933264235
 30
0
 41
0.9
 42
0.9
 43
0
 50
0
 70
    1
 71
    1
 44
0.9
 45
0.9
  0
LWPOLYLINE
  5
380
100
AcDbEntity
  8
labels
  6
DASHEDTINY
 62
  256
370
   -1
100
AcDbPolyline
 90
    5
 70
    1
 43
0
 10
293.2943864981052
 20
86.53692131830633
 10
310.9513168497464
 20
86.53692131830633
 10
310.9513168497464
 20
231.0027151044611
 10
293.2943864981052
 20
231.0027151044611
 10
293.2943864981052
 20
231.0027151044611
  0
LEADER
  5
381
100
AcDbEntity
  8
labels
  6
ByLayer
 62
  256
370
   -1
100
AcDbLeader
  3
Standard
 71
    1
 72
    0
 73
    3
 74
    0
 75
    0
 40
1
 41
10
 76
3
 76
3
 10
304.2095798063925
 20
232.2868554936714
 30
0
 10
316.4089135038901
 20
250.2648209426151
 30
0
 10
360.3907218343416
 20
250.2648209426151
 30
0
  0
MTEXT
  5
382
100
AcDbEntity
  8
labels
  6
ByLayer
 62
  256
370
   -1
100
AcDbMText
 10
319.2982293796132
 20
247.6965401641946
 30
0
 40
2.7
 41
35.0999994275942
 71
    1
 72
    1
  1
CON AVVIAMENTO\PSTELLA-TRIANGOLO\P
  7
standard
210
0
220
0
230
1
 50
0
 73
    2
 44
1
  0
LINE
  5
383
100
AcDbEntity
  8
help-lines
  6
ByLayer
 62
  256
370
   -1
100
AcDbLine
 10
414.1092213102402
 20
161.2842794103931
 11
419.2121069931403
 21
161.3206569140323
  0
CIRCLE
  5
384
100
AcDbEntity
  8
help-lines
  6
ByLayer
 62
  256
370
   -1
100
AcDbCircle
 10
414.7121069931403
 20
228.1664634146341
 40
2.7
  0
LINE
  5
385
100
AcDbEntity
  8
help-lines
  6
ByLayer
 62
  256
370
   -1
100
AcDbLine
 10
410.2121069931403
 20
161.3414634146341
 11
414.1092213102402
 21
159.0914634146341
  0
LINE
  5
386
100
AcDbEntity
  8
help-lines
  6
ByLayer
 62
  256
370
   -1
100
AcDbLine
 10
410.2121069931403
 20
161.3414634146341
 11
414.1092213102402
 21
163.5914634146341
  0
LINE
  5
387
100
AcDbEntity
  8
help-lines
  6
ByLayer
 62
  256
370
   -1
100
AcDbLine
 10
414.1092213102402
 20
159.0914634146341
 11
414.1092213102402
 21
163.5914634146341
  0
CIRCLE
  5
388
100
AcDbEntity
  8
help-lines
  6
ByLayer
 62
  256
370
   -1
100
AcDbCircle
 10
414.7121069931403
 20
94.51646341463413
 40
2.7
  0
MTEXT
  5
389
100
AcDbEntity
  8
help-lines
  6
ByLayer
 62
  256
370
   -1
100
AcDbMText
 10
414.7121069931403
 20
94.51646341463413
 30
0
 40
3.6
 41
2.4
 71
    5
 72
    5
  1
A
  7
iso
210
0
220
0
230
1
 50
6.283185307179996
 73
    2
 44
0.96
  0
MTEXT
  5
38A
100
AcDbEntity
  8
help-lines
  6
ByLayer
 62
  256
370
   -1
100
AcDbMText
 10
414.7121069931403
 20
228.1664634146341
 30
0
 40
3.6
 41
2
 71
    5
 72
    5
  1
B
  7
iso
210
0
220
0
230
1
 50
6.283185307179996
 73
    2
 44
0.96
  0
LINE
  5
38B
100
AcDbEntity
  8
schematic
  6
ByLayer
 62
  256
370
   -1
100
AcDbLine
 10
340.1349203410438
 20
207.1696985166751
 11
340.1349203410438
 21
215.7349360676956
  0
LINE
  5
38C
100
AcDbEntity
  8
schematic
  6
ByLayer
 62
  256
370
   -1
100
AcDbLine
 10
355.5895880961459
 20
206.9834977003486
 11
355.5895880961459
 21
215.7349360676956
  0
LINE
  5
38D
100
AcDbEntity
  8
schematic
  6
ByLayer
 62
  256
370
   -1
100
AcDbLine
 10
355.5895880961459
 20
139.6588103534095
 11
355.5895880961459
 21
192.8945964758588
  0
LINE
  5
38E
100
AcDbEntity
  8
schematic
  6
ByLayer
 62
  256
370
   -1
100
AcDbLine
 10
369.3684485043092
 20
139.6588103534095
 11
369.3684485043092
 21
192.8945964758588
  0
INSERT
  5
38F
100
AcDbEntity
  8
schematic
  6
ByLayer
 62
  256
370
   -1
100
AcDbBlockReference
  2
junction-15
 10
339.9487195247173
 20
216.2935385166751
 30
0
 41
0.9
 42
0.9
 43
0
 50
0
 70
    1
 71
    1
 44
0
 45
0
  0
INSERT
  5
390
100
AcDbEntity
  8
schematic
  6
ByLayer
 62
  256
370
   -1
100
AcDbBlockReference
  2
junction-17
 10
355.7757889124723
 20
215.7349360676956
 30
0
 41
0.9
 42
0.9
 43
0
 50
0
 70
    1
 71
    1
 44
0
 45
0
  0
LINE
  5
391
100
AcDbEntity
  8
schematic
  6
ByLayer
 62
  256
370
   -1
100
AcDbLine
 10
340.3122431024482
 20
139.915022676675
 11
340.3122431024482
 21
193.7094112481038
  0
INSERT
  5
392
100
AcDbEntity
  8
schematic
  6
ByLayer
 62
  256
370
   -1
100
AcDbBlockReference
  2
r1
 10
355.4001462218639
 20
193.5782434113708
 30
0
 41
0.9
 42
0.9
 43
0
 50
90
 70
    1
 71
    1
 44
0
 45
0
  0
INSERT
  5
393
100
AcDbEntity
  8
schematic
  6
ByLayer
 62
  256
370
   -1
100
AcDbBlockReference
  2
r1
 10
340.1465753483944
 20
193.67357822933
 30
0
 41
0.9
 42
0.9
 43
0
 50
90
 70
    1
 71
    1
 44
0
 45
0
  0
INSERT
  5
394
100
AcDbEntity
  8
schematic
  6
ByLayer
 62
  256
370
   -1
100
AcDbBlockReference
  2
r1
 10
369.2236948259463
 20
193.3875737754526
 30
0
 41
0.9
 42
0.9
 43
0
 50
90
 70
    1
 71
    1
 44
0
 45
0
  0
INSERT
  5
395
100
AcDbEntity
  8
schematic
  6
ByLayer
 62
  256
370
   -1
100
AcDbBlockReference
  2
mcp2014x-connector-8
 10
337.4875023818598
 20
132.7664634146341
 30
0
 41
0.9
 42
0.9
 43
0
 50
0
 70
    1
 71
    1
 44
0
 45
0
  0
INSERT
  5
396
100
AcDbEntity
  8
schematic
  6
ByLayer
 62
  256
370
   -1
100
AcDbBlockReference
  2
mcp2014x-connector-9
 10
352.7875023818598
 20
132.7664634146341
 30
0
 41
0.9
 42
0.9
 43
0
 50
0
 70
    1
 71
    1
 44
0
 45
0
  0
INSERT
  5
397
100
AcDbEntity
  8
schematic
  6
ByLayer
 62
  256
370
   -1
100
AcDbBlockReference
  2
mcp2014x-connector-10
 10
366.2875023818598
 20
132.7664634146341
 30
0
 41
0.9
 42
0.9
 43
0
 50
0
 70
    1
 71
    1
 44
0
 45
0
  0
INSERT
  5
398
100
AcDbEntity
  8
schematic
  6
ByLayer
 62
  256
370
   -1
100
AcDbBlockReference
  2
diodo_bobina
 10
359.4232755397376
 20
198.4593860908791
 30
0
 41
0.36
 42
0.36
 43
0
 50
0
 70
    1
 71
    1
 44
0.36
 45
0.36
  0
INSERT
  5
399
100
AcDbEntity
  8
schematic
  6
ByLayer
 62
  256
370
   -1
100
AcDbBlockReference
  2
diodo_bobina
 10
373.15148932586
 20
198.3068503821445
 30
0
 41
0.36
 42
0.36
 43
0
 50
0
 70
    1
 71
    1
 44
0.36
 45
0.36
  0
INSERT
  5
39A
100
AcDbEntity
  8
schematic
  6
ByLayer
 62
  256
370
   -1
100
AcDbBlockReference
  2
diodo_bobina
 10
344.1697046662682
 20
198.5356539452465
 30
0
 41
0.36
 42
0.36
 43
0
 50
0
 70
    1
 71
    1
 44
0.36
 45
0.36
  0
MTEXT
  5
39B
100
AcDbEntity
  8
labels
  6
ByLayer
 62
  256
370
   -1
100
AcDbMText
 10
336.8859279818639
 20
201.5148670064729
 30
0
 40
2.7
 41
4.200000000000001
 71
    1
 72
    1
  1
PV
  7
standard
210
0
220
0
230
1
 50
0
 73
    2
 44
1
  0
LINE
  5
39C
100
AcDbEntity
  8
schematic
  6
ByLayer
 62
  256
370
   -1
100
AcDbLine
 10
340.1875023818598
 20
132.7664634146341
 11
340.1875023818598
 21
129.1664634146341
  0
LINE
  5
39D
100
AcDbEntity
  8
schematic
  6
ByLayer
 62
  256
370
   -1
100
AcDbLine
 10
355.4875023818598
 20
132.7664634146341
 11
355.4875023818598
 21
129.1664634146341
  0
LINE
  5
39E
100
AcDbEntity
  8
schematic
  6
ByLayer
 62
  256
370
   -1
100
AcDbLine
 10
368.9875023818598
 20
132.7664634146341
 11
368.9875023818598
 21
129.1664634146341
  0
LINE
  5
39F
100
AcDbEntity
  8
schematic
  6
ByLayer
 62
  256
370
   -1
100
AcDbLine
 10
340.1875023818598
 20
125.5664634146341
 11
340.1875023818598
 21
121.9664634146341
  0
LINE
  5
3A0
100
AcDbEntity
  8
schematic
  6
ByLayer
 62
  256
370
   -1
100
AcDbLine
 10
355.4875023818598
 20
121.9664634146341
 11
355.4875023818598
 21
125.5664634146341
  0
LINE
  5
3A1
100
AcDbEntity
  8
schematic
  6
ByLayer
 62
  256
370
   -1
100
AcDbLine
 10
368.9875023818598
 20
121.9664634146341
 11
368.9875023818598
 21
125.5664634146341
  0
LINE
  5
3A2
100
AcDbEntity
  8
schematic
  6
ByLayer
 62
  256
370
   -1
100
AcDbLine
 10
340.1875023818598
 20
125.5664634146341
 11
341.9875023818598
 21
129.1664634146341
  0
LINE
  5
3A3
100
AcDbEntity
  8
schematic
  6
ByLayer
 62
  256
370
   -1
100
AcDbLine
 10
355.4875023818598
 20
125.5664634146341
 11
357.2875023818598
 21
129.1664634146341
  0
LINE
  5
3A4
100
AcDbEntity
  8
schematic
  6
ByLayer
 62
  256
370
   -1
100
AcDbLine
 10
368.9875023818598
 20
125.5664634146341
 11
370.7875023818598
 21
129.1664634146341
  0
MTEXT
  5
3A5
100
AcDbEntity
  8
labels
  6
ByLayer
 62
  256
370
   -1
100
AcDbMText
 10
332.5626020716612
 20
128.9003608187173
 30
0
 40
2.7
 41
6.600000000000001
 71
    1
 72
    1
  1
RPV
  7
standard
210
0
220
0
230
1
 50
0
 73
    2
 44
1
  0
MTEXT
  5
3A6
100
AcDbEntity
  8
labels
  6
ByLayer
 62
  256
370
   -1
100
AcDbMText
 10
346.1644431818654
 20
129.2578663860642
 30
0
 40
2.7
 41
8.699999427594198
 71
    1
 72
    1
  1
RSAL
  7
standard
210
0
220
0
230
1
 50
0
 73
    2
 44
1
  0
MTEXT
  5
3A7
100
AcDbEntity
  8
labels
  6
ByLayer
 62
  256
370
   -1
100
AcDbMText
 10
360.1237898594167
 20
129.7754164921868
 30
0
 40
2.7
 41
7.199999427594365
 71
    1
 72
    1
  1
RDIS
  7
standard
210
0
220
0
230
1
 50
0
 73
    2
 44
1
  0
MTEXT
  5
3A8
100
AcDbEntity
  8
labels
  6
ByLayer
 62
  256
370
   -1
100
AcDbMText
 10
338.6748440961456
 20
136.7169829248382
 30
0
 40
2.7
 41
3.300000000000335
 71
    1
 72
    1
  1
66
  7
standard
210
0
220
0
230
1
 50
0
 73
    2
 44
1
  0
MTEXT
  5
3A9
100
AcDbEntity
  8
labels
  6
ByLayer
 62
  256
370
   -1
100
AcDbMText
 10
353.7198700553293
 20
137.3128255370832
 30
0
 40
2.7
 41
3.300000000000168
 71
    1
 72
    1
  1
68
  7
standard
210
0
220
0
230
1
 50
0
 73
    2
 44
1
  0
MTEXT
  5
3AA
100
AcDbEntity
  8
labels
  6
ByLayer
 62
  256
370
   -1
100
AcDbMText
 10
367.1263288308395
 20
137.163864884022
 30
0
 40
2.7
 41
3.300000000000168
 71
    1
 72
    1
  1
67
  7
standard
210
0
220
0
230
1
 50
0
 73
    2
 44
1
  0
MTEXT
  5
3AB
100
AcDbEntity
  8
labels
  6
ByLayer
 62
  256
370
   -1
100
AcDbMText
 10
342.6656013206372
 20
205.8347259452474
 30
0
 40
1.8
 41
2.2
 71
    1
 72
    1
  1
A1
  7
standard
210
0
220
0
230
1
 50
0
 73
    2
 44
1
  0
MTEXT
  5
3AC
100
AcDbEntity
  8
labels
  6
ByLayer
 62
  256
370
   -1
100
AcDbMText
 10
358.1575092390046
 20
205.9836865983086
 30
0
 40
1.8
 41
2.2
 71
    1
 72
    1
  1
A1
  7
standard
210
0
220
0
230
1
 50
0
 73
    2
 44
1
  0
MTEXT
  5
3AD
100
AcDbEntity
  8
labels
  6
ByLayer
 62
  256
370
   -1
100
AcDbMText
 10
372.1598106267598
 20
205.9836865983086
 30
0
 40
1.8
 41
2.2
 71
    1
 72
    1
  1
A1
  7
standard
210
0
220
0
230
1
 50
0
 73
    2
 44
1
  0
MTEXT
  5
3AE
100
AcDbEntity
  8
labels
  6
ByLayer
 62
  256
370
   -1
100
AcDbMText
 10
342.8875023818597
 20
195.7664634146341
 30
0
 40
1.8
 41
2.6
 71
    1
 72
    1
  1
A2
  7
standard
210
0
220
0
230
1
 50
0
 73
    2
 44
1
  0
MTEXT
  5
3AF
100
AcDbEntity
  8
labels
  6
ByLayer
 62
  256
370
   -1
100
AcDbMText
 10
357.2875023818598
 20
195.7664634146341
 30
0
 40
1.8
 41
2.6
 71
    1
 72
    1
  1
A2
  7
standard
210
0
220
0
230
1
 50
0
 73
    2
 44
1
  0
MTEXT
  5
3B0
100
AcDbEntity
  8
labels
  6
ByLayer
 62
  256
370
   -1
100
AcDbMText
 10
371.6875023818598
 20
195.7664634146341
 30
0
 40
1.8
 41
2.6
 71
    1
 72
    1
  1
A2
  7
standard
210
0
220
0
230
1
 50
0
 73
    2
 44
1
  0
LINE
  5
3B1
100
AcDbEntity
  8
schematic
  6
ByLayer
 62
  256
370
   -1
100
AcDbLine
 10
369.1675023818598
 20
206.9264634146342
 11
369.1675023818598
 21
215.5664634146341
  0
LINE
  5
3B2
100
AcDbEntity
  8
schematic
  6
ByLayer
 62
  256
370
   -1
100
AcDbLine
 10
390.9433460843396
 20
139.6588103534095
 11
390.9433460843396
 21
192.8945964758588
  0
INSERT
  5
3B3
100
AcDbEntity
  8
schematic
  6
ByLayer
 62
  256
370
   -1
100
AcDbBlockReference
  2
r1
 10
390.7985924059767
 20
193.3875737754526
 30
0
 41
0.9
 42
0.9
 43
0
 50
90
 70
    1
 71
    1
 44
0
 45
0
  0
INSERT
  5
3B4
100
AcDbEntity
  8
schematic
  6
ByLayer
 62
  256
370
   -1
100
AcDbBlockReference
  2
mcp2014x-connector-10
 10
387.8623999618902
 20
132.7664634146341
 30
0
 41
0.9
 42
0.9
 43
0
 50
0
 70
    1
 71
    1
 44
0
 45
0
  0
INSERT
  5
3B5
100
AcDbEntity
  8
schematic
  6
ByLayer
 62
  256
370
   -1
100
AcDbBlockReference
  2
diodo_bobina
 10
394.7263869058904
 20
198.3068503821445
 30
0
 41
0.36
 42
0.36
 43
0
 50
0
 70
    1
 71
    1
 44
0.36
 45
0.36
  0
LINE
  5
3B6
100
AcDbEntity
  8
schematic
  6
ByLayer
 62
  256
370
   -1
100
AcDbLine
 10
390.5623999618902
 20
132.7664634146341
 11
390.5623999618902
 21
129.1664634146341
  0
LINE
  5
3B7
100
AcDbEntity
  8
schematic
  6
ByLayer
 62
  256
370
   -1
100
AcDbLine
 10
390.5623999618902
 20
121.9664634146341
 11
390.5623999618902
 21
125.5664634146341
  0
LINE
  5
3B8
100
AcDbEntity
  8
schematic
  6
ByLayer
 62
  256
370
   -1
100
AcDbLine
 10
390.5623999618902
 20
125.5664634146341
 11
392.3623999618902
 21
129.1664634146341
  0
MTEXT
  5
3B9
100
AcDbEntity
  8
labels
  6
ByLayer
 62
  256
370
   -1
100
AcDbMText
 10
393.7347082067902
 20
205.9836865983086
 30
0
 40
1.8
 41
2.2
 71
    1
 72
    1
  1
A1
  7
standard
210
0
220
0
230
1
 50
0
 73
    2
 44
1
  0
MTEXT
  5
3BA
100
AcDbEntity
  8
labels
  6
ByLayer
 62
  256
370
   -1
100
AcDbMText
 10
393.2623999618901
 20
195.7664634146341
 30
0
 40
1.8
 41
2.6
 71
    1
 72
    1
  1
A2
  7
standard
210
0
220
0
230
1
 50
0
 73
    2
 44
1
  0
LINE
  5
3BB
100
AcDbEntity
  8
schematic
  6
ByLayer
 62
  256
370
   -1
100
AcDbLine
 10
390.7423999618902
 20
206.9264634146342
 11
390.7423999618902
 21
215.5664634146341
  0
LINE
  5
3BC
100
AcDbEntity
  8
labels
  6
ByLayer
 62
  256
370
   -1
100
AcDbLine
 10
361.2707698170732
 20
215.6004192073171
 11
390.7368521341464
 21
215.6004192073171
  0
LINE
  5
3BD
100
AcDbEntity
  8
labels
  6
ByLayer
 62
  256
370
   -1
100
AcDbLine
 10
367.703506097561
 20
139.6526295731707
 11
400.2822027439025
 21
139.6526295731707
  0
LINE
  5
3BE
100
AcDbEntity
  8
labels
  6
ByLayer
 62
  256
370
   -1
100
AcDbLine
 10
400.2822027439025
 20
139.6526295731707
 11
400.2822027439025
 21
100.226181402439
  0
LINE
  5
3BF
100
AcDbEntity
  8
labels
  6
ByLayer
 62
  256
370
   -1
100
AcDbLine
 10
400.2822027439025
 20
100.226181402439
 11
367.9110137195123
 21
100.226181402439
  0
LINE
  5
3C0
100
AcDbEntity
  8
labels
  6
ByLayer
 62
  256
370
   -1
100
AcDbLine
 10
318.9392149390244
 20
121.5994664634146
 11
390.9443597560976
 21
121.5994664634146
  0
INSERT
  5
3C1
100
AcDbEntity
  8
labels
  6
ByLayer
 62
  256
370
   -1
100
AcDbBlockReference
  2
junction
 10
333.4647484756098
 20
121.5994664634146
 30
0
 41
1
 42
1
 43
0
 50
0
 70
    1
 71
    1
 44
1
 45
1
  0
INSERT
  5
3C2
100
AcDbEntity
  8
labels
  6
ByLayer
 62
  256
370
   -1
100
AcDbBlockReference
  2
junction
 10
369.1560594512196
 20
215.6004192073171
 30
0
 41
1
 42
1
 43
0
 50
0
 70
    1
 71
    1
 44
1
 45
1
  0
LEADER
  5
3C3
100
AcDbEntity
  8
labels
  6
ByLayer
 62
  256
370
   -1
100
AcDbLeader
  3
Standard
 71
    1
 72
    0
 73
    3
 74
    0
 75
    0
 40
1
 41
10
 76
3
 76
3
 10
329.3145960365854
 20
167.8736661585366
 30
0
 10
329.3145960365854
 20
187.5868902439024
 30
0
 10
318.7317073170732
 20
187.5868902439024
 30
0
  0
INSERT
  5
3C4
100
AcDbEntity
  8
labels
  6
ByLayer
 62
  256
370
   -1
100
AcDbBlockReference
  2
junction
 10
318.7317073170732
 20
187.5868902439024
 30
0
 41
1
 42
1
 43
0
 50
0
 70
    1
 71
    1
 44
1
 45
1
  0
CIRCLE
  5
3C5
100
AcDbEntity
  8
labels
  6
ByLayer
 62
  256
370
   -1
100
AcDbCircle
 10
329.3145960365854
 20
163.1009908536585
 40
4.980182926829286
  0
LEADER
  5
3C6
100
AcDbEntity
  8
labels
  6
ByLayer
 62
  256
370
   -1
100
AcDbLeader
  3
Standard
 71
    1
 72
    0
 73
    3
 74
    0
 75
    0
 40
1
 41
10
 76
3
 76
3
 10
379.946455792683
 20
167.8736661585366
 30
0
 10
379.946455792683
 20
187.5868902439024
 30
0
 10
369.3635670731708
 20
187.5868902439024
 30
0
  0
INSERT
  5
3C7
100
AcDbEntity
  8
labels
  6
ByLayer
 62
  256
370
   -1
100
AcDbBlockReference
  2
junction
 10
369.3635670731708
 20
187.5868902439024
 30
0
 41
1
 42
1
 43
0
 50
0
 70
    1
 71
    1
 44
1
 45
1
  0
CIRCLE
  5
3C8
100
AcDbEntity
  8
labels
  6
ByLayer
 62
  256
370
   -1
100
AcDbCircle
 10
379.946455792683
 20
163.1009908536585
 40
4.980182926829286
  0
LEADER
  5
3C9
100
AcDbEntity
  8
labels
  6
ByLayer
 62
  256
370
   -1
100
AcDbLeader
  3
Standard
 71
    1
 72
    0
 73
    3
 74
    0
 75
    0
 40
1
 41
10
 76
3
 76
3
 10
401.5272484756098
 20
167.8736661585366
 30
0
 10
401.5272484756098
 20
187.5868902439024
 30
0
 10
390.9443597560976
 20
187.5868902439024
 30
0
  0
INSERT
  5
3CA
100
AcDbEntity
  8
labels
  6
ByLayer
 62
  256
370
   -1
100
AcDbBlockReference
  2
junction
 10
390.9443597560976
 20
187.5868902439024
 30
0
 41
1
 42
1
 43
0
 50
0
 70
    1
 71
    1
 44
1
 45
1
  0
CIRCLE
  5
3CB
100
AcDbEntity
  8
labels
  6
ByLayer
 62
  256
370
   -1
100
AcDbCircle
 10
401.5272484756098
 20
163.1009908536585
 40
4.980182926829286
  0
MTEXT
  5
3CC
100
AcDbEntity
  8
labels
  6
ByLayer
 62
  256
370
   -1
100
AcDbMText
 10
327.6446555585636
 20
165.9543205926509
 30
0
 40
5
 41
3.333333333333333
 71
    1
 72
    1
  1
A\P
  7
standard
210
0
220
0
230
1
 50
0
 73
    2
 44
1
  0
MTEXT
  5
3CD
100
AcDbEntity
  8
labels
  6
ByLayer
 62
  256
370
   -1
100
AcDbMText
 10
378.6419236543525
 20
165.6132017425118
 30
0
 40
5
 41
2.777777777777778
 71
    1
 72
    1
  1
B
  7
standard
210
0
220
0
230
1
 50
0
 73
    2
 44
1
  0
MTEXT
  5
3CE
100
AcDbEntity
  8
labels
  6
ByLayer
 62
  256
370
   -1
100
AcDbMText
 10
399.9618517880435
 20
165.6132017425118
 30
0
 40
5
 41
2.222222222222532
 71
    1
 72
    1
  1
C
  7
standard
210
0
220
0
230
1
 50
0
 73
    2
 44
1
  0
MTEXT
  5
3CF
100
AcDbEntity
  8
labels
  6
ByLayer
 62
  256
370
   -1
100
AcDbMText
 10
378.3060646455637
 20
129.7754164921868
 30
0
 40
2.7
 41
9.300000000000001
 71
    1
 72
    1
  1
RMAN
  7
standard
210
0
220
0
230
1
 50
0
 73
    2
 44
1
  0
MTEXT
  5
3D0
100
AcDbEntity
  8
labels
  6
ByLayer
 62
  256
370
   -1
100
AcDbMText
 10
388.7012264108699
 20
137.163864884022
 30
0
 40
2.7
 41
3.300000000000168
 71
    1
 72
    1
  1
69
  7
standard
210
0
220
0
230
1
 50
0
 73
    2
 44
1
  0
INSERT
  5
3D1
100
AcDbEntity
  8
schematic
  6
ByLayer
 62
  256
370
   -1
100
AcDbBlockReference
  2
Terminal-in
 10
48.27673399390245
 20
47.32820121951217
 30
0
 41
0.9
 42
0.9
 43
0
 50
180
 70
    1
 71
    1
 44
0.9
 45
0.9
  0
INSERT
  5
3D2
100
AcDbEntity
  8
schematic
  6
ByLayer
 62
  256
370
   -1
100
AcDbBlockReference
  2
Terminal-in
 10
66.27673399390244
 20
47.32820121951217
 30
0
 41
0.9
 42
0.9
 43
0
 50
180
 70
    1
 71
    1
 44
0.9
 45
0.9
  0
LINE
  5
3D3
100
AcDbEntity
  8
schematic
  6
ByLayer
 62
  256
370
   -1
100
AcDbLine
 10
34.77673399390245
 20
47.32820121951217
 11
66.27673399390244
 21
47.32820121951217
  0
INSERT
  5
3D4
100
AcDbEntity
  8
schematic
  6
ByLayer
 62
  256
370
   -1
100
AcDbBlockReference
  2
Terminal-in
 10
79.77673399390244
 20
47.32820121951217
 30
0
 41
0.9
 42
0.9
 43
0
 50
180
 70
    1
 71
    1
 44
0.9
 45
0.9
  0
INSERT
  5
3D5
100
AcDbEntity
  8
schematic
  6
ByLayer
 62
  256
370
   -1
100
AcDbBlockReference
  2
Terminal-in
 10
97.77673399390244
 20
47.32820121951217
 30
0
 41
0.9
 42
0.9
 43
0
 50
180
 70
    1
 71
    1
 44
0.9
 45
0.9
  0
LINE
  5
3D6
100
AcDbEntity
  8
schematic
  6
ByLayer
 62
  256
370
   -1
100
AcDbLine
 10
66.27673399390244
 20
47.32820121951217
 11
97.77673399390244
 21
47.32820121951217
  0
INSERT
  5
3D7
100
AcDbEntity
  8
schematic
  6
ByLayer
 62
  256
370
   -1
100
AcDbBlockReference
  2
junction
 10
66.27673399390244
 20
47.32820121951217
 30
0
 41
0.9
 42
0.9
 43
0
 50
0
 70
    1
 71
    1
 44
0.9
 45
0.9
  0
LINE
  5
3D8
100
AcDbEntity
  8
schematic
  6
ByLayer
 62
  256
370
   -1
100
AcDbLine
 10
97.77673399390244
 20
47.32820121951217
 11
111.2767339939025
 21
47.32820121951217
  0
LINE
  5
3D9
100
AcDbEntity
  8
schematic
  6
ByLayer
 62
  256
370
   -1
100
AcDbLine
 10
111.2767339939025
 20
47.32820121951217
 11
111.2767339939025
 21
54.52820121951219
  0
LINE
  5
3DA
100
AcDbEntity
  8
schematic
  6
ByLayer
 62
  256
370
   -1
100
AcDbLine
 10
111.2767339939025
 20
54.52820121951219
 11
117.5767339939025
 21
63.52820121951219
  0
LINE
  5
3DB
100
AcDbEntity
  8
schematic
  6
ByLayer
 62
  256
370
   -1
100
AcDbLine
 10
111.2767339939025
 20
47.32820121951217
 11
124.7767339939025
 21
47.32820121951217
  0
LINE
  5
3DC
100
AcDbEntity
  8
schematic
  6
ByLayer
 62
  256
370
   -1
100
AcDbLine
 10
124.7767339939025
 20
47.32820121951217
 11
124.7767339939025
 21
54.52820121951219
  0
LINE
  5
3DD
100
AcDbEntity
  8
schematic
  6
ByLayer
 62
  256
370
   -1
100
AcDbLine
 10
124.7767339939025
 20
54.52820121951219
 11
131.0767339939025
 21
63.52820121951219
  0
LINE
  5
3DE
100
AcDbEntity
  8
schematic
  6
ByLayer
 62
  256
370
   -1
100
AcDbLine
 10
124.7767339939025
 20
47.32820121951217
 11
138.2767339939025
 21
47.32820121951217
  0
LINE
  5
3DF
100
AcDbEntity
  8
schematic
  6
ByLayer
 62
  256
370
   -1
100
AcDbLine
 10
138.2767339939025
 20
47.32820121951217
 11
138.2767339939025
 21
54.52820121951219
  0
LINE
  5
3E0
100
AcDbEntity
  8
schematic
  6
ByLayer
 62
  256
370
   -1
100
AcDbLine
 10
138.2767339939025
 20
54.52820121951219
 11
144.5767339939025
 21
63.52820121951219
  0
LINE
  5
3E1
100
AcDbEntity
  8
schematic
  6
ByLayer
 62
  256
370
   -1
100
AcDbLine
 10
138.2767339939025
 20
47.32820121951217
 11
151.7767339939025
 21
47.32820121951217
  0
LINE
  5
3E2
100
AcDbEntity
  8
schematic
  6
ByLayer
 62
  256
370
   -1
100
AcDbLine
 10
151.7767339939025
 20
47.32820121951217
 11
151.7767339939025
 21
54.52820121951219
  0
LINE
  5
3E3
100
AcDbEntity
  8
schematic
  6
ByLayer
 62
  256
370
   -1
100
AcDbLine
 10
151.7767339939025
 20
54.52820121951219
 11
158.0767339939025
 21
63.52820121951219
  0
MTEXT
  5
3E4
100
AcDbEntity
  8
labels
  6
ByLayer
 62
  256
370
   -1
100
AcDbMText
 10
38.37673399390244
 20
39.22820121951218
 30
0
 40
2.7
 41
6.000000000000001
 71
    1
 72
    1
  1
TOL
  7
standard
210
0
220
0
230
1
 50
0
 73
    2
 44
1
  0
MTEXT
  5
3E5
100
AcDbEntity
  8
labels
  6
ByLayer
 62
  256
370
   -1
100
AcDbMText
 10
56.37673399390244
 20
39.22820121951218
 30
0
 40
2.7
 41
6.000000000000001
 71
    1
 72
    1
  1
TOL
  7
standard
210
0
220
0
230
1
 50
0
 73
    2
 44
1
  0
MTEXT
  5
3E6
100
AcDbEntity
  8
labels
  6
ByLayer
 62
  256
370
   -1
100
AcDbMText
 10
69.87673399390245
 20
39.22820121951218
 30
0
 40
2.7
 41
6.000000000000001
 71
    1
 72
    1
  1
PTC
  7
standard
210
0
220
0
230
1
 50
0
 73
    2
 44
1
  0
MTEXT
  5
3E7
100
AcDbEntity
  8
labels
  6
ByLayer
 62
  256
370
   -1
100
AcDbMText
 10
87.87673399390245
 20
39.22820121951218
 30
0
 40
2.7
 41
6.000000000000001
 71
    1
 72
    1
  1
PTC
  7
standard
210
0
220
0
230
1
 50
0
 73
    2
 44
1
  0
MTEXT
  5
3E8
100
AcDbEntity
  8
labels
  6
ByLayer
 62
  256
370
   -1
100
AcDbMText
 10
119.3767339939025
 20
60.82820121951217
 30
0
 40
2.7
 41
4.200000000000001
 71
    1
 72
    1
  1
PV
  7
standard
210
0
220
0
230
1
 50
0
 73
    2
 44
1
  0
MTEXT
  5
3E9
100
AcDbEntity
  8
labels
  6
ByLayer
 62
  256
370
   -1
100
AcDbMText
 10
121.1767339939025
 20
67.12820121951219
 30
0
 40
2.7
 41
2.700000000000168
 71
    1
 72
    1
  1
13
  7
standard
210
0
220
0
230
1
 50
0
 73
    2
 44
1
  0
MTEXT
  5
3EA
100
AcDbEntity
  8
labels
  6
ByLayer
 62
  256
370
   -1
100
AcDbMText
 10
148.1767339939025
 20
67.12820121951219
 30
0
 40
2.7
 41
2.700000000000168
 71
    1
 72
    1
  1
13
  7
standard
210
0
220
0
230
1
 50
0
 73
    2
 44
1
  0
MTEXT
  5
3EB
100
AcDbEntity
  8
labels
  6
ByLayer
 62
  256
370
   -1
100
AcDbMText
 10
121.1767339939025
 20
53.62820121951219
 30
0
 40
2.7
 41
3
 71
    1
 72
    1
  1
14
  7
standard
210
0
220
0
230
1
 50
0
 73
    2
 44
1
  0
MTEXT
  5
3EC
100
AcDbEntity
  8
labels
  6
ByLayer
 62
  256
370
   -1
100
AcDbMText
 10
148.1767339939025
 20
53.62820121951219
 30
0
 40
2.7
 41
3
 71
    1
 72
    1
  1
14
  7
standard
210
0
220
0
230
1
 50
0
 73
    2
 44
1
  0
INSERT
  5
3ED
100
AcDbEntity
  8
schematic
  6
ByLayer
 62
  256
370
   -1
100
AcDbBlockReference
  2
Terminal-in
 10
34.77673399390245
 20
47.32820121951217
 30
0
 41
0.9
 42
0.9
 43
0
 50
180
 70
    1
 71
    1
 44
0.9
 45
0.9
  0
LINE
  5
3EE
100
AcDbEntity
  8
schematic
  6
ByLayer
 62
  256
370
   -1
100
AcDbLine
 10
48.27673399390245
 20
29.32820121951217
 11
48.27673399390245
 21
23.92820121951219
  0
LINE
  5
3EF
100
AcDbEntity
  8
schematic
  6
ByLayer
 62
  256
370
   -1
100
AcDbLine
 10
48.27673399390245
 20
23.92820121951219
 11
53.67673399390245
 21
23.92820121951219
  0
LINE
  5
3F0
100
AcDbEntity
  8
schematic
  6
ByLayer
 62
  256
370
   -1
100
AcDbLine
 10
53.67673399390245
 20
23.92820121951219
 11
59.97673399390244
 21
28.42820121951219
  0
LINE
  5
3F1
100
AcDbEntity
  8
schematic
  6
ByLayer
 62
  256
370
   -1
100
AcDbLine
 10
59.97673399390244
 20
28.42820121951219
 11
59.97673399390244
 21
23.92820121951219
  0
LINE
  5
3F2
100
AcDbEntity
  8
schematic
  6
ByLayer
 62
  256
370
   -1
100
AcDbLine
 10
59.97673399390244
 20
23.92820121951219
 11
66.27673399390244
 21
23.92820121951219
  0
LINE
  5
3F3
100
AcDbEntity
  8
schematic
  6
ByLayer
 62
  256
370
   -1
100
AcDbLine
 10
66.27673399390244
 20
23.92820121951219
 11
66.27673399390244
 21
29.32820121951217
  0
LINE
  5
3F4
100
AcDbEntity
  8
schematic
  6
ByLayer
 62
  256
370
   -1
100
AcDbLine
 10
79.77673399390244
 20
29.32820121951217
 11
79.77673399390244
 21
23.92820121951219
  0
LINE
  5
3F5
100
AcDbEntity
  8
schematic
  6
ByLayer
 62
  256
370
   -1
100
AcDbLine
 10
97.77673399390244
 20
23.92820121951219
 11
97.77673399390244
 21
29.32820121951217
  0
MTEXT
  5
3F6
100
AcDbEntity
  8
labels
  6
ByLayer
 62
  256
370
   -1
100
AcDbMText
 10
46.10292174900449
 20
22.18968040318565
 30
0
 40
2.7
 41
23.925
 71
    1
 72
    1
  1
TERMICO OLIO
  7
standard
210
0
220
0
230
1
 50
0
 73
    2
 44
1
  0
INSERT
  5
3F7
100
AcDbEntity
  8
schematic
  6
ByLayer
 62
  256
370
   -1
100
AcDbBlockReference
  2
Resistor-Therm
 10
80.67673399390245
 20
23.92820121951219
 30
0
 41
0.54
 42
0.54
 43
0
 50
0
 70
    1
 71
    1
 44
0
 45
0
  0
LINE
  5
3F8
100
AcDbEntity
  8
schematic
  6
ByLayer
 62
  256
370
   -1
100
AcDbLine
 10
95.97673399390244
 20
23.92820121951219
 11
97.77673399390244
 21
23.92820121951219
  0
MTEXT
  5
3F9
100
AcDbEntity
  8
labels
  6
ByLayer
 62
  256
370
   -1
100
AcDbMText
 10
79.77673399390244
 20
20.32820121951217
 30
0
 40
2.7
 41
20.0999994275942
 71
    1
 72
    1
  1
TERMISTORI
  7
standard
210
0
220
0
230
1
 50
0
 73
    2
 44
1
  0
LINE
  5
3FA
100
AcDbEntity
  8
labels
  6
ByLayer
 62
  256
370
   -1
100
AcDbLine
 10
79.77673399390244
 20
23.92820121951219
 11
80.67673399390245
 21
23.92820121951219
  0
LINE
  5
3FB
100
AcDbEntity
  8
schematic
  6
ByLayer
 62
  256
370
   -1
100
AcDbLine
 10
46.47673399390244
 20
29.32820121951217
 11
50.07673399390244
 21
29.32820121951217
  0
LINE
  5
3FC
100
AcDbEntity
  8
schematic
  6
ByLayer
 62
  256
370
   -1
100
AcDbLine
 10
50.07673399390244
 20
29.32820121951217
 11
48.27673399390245
 21
32.02820121951219
  0
LINE
  5
3FD
100
AcDbEntity
  8
schematic
  6
ByLayer
 62
  256
370
   -1
100
AcDbLine
 10
48.27673399390245
 20
32.02820121951219
 11
46.47673399390244
 21
29.32820121951217
  0
LINE
  5
3FE
100
AcDbEntity
  8
schematic
  6
ByLayer
 62
  256
370
   -1
100
AcDbLine
 10
64.47673399390244
 20
29.32820121951217
 11
68.07673399390245
 21
29.32820121951217
  0
LINE
  5
3FF
100
AcDbEntity
  8
schematic
  6
ByLayer
 62
  256
370
   -1
100
AcDbLine
 10
68.07673399390245
 20
29.32820121951217
 11
66.27673399390244
 21
32.02820121951219
  0
LINE
  5
400
100
AcDbEntity
  8
schematic
  6
ByLayer
 62
  256
370
   -1
100
AcDbLine
 10
66.27673399390244
 20
32.02820121951219
 11
64.47673399390244
 21
29.32820121951217
  0
LINE
  5
401
100
AcDbEntity
  8
schematic
  6
ByLayer
 62
  256
370
   -1
100
AcDbLine
 10
77.97673399390244
 20
29.32820121951217
 11
81.57673399390245
 21
29.32820121951217
  0
LINE
  5
402
100
AcDbEntity
  8
schematic
  6
ByLayer
 62
  256
370
   -1
100
AcDbLine
 10
81.57673399390245
 20
29.32820121951217
 11
79.77673399390244
 21
32.02820121951219
  0
LINE
  5
403
100
AcDbEntity
  8
schematic
  6
ByLayer
 62
  256
370
   -1
100
AcDbLine
 10
79.77673399390244
 20
32.02820121951219
 11
77.97673399390244
 21
29.32820121951217
  0
LINE
  5
404
100
AcDbEntity
  8
schematic
  6
ByLayer
 62
  256
370
   -1
100
AcDbLine
 10
95.97673399390244
 20
29.32820121951217
 11
99.57673399390244
 21
29.32820121951217
  0
LINE
  5
405
100
AcDbEntity
  8
schematic
  6
ByLayer
 62
  256
370
   -1
100
AcDbLine
 10
99.57673399390244
 20
29.32820121951217
 11
97.77673399390244
 21
32.02820121951219
  0
LINE
  5
406
100
AcDbEntity
  8
schematic
  6
ByLayer
 62
  256
370
   -1
100
AcDbLine
 10
95.97673399390244
 20
29.32820121951217
 11
97.77673399390244
 21
32.02820121951219
  0
LINE
  5
407
100
AcDbEntity
  8
schematic
  6
ByLayer
 62
  256
370
   -1
100
AcDbLine
 10
165.2767339939025
 20
63.52820121951219
 11
165.2767339939025
 21
54.52820121951219
  0
LINE
  5
408
100
AcDbEntity
  8
schematic
  6
ByLayer
 62
  256
370
   -1
100
AcDbLine
 10
165.2767339939025
 20
54.52820121951219
 11
192.2767339939025
 21
54.52820121951219
  0
LINE
  5
409
100
AcDbEntity
  8
schematic
  6
ByLayer
 62
  256
370
   -1
100
AcDbLine
 10
192.2767339939025
 20
54.52820121951219
 11
192.2767339939025
 21
63.52820121951219
  0
LINE
  5
40A
100
AcDbEntity
  8
schematic
  6
ByLayer
 62
  256
370
   -1
100
AcDbLine
 10
192.2767339939025
 20
63.52820121951219
 11
165.2767339939025
 21
63.52820121951219
  0
LINE
  5
40B
100
AcDbEntity
  8
schematic
  6
ByLayer
 62
  256
370
   -1
100
AcDbLine
 10
151.7767339939025
 20
47.32820121951217
 11
183.2767339939025
 21
47.32820121951217
  0
LINE
  5
40C
100
AcDbEntity
  8
schematic
  6
ByLayer
 62
  256
370
   -1
100
AcDbLine
 10
183.2767339939025
 20
47.32820121951217
 11
183.2767339939025
 21
54.52820121951219
  0
LINE
  5
40D
100
AcDbEntity
  8
schematic
  6
ByLayer
 62
  256
370
   -1
100
AcDbLine
 10
183.2767339939025
 20
63.52820121951219
 11
183.2767339939025
 21
68.9282012195122
  0
LINE
  5
40E
100
AcDbEntity
  8
schematic
  6
ByLayer
 62
  256
370
   -1
100
AcDbLine
 10
183.2767339939025
 20
68.9282012195122
 11
165.2767339939025
 21
68.9282012195122
  0
INSERT
  5
40F
100
AcDbEntity
  8
schematic
  6
ByLayer
 62
  256
370
   -1
100
AcDbBlockReference
  2
mcp2014x-connector-3
 10
182.4667339939025
 20
61.00820121951218
 30
0
 41
0.27
 42
0.27
 43
0
 50
0
 70
    1
 71
    1
 44
0.27
 45
0.27
  0
INSERT
  5
410
100
AcDbEntity
  8
schematic
  6
ByLayer
 62
  256
370
   -1
100
AcDbBlockReference
  2
mcp2014x-connector-3
 10
182.4667339939025
 20
55.60820121951217
 30
0
 41
0.27
 42
0.27
 43
0
 50
0
 70
    1
 71
    1
 44
0.27
 45
0.27
  0
LINE
  5
411
100
AcDbEntity
  8
schematic
  6
ByLayer
 62
  256
370
   -1
100
AcDbLine
 10
182.3767339939025
 20
61.72820121951218
 11
175.1767339939025
 21
61.72820121951218
  0
LINE
  5
412
100
AcDbEntity
  8
schematic
  6
ByLayer
 62
  256
370
   -1
100
AcDbLine
 10
175.1767339939025
 20
61.72820121951218
 11
175.1767339939025
 21
56.32820121951217
  0
LINE
  5
413
100
AcDbEntity
  8
schematic
  6
ByLayer
 62
  256
370
   -1
100
AcDbLine
 10
175.1767339939025
 20
56.32820121951217
 11
176.9767339939025
 21
56.32820121951217
  0
LINE
  5
414
100
AcDbEntity
  8
schematic
  6
ByLayer
 62
  256
370
   -1
100
AcDbLine
 10
176.9767339939025
 20
56.32820121951217
 11
179.6767339939025
 21
58.12820121951219
  0
LINE
  5
415
100
AcDbEntity
  8
schematic
  6
ByLayer
 62
  256
370
   -1
100
AcDbLine
 10
179.6767339939025
 20
56.32820121951217
 11
182.3767339939025
 21
56.32820121951217
  0
MTEXT
  5
416
100
AcDbEntity
  8
labels
  6
ByLayer
 62
  256
370
   -1
100
AcDbMText
 10
169.7767339939025
 20
61.72820121951218
 30
0
 40
1.8
 41
7.600000000000001
 71
    2
 72
    1
  1
OMRON\PK8DS
  7
standard
210
0
220
0
230
1
 50
0
 73
    2
 44
1
  0
MTEXT
  5
417
100
AcDbEntity
  8
labels
  6
ByLayer
 62
  256
370
   -1
100
AcDbMText
 10
185.9767339939025
 20
62.62820121951219
 30
0
 40
1.8
 41
1.4
 71
    2
 72
    1
  1
11
  7
standard
210
0
220
0
230
1
 50
0
 73
    2
 44
1
  0
MTEXT
  5
418
100
AcDbEntity
  8
labels
  6
ByLayer
 62
  256
370
   -1
100
AcDbMText
 10
186.4267339939025
 20
57.0482012195122
 30
0
 40
1.8
 41
2
 71
    2
 72
    1
  1
14
  7
standard
210
0
220
0
230
1
 50
0
 73
    2
 44
1
  0
MTEXT
  5
419
100
AcDbEntity
  8
labels
  6
ByLayer
 62
  256
370
   -1
100
AcDbMText
 10
193.8778658836663
 20
60.83672730218935
 30
0
 40
3.6
 41
7.599999236792486
 71
    1
 72
    1
  1
CFS
  7
standard
210
0
220
0
230
1
 50
0
 73
    2
 44
1
  0
MTEXT
  5
41A
100
AcDbEntity
  8
labels
  6
ByLayer
 62
  256
370
   -1
100
AcDbMText
 10
31.70912972470952
 20
33.41322597960077
 30
0
 40
2.7
 41
6.300000000000336
 71
    1
 72
    1
  1
GND
  7
standard
210
0
220
0
230
1
 50
0
 73
    2
 44
1
  0
LINE
  5
41B
100
AcDbEntity
  8
schematic
  6
ByLayer
 62
  256
370
   -1
100
AcDbLine
 10
151.7767339939025
 20
73.67223704268289
 11
151.7767339939025
 21
80.87223704268291
  0
LINE
  5
41C
100
AcDbEntity
  8
schematic
  6
ByLayer
 62
  256
370
   -1
100
AcDbLine
 10
151.7767339939025
 20
80.87223704268291
 11
158.0767339939025
 21
89.87223704268291
  0
MTEXT
  5
41D
100
AcDbEntity
  8
labels
  6
ByLayer
 62
  256
370
   -1
100
AcDbMText
 10
147.1863567073171
 20
94.0355945121951
 30
0
 40
2.7
 41
3
 71
    1
 72
    1
  1
14
  7
standard
210
0
220
0
230
1
 50
0
 73
    2
 44
1
  0
MTEXT
  5
41E
100
AcDbEntity
  8
labels
  6
ByLayer
 62
  256
370
   -1
100
AcDbMText
 10
147.1863567073171
 20
78.41850228658537
 30
0
 40
2.7
 41
2.700000000000168
 71
    1
 72
    1
  1
13
  7
standard
210
0
220
0
230
1
 50
0
 73
    2
 44
1
  0
MTEXT
  5
41F
100
AcDbEntity
  8
labels
  6
ByLayer
 62
  256
370
   -1
100
AcDbMText
 10
146.3767339939025
 20
87.17223704268289
 30
0
 40
2.7
 41
5.399999427594365
 71
    1
 72
    1
  1
DS1
  7
standard
210
0
220
0
230
1
 50
0
 73
    2
 44
1
  0
MTEXT
  5
420
100
AcDbEntity
  8
labels
  6
ByLayer
 62
  256
370
   -1
100
AcDbMText
 10
146.3767339939025
 20
60.82820121951217
 30
0
 40
2.7
 41
5.999999427594365
 71
    1
 72
    1
  1
DS2
  7
standard
210
0
220
0
230
1
 50
0
 73
    2
 44
1
  0
LINE
  5
421
100
AcDbEntity
  8
labels
  6
ByLayer
 62
  256
370
   -1
100
AcDbLine
 10
48.33041158536586
 20
46.34965701219512
 11
48.33041158536586
 21
100.226181402439
  0
LINE
  5
422
100
AcDbEntity
  8
labels
  6
ByLayer
 62
  256
370
   -1
100
AcDbLine
 10
79.82440929878049
 20
46.15158155487806
 11
79.82440929878049
 21
100.226181402439
  0
LINE
  5
423
100
AcDbEntity
  8
labels
  6
ByLayer
 62
  256
370
   -1
100
AcDbLine
 10
111.1203315548781
 20
90.91663490853659
 11
111.1203315548781
 21
63.38414634146342
  0
LINE
  5
424
100
AcDbEntity
  8
labels
  6
ByLayer
 62
  256
370
   -1
100
AcDbLine
 10
124.589462652439
 20
90.52048399390245
 11
124.589462652439
 21
63.18607088414635
  0
LINE
  5
425
100
AcDbEntity
  8
labels
  6
ByLayer
 62
  256
370
   -1
100
AcDbLine
 10
138.05859375
 20
91.11471036585367
 11
138.05859375
 21
63.38414634146342
  0
LINE
  5
426
100
AcDbEntity
  8
labels
  6
ByLayer
 62
  256
370
   -1
100
AcDbLine
 10
151.7258003048781
 20
74.27829649390245
 11
151.7258003048781
 21
63.58222179878049
  0
LINE
  5
427
100
AcDbEntity
  8
labels
  6
ByLayer
 62
  256
370
   -1
100
AcDbLine
 10
165.194931402439
 20
96.66082317073172
 11
165.194931402439
 21
68.93025914634147
  0
MTEXT
  5
428
100
AcDbEntity
  8
labels
  6
ByLayer
 62
  256
370
   -1
100
AcDbMText
 10
351.1861506757417
 20
201.7532040513709
 30
0
 40
2.7
 41
4.199999427594197
 71
    1
 72
    1
  1
SX
  7
standard
210
0
220
0
230
1
 50
0
 73
    2
 44
1
  0
MTEXT
  5
429
100
AcDbEntity
  8
labels
  6
ByLayer
 62
  256
370
   -1
100
AcDbMText
 10
299.0982104366915
 20
201.395698484024
 30
0
 40
2.7
 41
4.5
 71
    1
 72
    1
  1
YX
  7
standard
210
0
220
0
230
1
 50
0
 73
    2
 44
1
  0
MTEXT
  5
42A
100
AcDbEntity
  8
labels
  6
ByLayer
 62
  256
370
   -1
100
AcDbMText
 10
315.535207418583
 20
201.395698484024
 30
0
 40
2.7
 41
4.200000000000001
 71
    1
 72
    1
  1
PX
  7
standard
210
0
220
0
230
1
 50
0
 73
    2
 44
1
  0
INSERT
  5
42B
100
AcDbEntity
  8
labels
  6
ByLayer
 62
  256
370
   -1
100
AcDbBlockReference
  2
junction
 10
111.3
 20
47.40000000000001
 30
0
 41
1
 42
1
 43
0
 50
0
 70
    1
 71
    1
 44
1
 45
1
  0
INSERT
  5
42C
100
AcDbEntity
  8
labels
  6
ByLayer
 62
  256
370
   -1
100
AcDbBlockReference
  2
junction
 10
124.7
 20
47.4
 30
0
 41
1
 42
1
 43
0
 50
0
 70
    1
 71
    1
 44
1
 45
1
  0
INSERT
  5
42D
100
AcDbEntity
  8
labels
  6
ByLayer
 62
  256
370
   -1
100
AcDbBlockReference
  2
junction
 10
97.80000000000001
 20
47.3
 30
0
 41
1
 42
1
 43
0
 50
0
 70
    1
 71
    1
 44
1
 45
1
  0
INSERT
  5
42E
100
AcDbEntity
  8
labels
  6
ByLayer
 62
  256
370
   -1
100
AcDbBlockReference
  2
junction
 10
138.3
 20
47.4
 30
0
 41
1
 42
1
 43
0
 50
0
 70
    1
 71
    1
 44
1
 45
1
  0
INSERT
  5
42F
100
AcDbEntity
  8
labels
  6
ByLayer
 62
  256
370
   -1
100
AcDbBlockReference
  2
junction
 10
151.8
 20
47.3
 30
0
 41
1
 42
1
 43
0
 50
0
 70
    1
 71
    1
 44
1
 45
1
  0
INSERT
  5
430
100
AcDbEntity
  8
schematic
  6
ByLayer
 62
  256
370
   -1
100
AcDbBlockReference
  2
mcp2014x-connector
 10
349.8786585365854
 20
101.2664634146341
 30
0
 41
0.9
 42
0.9
 43
0
 50
0
 70
    1
 71
    1
 44
0.9
 45
0.9
  0
INSERT
  5
431
100
AcDbEntity
  8
schematic
  6
ByLayer
 62
  256
370
   -1
100
AcDbBlockReference
  2
mcp2014x-connector
 10
370
 20
101
 30
0
 41
0.9
 42
0.9
 43
0
 50
0
 70
    1
 71
    1
 44
0.9
 45
0.9
  0
INSERT
  5
432
100
AcDbEntity
  8
schematic
  6
ByLayer
 62
  256
370
   -1
100
AcDbBlockReference
  2
Terminal-in
 10
352.9786585365854
 20
80.06646341463413
 30
0
 41
0.9
 42
0.9
 43
0
 50
180
 70
    1
 71
    1
 44
0.9
 45
0.9
  0
INSERT
  5
433
100
AcDbEntity
  8
schematic
  6
ByLayer
 62
  256
370
   -1
100
AcDbBlockReference
  2
Terminal-in
 10
372.9786585365854
 20
80.06646341463413
 30
0
 41
0.9
 42
0.9
 43
0
 50
180
 70
    1
 71
    1
 44
0.9
 45
0.9
  0
INSERT
  5
434
100
AcDbEntity
  8
0
  6
ByLayer
 62
  256
370
   -1
100
AcDbBlockReference
  2
2vd1
 10
353
 20
90
 30
0
 41
1
 42
1
 43
0
 50
0
 70
    1
 71
    1
 44
0
 45
0
  0
INSERT
  5
435
100
AcDbEntity
  8
0
  6
ByLayer
 62
  256
370
   -1
100
AcDbBlockReference
  2
2vd1
 10
373
 20
90
 30
0
 41
1
 42
1
 43
0
 50
0
 70
    1
 71
    1
 44
0
 45
0
  0
LINE
  5
436
100
AcDbEntity
  8
schematic
  6
ByLayer
 62
  256
370
   -1
100
AcDbLine
 10
353
 20
90
 11
353
 21
100
  0
LINE
  5
437
100
AcDbEntity
  8
schematic
  6
ByLayer
 62
  256
370
   -1
100
AcDbLine
 10
373
 20
90
 11
373
 21
100
  0
MTEXT
  5
438
100
AcDbEntity
  8
labels
  6
ByLayer
 62
  256
370
   -1
100
AcDbMText
 10
346.5786585365854
 20
72.36646341463415
 30
0
 40
3.6
 41
5.2
 71
    2
 72
    1
  1
UP
  7
standard
210
0
220
0
230
1
 50
0
 73
    2
 44
1
  0
MTEXT
  5
439
100
AcDbEntity
  8
labels
  6
ByLayer
 62
  256
370
   -1
100
AcDbMText
 10
366.5786585365854
 20
72.36646341463415
 30
0
 40
3.6
 41
6.400000000000223
 71
    2
 72
    1
  1
DW
  7
standard
210
0
220
0
230
1
 50
0
 73
    2
 44
1
  0
MTEXT
  5
43A
100
AcDbEntity
  8
labels
  6
ByLayer
 62
  256
370
   -1
100
AcDbMText
 10
350.7989433757691
 20
105.0121975272872
 30
0
 40
2.7
 41
3.600000000000168
 71
    1
 72
    1
  1
46
  7
standard
210
0
220
0
230
1
 50
0
 73
    2
 44
1
  0
MTEXT
  5
43B
100
AcDbEntity
  8
labels
  6
ByLayer
 62
  256
370
   -1
100
AcDbMText
 10
370.9202848391838
 20
104.7457341126531
 30
0
 40
2.7
 41
3.600000000000168
 71
    1
 72
    1
  1
45
  7
standard
210
0
220
0
230
1
 50
0
 73
    2
 44
1
  0
LINE
  5
43C
100
AcDbEntity
  8
0
  6
ByLayer
 62
  256
370
   -1
100
AcDbLine
 10
20.24396378269337
 20
286.6045020118893
 11
408.7492454728934
 21
286.6045020118893
  0
LINE
  5
43D
100
AcDbEntity
  8
0
  6
ByLayer
 62
  256
370
   -1
100
AcDbLine
 10
408.7492454728934
 20
286.6045020118893
 11
408.7492454728934
 21
13.13443158948933
  0
LINE
  5
43E
100
AcDbEntity
  8
0
  6
ByLayer
 62
  256
370
   -1
100
AcDbLine
 10
408.7492454728934
 20
13.13443158948933
 11
20.24396378269337
 21
13.13443158948933
  0
LINE
  5
43F
100
AcDbEntity
  8
0
  6
ByLayer
 62
  256
370
   -1
100
AcDbLine
 10
20.24396378269337
 20
13.13443158948933
 11
20.24396378269337
 21
286.6045020118893
  0
LINE
  5
440
100
AcDbEntity
  8
frame-title
  6
ByLayer
 62
  256
370
   -1
100
AcDbLine
 10
299.9886820928934
 20
55.48830482898933
 11
408.7492454728934
 21
55.48830482898933
  0
LINE
  5
441
100
AcDbEntity
  8
frame-title
  6
ByLayer
 62
  256
370
   -1
100
AcDbLine
 10
299.9837159178934
 20
13.13443158948933
 11
299.9837159178934
 21
55.48830482898933
  0
INSERT
  5
442
100
AcDbEntity
  8
frame-title
  6
ByLayer
 62
  256
370
   -1
100
AcDbBlockReference
  2
eca-logo-1
 10
299.1604285718934
 20
36.19167102618933
 30
0
 41
1
 42
1
 43
0
 50
0
 70
    1
 71
    1
 44
0
 45
0
  0
MTEXT
  5
443
100
AcDbEntity
  8
frame-title
  6
ByLayer
 62
  256
370
   -1
100
AcDbMText
 10
332.8929356138934
 20
52.79020623738933
 30
0
 40
3
 41
59.50000154286238
 71
    1
 72
    1
  1
ECA Di Belardi\PVia Dei Crispolti 91-93, Roma\PTel. 0643535861
  7
standard
210
0
220
0
230
1
 50
0
 73
    2
 44
1
  0
MTEXT
  5
444
100
AcDbEntity
  8
labels
  6
ByLayer
 62
  256
370
   -1
100
AcDbMText
 10
365.6055418920683
 20
201.5148670064729
 30
0
 40
2.7
 41
5.399999427594365
 71
    1
 72
    1
  1
DS1
  7
standard
210
0
220
0
230
1
 50
0
 73
    2
 44
1
  0
MTEXT
  5
445
100
AcDbEntity
  8
labels
  6
ByLayer
 62
  256
370
   -1
100
AcDbMText
 10
387.1804394720987
 20
201.5148670064729
 30
0
 40
2.7
 41
5.999999427594365
 71
    1
 72
    1
  1
DS2
  7
standard
210
0
220
0
230
1
 50
0
 73
    2
 44
1
  0
MTEXT
  5
446
100
AcDbEntity
  8
labels
  6
ByLayer
 62
  256
370
   -1
100
AcDbMText
 10
108
 20
68.7
 30
0
 40
2.7
 41
1.200000000000168
 71
    1
 72
    1
  1
3
  7
standard
210
0
220
0
230
1
 50
0
 73
    2
 44
1
  0
MTEXT
  5
447
100
AcDbEntity
  8
labels
  6
ByLayer
 62
  256
370
   -1
100
AcDbMText
 10
105.75
 20
63.7
 30
0
 40
2.7
 41
8.400000000000002
 71
    2
 72
    1
  1
P\PAUX1
  7
standard
210
0
220
0
230
1
 50
0
 73
    2
 44
1
  0
MTEXT
  5
448
100
AcDbEntity
  8
labels
  6
ByLayer
 62
  256
370
   -1
100
AcDbMText
 10
108
 20
53.7
 30
0
 40
2.7
 41
1.5
 71
    1
 72
    1
  1
4
  7
standard
210
0
220
0
230
1
 50
0
 73
    2
 44
1
  0
MTEXT
  5
449
100
AcDbEntity
  8
labels
  6
ByLayer
 62
  256
370
   -1
100
AcDbMText
 10
136
 20
68.7
 30
0
 40
2.7
 41
1.200000000000168
 71
    1
 72
    1
  1
3
  7
standard
210
0
220
0
230
1
 50
0
 73
    2
 44
1
  0
MTEXT
  5
44A
100
AcDbEntity
  8
labels
  6
ByLayer
 62
  256
370
   -1
100
AcDbMText
 10
134.1
 20
63.2
 30
0
 40
2.7
 41
8.400000000000002
 71
    2
 72
    1
  1
SAL\PAUX1
  7
standard
210
0
220
0
230
1
 50
0
 73
    2
 44
1
  0
MTEXT
  5
44B
100
AcDbEntity
  8
labels
  6
ByLayer
 62
  256
370
   -1
100
AcDbMText
 10
136
 20
53.7
 30
0
 40
2.7
 41
1.5
 71
    1
 72
    1
  1
4
  7
standard
210
0
220
0
230
1
 50
0
 73
    2
 44
1
  0
MTEXT
  5
44C
100
AcDbEntity
  8
frame-title
  6
ByLayer
 62
  256
370
   -1
100
AcDbMText
 10
303
 20
35
 30
0
 40
3
 41
57.916666030661
 71
    1
 72
    1
  1
Schema: MC-OL48MIAEA31-06\PAutore: Belardi\PData: 01/16\PFoglio: 2 di 18
  7
standard
210
0
220
0
230
1
 50
0
 73
    2
 44
1
  0
ENDSEC
  0
SECTION
  2
OBJECTS
  0
DICTIONARY
  5
C
330
0
100
AcDbDictionary
281
    1
  3
ACAD_GROUP
350
D
  0
DICTIONARY
  5
D
330
C
100
AcDbDictionary
281
    1
  0
ENDSEC
  0
EOF
